%FSLAX44Y44*%
%MOMM*%
G71*
G01*
G75*
G04 Layer_Color=65535*
%ADD10R,3.2000X2.1000*%
%ADD11R,0.9000X2.1000*%
%ADD12R,0.9000X0.6000*%
%ADD13R,0.8000X0.8000*%
%ADD14R,2.0000X0.4000*%
%ADD15R,0.6000X0.9000*%
%ADD16O,0.6000X2.2000*%
%ADD17R,1.1000X2.3000*%
%ADD18R,0.8000X0.8000*%
%ADD19R,0.6000X1.1500*%
%ADD20R,1.3000X0.9000*%
%ADD21O,2.1000X0.3000*%
%ADD22O,0.3000X2.1000*%
%ADD23R,0.4000X2.1500*%
%ADD24R,0.4000X2.1500*%
%ADD25R,0.3500X1.7000*%
%ADD26O,2.5000X0.7000*%
%ADD27O,0.7000X2.5000*%
%ADD28R,2.1000X0.9000*%
%ADD29R,2.1000X3.2000*%
%ADD30O,2.2000X0.6000*%
%ADD31R,2.0000X0.8500*%
%ADD32R,1.1500X1.3000*%
%ADD33R,1.2000X1.3000*%
%ADD34R,0.6000X1.3000*%
%ADD35C,0.2000*%
%ADD36C,0.5000*%
%ADD37R,1.2000X1.2000*%
%ADD38C,1.2000*%
%ADD39C,3.5000*%
%ADD40C,1.5000*%
%ADD41R,1.5000X1.5000*%
%ADD42R,1.5000X1.5000*%
%ADD43C,1.5240*%
%ADD44C,4.5000*%
%ADD45C,4.7600*%
%ADD46R,1.6900X1.6900*%
%ADD47C,1.6900*%
%ADD48C,0.8000*%
%ADD49C,1.0000*%
%ADD50C,0.2032*%
%ADD51R,1.0000X1.0000*%
%ADD52C,0.2540*%
%ADD53C,0.2500*%
%ADD54C,0.1000*%
%ADD55C,0.6000*%
%ADD56C,0.1500*%
D35*
X-329226Y-130351D02*
G03*
X-308596Y-130205I10476J-22699D01*
G01*
X-59226Y-130351D02*
G03*
X-38596Y-130205I10476J-22699D01*
G01*
X210774Y-130351D02*
G03*
X231404Y-130205I10476J-22699D01*
G01*
X480774Y-130351D02*
G03*
X501404Y-130205I10476J-22699D01*
G01*
X-384226Y-130351D02*
G03*
X-363596Y-130205I10476J-22699D01*
G01*
X-114226Y-130351D02*
G03*
X-93596Y-130205I10476J-22699D01*
G01*
X155774Y-130351D02*
G03*
X176404Y-130205I10476J-22699D01*
G01*
X425774Y-130351D02*
G03*
X446404Y-130205I10476J-22699D01*
G01*
X-441726Y-130351D02*
G03*
X-421096Y-130205I10476J-22699D01*
G01*
X-171726Y-130351D02*
G03*
X-151096Y-130205I10476J-22699D01*
G01*
X98274Y-130351D02*
G03*
X118904Y-130205I10476J-22699D01*
G01*
X368274Y-130351D02*
G03*
X388904Y-130205I10476J-22699D01*
G01*
X-639750Y-302000D02*
G03*
X-639750Y-290000I0J6000D01*
G01*
X-254001Y305000D02*
G03*
X-254001Y293000I0J-6000D01*
G01*
X103501Y304250D02*
G03*
X103501Y292250I0J-6000D01*
G01*
X455540Y305500D02*
G03*
X455540Y293500I0J-6000D01*
G01*
X-453600Y-559550D02*
G03*
X-446650Y-566500I6950J0D01*
G01*
X-453650Y-513500D02*
G03*
X-460600Y-506550I-6950J0D01*
G01*
X-283350Y-566500D02*
G03*
X-276400Y-559550I0J6950D01*
G01*
X-269400Y-506550D02*
G03*
X-276350Y-513500I0J-6950D01*
G01*
X-264400Y559050D02*
G03*
X-271350Y566000I-6950J0D01*
G01*
X-264350Y513000D02*
G03*
X-257400Y506050I6950J0D01*
G01*
X-434650Y566000D02*
G03*
X-441600Y559050I0J-6950D01*
G01*
X-448600Y506050D02*
G03*
X-441650Y513000I0J6950D01*
G01*
X93601Y559050D02*
G03*
X86650Y566000I-6950J0D01*
G01*
X93651Y513000D02*
G03*
X100601Y506050I6950J0D01*
G01*
X-76649Y566000D02*
G03*
X-83600Y559050I0J-6950D01*
G01*
X-90599Y506050D02*
G03*
X-83650Y513000I0J6950D01*
G01*
X445640Y559800D02*
G03*
X438690Y566750I-6950J0D01*
G01*
X445690Y513750D02*
G03*
X452640Y506800I6950J0D01*
G01*
X275390Y566750D02*
G03*
X268440Y559800I0J-6950D01*
G01*
X261440Y506800D02*
G03*
X268390Y513750I0J6950D01*
G01*
X501000Y-371500D02*
Y-341500D01*
X568000Y-371500D02*
Y-341500D01*
X501000Y-371500D02*
X568000D01*
X501000Y-341500D02*
X568000D01*
X-561800Y280250D02*
X-511800D01*
X-561800Y298250D02*
X-511800D01*
X-561800Y280250D02*
Y298250D01*
X-511800Y280250D02*
Y298250D01*
X-70000Y147750D02*
X-65000D01*
X-45000D02*
X-40000D01*
X-45000Y87750D02*
X-40000D01*
X-70000D02*
X-65000D01*
X-70000D02*
Y147750D01*
X-40000Y87750D02*
Y147750D01*
X-342100Y-218750D02*
X-334100D01*
Y-227750D02*
Y-218750D01*
X-364100D02*
X-356100D01*
X-364100Y-227750D02*
Y-218750D01*
X-519350Y352750D02*
X-511350D01*
Y343750D02*
Y352750D01*
X-541350D02*
X-533350D01*
X-541350Y343750D02*
Y352750D01*
X-174100Y355000D02*
X-166100D01*
Y346000D02*
Y355000D01*
X-196100D02*
X-188100D01*
X-196100Y346000D02*
Y355000D01*
X188400Y352500D02*
X196400D01*
Y343500D02*
Y352500D01*
X166400D02*
X174400D01*
X166400Y343500D02*
Y352500D01*
X-328910Y-130189D02*
X-308591D01*
X-58910D02*
X-38590D01*
X211089Y-130190D02*
X231409D01*
X481090D02*
X501410D01*
X-383910Y-130189D02*
X-363590D01*
X-113910D02*
X-93589D01*
X156090D02*
X176410D01*
X426090Y-130190D02*
X446410D01*
X-441410Y-130189D02*
X-421090D01*
X-171409Y-130190D02*
X-151089D01*
X98590D02*
X118910D01*
X368590Y-130190D02*
X388910D01*
X202300Y-355000D02*
X322700D01*
X202300Y-515000D02*
Y-435000D01*
X322700Y-515000D02*
Y-435000D01*
X202300Y-515000D02*
X322700D01*
Y-389800D02*
Y-355000D01*
X202300Y-389800D02*
Y-355000D01*
X-471450Y164450D02*
X-420650D01*
X-471450Y139050D02*
Y164450D01*
Y139050D02*
X-420650D01*
Y164450D01*
X-174100Y121550D02*
X-123300D01*
Y146950D01*
X-174100D02*
X-123300D01*
X-174100Y121550D02*
Y146950D01*
X95900Y121550D02*
X146700D01*
Y146950D01*
X95900D02*
X146700D01*
X95900Y121550D02*
Y146950D01*
X365900Y121550D02*
X416700D01*
Y146950D01*
X365900D02*
X416700D01*
X365900Y121550D02*
Y146950D01*
X-505650Y-95949D02*
Y-70549D01*
X-404050D01*
X-505650Y-95949D02*
X-404050D01*
Y-70549D01*
X-235650Y-95949D02*
Y-70549D01*
X-134050D01*
X-235650Y-95949D02*
X-134050D01*
Y-70549D01*
X34350Y-95949D02*
Y-70549D01*
X135950D01*
X34350Y-95949D02*
X135950D01*
Y-70549D01*
X304350Y-95949D02*
Y-70549D01*
X405950D01*
X304350Y-95949D02*
X405950D01*
Y-70549D01*
X-374050Y-121350D02*
Y-70550D01*
X-399450D02*
X-374050D01*
X-399450Y-121350D02*
Y-70550D01*
Y-121350D02*
X-374050D01*
X-104050D02*
Y-70550D01*
X-129450D02*
X-104050D01*
X-129450Y-121350D02*
Y-70550D01*
Y-121350D02*
X-104050D01*
X165950D02*
Y-70550D01*
X140550D02*
X165950D01*
X140550Y-121350D02*
Y-70550D01*
Y-121350D02*
X165950D01*
X435950D02*
Y-70550D01*
X410550D02*
X435950D01*
X410550Y-121350D02*
Y-70550D01*
Y-121350D02*
X435950D01*
X-606850Y-219700D02*
X-556049D01*
Y-194300D01*
X-606850D02*
X-556049D01*
X-606850Y-219700D02*
Y-194300D01*
X-378200Y230950D02*
X-327400D01*
X-378200Y205550D02*
Y230950D01*
Y205550D02*
X-327400D01*
Y230950D01*
X-20700Y230200D02*
X30100D01*
X-20700Y204800D02*
Y230200D01*
Y204800D02*
X30100D01*
Y230200D01*
X331340Y231450D02*
X382141D01*
X331340Y206050D02*
Y231450D01*
Y206050D02*
X382141D01*
Y231450D01*
X-384550Y-291250D02*
X-334550D01*
X-384550Y-273250D02*
X-334550D01*
X-384550Y-291250D02*
Y-273250D01*
X-334550Y-291250D02*
Y-273250D01*
X-216550Y282500D02*
X-166550D01*
X-216550Y300500D02*
X-166550D01*
X-216550Y282500D02*
Y300500D01*
X-166550Y282500D02*
Y300500D01*
X145950Y280000D02*
X195950D01*
X145950Y298000D02*
X195950D01*
X145950Y280000D02*
Y298000D01*
X195950Y280000D02*
Y298000D01*
X200000Y147750D02*
X205000D01*
X225000D02*
X230000D01*
X225000Y87750D02*
X230000D01*
X200000D02*
X205000D01*
X200000D02*
Y147750D01*
X230000Y87750D02*
Y147750D01*
X470000D02*
X475000D01*
X495000D02*
X500000D01*
X495000Y87750D02*
X500000D01*
X470000D02*
X475000D01*
X470000D02*
Y147750D01*
X500000Y87750D02*
Y147750D01*
X-370451Y-22250D02*
Y60750D01*
X-453450Y-22250D02*
Y60750D01*
Y-22250D02*
X-370451D01*
X-453450Y60750D02*
X-370451D01*
X169549Y-22250D02*
Y60750D01*
X86549Y-22250D02*
Y60750D01*
Y-22250D02*
X169549D01*
X86549Y60750D02*
X169549D01*
X439549Y-22250D02*
Y60750D01*
X356549Y-22250D02*
Y60750D01*
Y-22250D02*
X439549D01*
X356549Y60750D02*
X439549D01*
X-639750Y-314000D02*
Y-302000D01*
Y-290000D02*
Y-278000D01*
X-554750Y-314000D02*
Y-278000D01*
X-639750Y-314000D02*
X-554750D01*
X-639750Y-278000D02*
X-554750D01*
X-254000Y305000D02*
Y317000D01*
Y281000D02*
Y293000D01*
X-339001Y281000D02*
Y317000D01*
X-254000D01*
X-339001Y281000D02*
X-254000D01*
X103500Y304250D02*
Y316250D01*
Y280250D02*
Y292250D01*
X18500Y280250D02*
Y316250D01*
X103500D01*
X18500Y280250D02*
X103500D01*
X455540Y305500D02*
Y317500D01*
Y281500D02*
Y293500D01*
X370540Y281500D02*
Y317500D01*
X455540D01*
X370540Y281500D02*
X455540D01*
X-467250Y-322000D02*
Y-290000D01*
X-401250Y-322000D02*
Y-290000D01*
X-467250Y-322000D02*
X-401250D01*
X-467250Y-290000D02*
X-401250D01*
X-69000Y293001D02*
Y325000D01*
X-135000Y293001D02*
Y325000D01*
X-69000D01*
X-135000Y293001D02*
X-69000D01*
X283040Y294250D02*
Y326250D01*
X217040Y294250D02*
Y326250D01*
X283040D01*
X217040Y294250D02*
X283040D01*
X-194000Y-281500D02*
Y-231500D01*
X-178000Y-281500D02*
Y-231500D01*
X-194000D02*
X-178000D01*
X-194000Y-281500D02*
X-178000D01*
X457000Y-272000D02*
Y-222000D01*
X441000Y-272000D02*
Y-222000D01*
Y-272000D02*
X457000D01*
X441000Y-222000D02*
X457000D01*
X595950Y-327500D02*
X645950D01*
X595950Y-311500D02*
X645950D01*
X595950Y-327500D02*
Y-311500D01*
X645950Y-327500D02*
Y-311500D01*
X-210250Y-358000D02*
Y-308000D01*
X-226250Y-358000D02*
Y-308000D01*
Y-358000D02*
X-210250D01*
X-226250Y-308000D02*
X-210250D01*
X64250Y-260500D02*
Y-210500D01*
X80250Y-260500D02*
Y-210500D01*
X64250D02*
X80250D01*
X64250Y-260500D02*
X80250D01*
X253250Y-318000D02*
Y-251000D01*
X223250Y-318000D02*
Y-251000D01*
Y-318000D02*
X253250D01*
X223250Y-251000D02*
X253250D01*
X32500Y-428000D02*
Y-345000D01*
X-50500Y-428000D02*
Y-345000D01*
Y-428000D02*
X32500D01*
X-50500Y-345000D02*
X32500D01*
X-174000Y-430000D02*
X-156000D01*
X-174000Y-480000D02*
X-156000D01*
X-174000D02*
Y-430000D01*
X-156000Y-480000D02*
Y-430000D01*
X372250Y-307000D02*
X441750D01*
X372250Y-487000D02*
X441750D01*
X372250D02*
Y-307000D01*
X441750Y-487000D02*
Y-307000D01*
X103750Y-481500D02*
Y-447500D01*
X106750D01*
X103750Y-481500D02*
X106750D01*
X164750Y-447500D02*
X166750D01*
Y-479500D02*
Y-447500D01*
X164750Y-481500D02*
X166750Y-479500D01*
X-333750Y154250D02*
X-328750D01*
X-308750D02*
X-303750D01*
X-308750Y94250D02*
X-303750D01*
X-333750D02*
X-328750D01*
X-333750D02*
Y154250D01*
X-303750Y94250D02*
Y154250D01*
X-426501Y293001D02*
Y325000D01*
X-492501Y293001D02*
Y325000D01*
X-426501D01*
X-492501Y293001D02*
X-426501D01*
X-100451Y-22250D02*
Y60750D01*
X-183451Y-22250D02*
Y60750D01*
Y-22250D02*
X-100451D01*
X-183451Y60750D02*
X-100451D01*
X-453650Y-559500D02*
Y-513500D01*
X-276350Y-559500D02*
Y-513500D01*
X-295000Y-476500D02*
Y-382500D01*
X-519000Y-506500D02*
X-211000D01*
X-435000Y-476500D02*
Y-382500D01*
X-519000Y-382500D02*
X-211000D01*
X-446650Y-566500D02*
X-283350D01*
X-211000Y-506500D02*
Y-382500D01*
X-519000Y-506500D02*
Y-382500D01*
Y-476500D02*
X-211000D01*
X-264350Y513000D02*
Y559000D01*
X-441650Y513000D02*
Y559000D01*
X-423000Y382000D02*
Y476000D01*
X-507000Y506000D02*
X-199000D01*
X-283000Y382000D02*
Y476000D01*
X-507000Y382000D02*
X-199000D01*
X-434650Y566000D02*
X-271350D01*
X-507000Y382000D02*
Y506000D01*
X-199000Y382000D02*
Y506000D01*
X-507000Y476000D02*
X-199000D01*
X93651Y513000D02*
Y559000D01*
X-83650Y513000D02*
Y559000D01*
X-64999Y382000D02*
Y476000D01*
X-149000Y506000D02*
X159001D01*
X75001Y382000D02*
Y476000D01*
X-149000Y382000D02*
X159001D01*
X-76649Y566000D02*
X86650D01*
X-149000Y382000D02*
Y506000D01*
X159001Y382000D02*
Y506000D01*
X-149000Y476000D02*
X159001D01*
X445690Y513750D02*
Y559750D01*
X268390Y513750D02*
Y559750D01*
X287040Y382750D02*
Y476750D01*
X203040Y506750D02*
X511040D01*
X427040Y382750D02*
Y476750D01*
X203040Y382750D02*
X511040D01*
X275390Y566750D02*
X438690D01*
X203040Y382750D02*
Y506750D01*
X511040Y382750D02*
Y506750D01*
X203040Y476750D02*
X511040D01*
X-236750Y-158750D02*
X-228750D01*
Y-165750D02*
Y-158750D01*
X-258750D02*
X-250750D01*
X-258750Y-165750D02*
Y-158750D01*
X303250D02*
X311250D01*
Y-165750D02*
Y-158750D01*
X281250D02*
X289250D01*
X281250Y-165750D02*
Y-158750D01*
X33000Y-147000D02*
X41000D01*
Y-154000D02*
Y-147000D01*
X11000D02*
X19000D01*
X11000Y-154000D02*
Y-147000D01*
X-503000Y-146000D02*
X-495000D01*
Y-153000D02*
Y-146000D01*
X-525000D02*
X-517000D01*
X-525000Y-153000D02*
Y-146000D01*
X-236750Y-116250D02*
X-228750D01*
Y-123250D02*
Y-116250D01*
X-258750D02*
X-250750D01*
X-258750Y-123250D02*
Y-116250D01*
X303250D02*
X311250D01*
Y-123250D02*
Y-116250D01*
X281250D02*
X289250D01*
X281250Y-123250D02*
Y-116250D01*
X-503000Y-109000D02*
X-495000D01*
Y-116000D02*
Y-109000D01*
X-525000D02*
X-517000D01*
X-525000Y-116000D02*
Y-109000D01*
X34000D02*
X42000D01*
Y-116000D02*
Y-109000D01*
X12000D02*
X20000D01*
X12000Y-116000D02*
Y-109000D01*
D52*
X484250Y-9750D02*
X508250D01*
Y22250D01*
X484250D02*
X508250D01*
X484250Y-9750D02*
Y22250D01*
X214250Y-9750D02*
X238250D01*
Y22250D01*
X214250D02*
X238250D01*
X214250Y-9750D02*
Y22250D01*
X-55750Y-9750D02*
X-31750D01*
Y22250D01*
X-55750D02*
X-31750D01*
X-55750Y-9750D02*
Y22250D01*
X-325750Y-9750D02*
X-301750D01*
Y22250D01*
X-325750D02*
X-301750D01*
X-325750Y-9750D02*
Y22250D01*
X575000Y-492500D02*
Y-447500D01*
Y-492500D02*
X640000D01*
Y-447500D01*
X575000D02*
X640000D01*
D53*
X568750Y-328000D02*
G03*
X568750Y-328000I-1250J0D01*
G01*
X-563100Y265250D02*
G03*
X-563100Y265250I-1250J0D01*
G01*
X-365850Y-237000D02*
G03*
X-365850Y-237000I-1250J0D01*
G01*
X-543100Y334500D02*
G03*
X-543100Y334500I-1250J0D01*
G01*
X-197850Y336749D02*
G03*
X-197850Y336749I-1250J0D01*
G01*
X164650Y334250D02*
G03*
X164650Y334250I-1250J0D01*
G01*
X-385850Y-306250D02*
G03*
X-385850Y-306250I-1250J0D01*
G01*
X-217850Y267500D02*
G03*
X-217850Y267500I-1250J0D01*
G01*
X144650Y265000D02*
G03*
X144650Y265000I-1250J0D01*
G01*
X-354701Y-25250D02*
G03*
X-354701Y-25250I-1250J0D01*
G01*
X185300Y-25250D02*
G03*
X185300Y-25250I-1250J0D01*
G01*
X455300Y-25250D02*
G03*
X455300Y-25250I-1250J0D01*
G01*
X-639250Y-328750D02*
G03*
X-639250Y-328750I-1250J0D01*
G01*
X-252001Y331750D02*
G03*
X-252001Y331750I-1250J0D01*
G01*
X105501Y331000D02*
G03*
X105501Y331000I-1250J0D01*
G01*
X457540Y332250D02*
G03*
X457540Y332250I-1250J0D01*
G01*
X-396500Y-277500D02*
G03*
X-396500Y-277500I-1250J0D01*
G01*
X-137250Y280500D02*
G03*
X-137250Y280500I-1250J0D01*
G01*
X214790Y281750D02*
G03*
X214790Y281750I-1250J0D01*
G01*
X-209250Y-228450D02*
G03*
X-209250Y-228450I-1250J0D01*
G01*
X474750Y-275050D02*
G03*
X474750Y-275050I-1250J0D01*
G01*
X594150Y-344000D02*
G03*
X594150Y-344000I-1250J0D01*
G01*
X-192500Y-361050D02*
G03*
X-192500Y-361050I-1250J0D01*
G01*
X49000Y-207450D02*
G03*
X49000Y-207450I-1250J0D01*
G01*
X268000Y-317500D02*
G03*
X268000Y-317500I-1250J0D01*
G01*
X48250Y-431000D02*
G03*
X48250Y-431000I-1250J0D01*
G01*
X-139750Y-482550D02*
G03*
X-139750Y-482550I-1250J0D01*
G01*
X457000Y-489300D02*
G03*
X457000Y-489300I-1250J0D01*
G01*
X-494751Y280500D02*
G03*
X-494751Y280500I-1250J0D01*
G01*
X-84701Y-25250D02*
G03*
X-84701Y-25250I-1250J0D01*
G01*
X-260500Y-176250D02*
G03*
X-260500Y-176250I-1250J0D01*
G01*
X279500D02*
G03*
X279500Y-176250I-1250J0D01*
G01*
X9250Y-164500D02*
G03*
X9250Y-164500I-1250J0D01*
G01*
X-526750Y-163500D02*
G03*
X-526750Y-163500I-1250J0D01*
G01*
X-260500Y-133750D02*
G03*
X-260500Y-133750I-1250J0D01*
G01*
X279500D02*
G03*
X279500Y-133750I-1250J0D01*
G01*
X-526750Y-126500D02*
G03*
X-526750Y-126500I-1250J0D01*
G01*
X10250D02*
G03*
X10250Y-126500I-1250J0D01*
G01*
D54*
X139096Y-412016D02*
G03*
X135032Y-412016I-2032J0D01*
G01*
D02*
G03*
X130968Y-412016I-2032J0D01*
G01*
D02*
G03*
X126904Y-412016I-2032J0D01*
G01*
Y-372484D02*
G03*
X130968Y-372484I2032J0D01*
G01*
D02*
G03*
X135032Y-372484I2032J0D01*
G01*
D02*
G03*
X139096Y-372484I2032J0D01*
G01*
X272715Y255024D02*
X282113D01*
X272715Y251976D02*
Y255024D01*
Y251976D02*
X282113D01*
Y255024D01*
X284541Y240501D02*
Y266500D01*
X270541Y240501D02*
X284541D01*
X270541D02*
Y266500D01*
X284541D01*
X418540Y226000D02*
Y240000D01*
X390540D02*
X418540D01*
X390540Y226000D02*
Y240000D01*
Y226000D02*
X418540D01*
X403016Y228682D02*
Y237318D01*
X406064Y228682D02*
Y237318D01*
X-79325Y253774D02*
X-69928D01*
X-79325Y250726D02*
Y253774D01*
Y250726D02*
X-69928D01*
Y253774D01*
X-67499Y239251D02*
Y265250D01*
X-81500Y239251D02*
X-67499D01*
X-81500D02*
Y265250D01*
X-67499D01*
X66500Y224750D02*
Y238750D01*
X38500D02*
X66500D01*
X38500Y224750D02*
Y238750D01*
Y224750D02*
X66500D01*
X50976Y227432D02*
Y236068D01*
X54024Y227432D02*
Y236068D01*
X-436826Y254524D02*
X-427428D01*
X-436826Y251476D02*
Y254524D01*
Y251476D02*
X-427428D01*
Y254524D01*
X-425000Y240001D02*
Y266000D01*
X-439000Y240001D02*
X-425000D01*
X-439000D02*
Y266000D01*
X-425000D01*
X-291000Y225500D02*
Y239500D01*
X-319000D02*
X-291000D01*
X-319000Y225500D02*
Y239500D01*
Y225500D02*
X-291000D01*
X-306524Y228182D02*
Y236818D01*
X-303476Y228182D02*
Y236818D01*
X84524Y-340572D02*
Y-331174D01*
X81476D02*
X84524D01*
X81476Y-340572D02*
Y-331174D01*
Y-340572D02*
X84524D01*
X70000Y-343000D02*
X96000D01*
X70000D02*
Y-329000D01*
X96000D01*
Y-343000D02*
Y-329000D01*
X-607750Y-236500D02*
Y-222500D01*
Y-236500D02*
X-579750D01*
Y-222500D01*
X-607750D02*
X-579750D01*
X-592226Y-233818D02*
Y-225182D01*
X-595274Y-233818D02*
Y-225182D01*
X-466572Y-252524D02*
X-457174D01*
Y-249476D01*
X-466572D02*
X-457174D01*
X-466572Y-252524D02*
Y-249476D01*
X-469000Y-264000D02*
Y-238000D01*
X-455000D01*
Y-264000D02*
Y-238000D01*
X-469000Y-264000D02*
X-455000D01*
X-315750Y68249D02*
X-301749D01*
X-315750Y40249D02*
Y68249D01*
Y40249D02*
X-301749D01*
Y68249D01*
X-313067Y52725D02*
X-304431D01*
X-313067Y55773D02*
X-304431D01*
X-45750Y68249D02*
X-31750D01*
X-45750Y40249D02*
Y68249D01*
Y40249D02*
X-31750D01*
Y68249D01*
X-43067Y52725D02*
X-34432D01*
X-43067Y55773D02*
X-34432D01*
X224250Y68249D02*
X238250D01*
X224250Y40249D02*
Y68249D01*
Y40249D02*
X238250D01*
Y68249D01*
X226932Y52725D02*
X235568D01*
X226932Y55773D02*
X235568D01*
X494250Y68249D02*
X508251D01*
X494250Y40249D02*
Y68249D01*
Y40249D02*
X508251D01*
Y68249D01*
X496933Y52725D02*
X505569D01*
X496933Y55773D02*
X505569D01*
X-453250Y118250D02*
X-439250D01*
X-453250Y90251D02*
Y118250D01*
Y90251D02*
X-439250D01*
Y118250D01*
X-450568Y102726D02*
X-441932D01*
X-450568Y105774D02*
X-441932D01*
X-183250Y118250D02*
X-169250D01*
X-183250Y90251D02*
Y118250D01*
Y90251D02*
X-169250D01*
Y118250D01*
X-180568Y102726D02*
X-171932D01*
X-180568Y105774D02*
X-171932D01*
X86750Y118250D02*
X100750D01*
X86750Y90251D02*
Y118250D01*
Y90251D02*
X100750D01*
Y118250D01*
X89432Y102726D02*
X98068D01*
X89432Y105774D02*
X98068D01*
X356750Y118250D02*
X370750D01*
X356750Y90251D02*
Y118250D01*
Y90251D02*
X370750D01*
Y118250D01*
X359432Y102726D02*
X368068D01*
X359432Y105774D02*
X368068D01*
X-498250Y-37250D02*
X-484250D01*
Y-9250D01*
X-498250D02*
X-484250D01*
X-498250Y-37250D02*
Y-9250D01*
X-495568Y-21726D02*
X-486932D01*
X-495568Y-24774D02*
X-486932D01*
X-228250Y-37250D02*
X-214250D01*
Y-9250D01*
X-228250D02*
X-214250D01*
X-228250Y-37250D02*
Y-9250D01*
X-225569Y-21726D02*
X-216933D01*
X-225569Y-24774D02*
X-216933D01*
X41750Y-37250D02*
X55750D01*
Y-9250D01*
X41750D02*
X55750D01*
X41750Y-37250D02*
Y-9250D01*
X44432Y-21726D02*
X53068D01*
X44432Y-24774D02*
X53068D01*
X311750Y-37250D02*
X325750D01*
Y-9250D01*
X311750D02*
X325750D01*
X311750Y-37250D02*
Y-9250D01*
X314431Y-21726D02*
X323068D01*
X314431Y-24774D02*
X323068D01*
X-340750Y33750D02*
X-326749D01*
Y61750D01*
X-340750D02*
X-326749D01*
X-340750Y33750D02*
Y61750D01*
X-338067Y49274D02*
X-329431D01*
X-338067Y46226D02*
X-329431D01*
X-70750Y33750D02*
X-56749D01*
Y61750D01*
X-70750D02*
X-56749D01*
X-70750Y33750D02*
Y61750D01*
X-68067Y49274D02*
X-59431D01*
X-68067Y46226D02*
X-59431D01*
X199251Y33750D02*
X213251D01*
Y61750D01*
X199251D02*
X213251D01*
X199251Y33750D02*
Y61750D01*
X201933Y49274D02*
X210569D01*
X201933Y46226D02*
X210569D01*
X469250Y33750D02*
X483251D01*
Y61750D01*
X469250D02*
X483251D01*
X469250Y33750D02*
Y61750D01*
X471932Y49274D02*
X480568D01*
X471932Y46226D02*
X480568D01*
X-358750Y-59750D02*
X-344750D01*
Y-31750D01*
X-358750D02*
X-344750D01*
X-358750Y-59750D02*
Y-31750D01*
X-356068Y-44226D02*
X-347432D01*
X-356068Y-47274D02*
X-347432D01*
X-88750Y-59750D02*
X-74750D01*
Y-31750D01*
X-88750D02*
X-74750D01*
X-88750Y-59750D02*
Y-31750D01*
X-86068Y-44226D02*
X-77432D01*
X-86068Y-47274D02*
X-77432D01*
X181250Y-59750D02*
X195250D01*
Y-31749D01*
X181250D02*
X195250D01*
X181250Y-59750D02*
Y-31749D01*
X183932Y-44225D02*
X192568D01*
X183932Y-47273D02*
X192568D01*
X451250Y-59750D02*
X465250D01*
Y-31750D01*
X451250D02*
X465250D01*
X451250Y-59750D02*
Y-31750D01*
X453932Y-44226D02*
X462568D01*
X453932Y-47274D02*
X462568D01*
X-340749Y-39750D02*
X-326749D01*
Y-11750D01*
X-340749D02*
X-326749D01*
X-340749Y-39750D02*
Y-11750D01*
X-338068Y-24226D02*
X-329432D01*
X-338068Y-27274D02*
X-329432D01*
X-70749Y-39750D02*
X-56749D01*
Y-11750D01*
X-70749D02*
X-56749D01*
X-70749Y-39750D02*
Y-11750D01*
X-68068Y-24226D02*
X-59432D01*
X-68068Y-27274D02*
X-59432D01*
X199251Y-39750D02*
X213251D01*
Y-11750D01*
X199251D02*
X213251D01*
X199251Y-39750D02*
Y-11750D01*
X201933Y-24226D02*
X210569D01*
X201933Y-27274D02*
X210569D01*
X469251Y-39750D02*
X483251D01*
Y-11750D01*
X469251D02*
X483251D01*
X469251Y-39750D02*
Y-11750D01*
X471933Y-24226D02*
X480569D01*
X471933Y-27274D02*
X480569D01*
X-364750Y99750D02*
Y113751D01*
X-392750D02*
X-364750D01*
X-392750Y99750D02*
Y113751D01*
Y99750D02*
X-364750D01*
X-380274Y102432D02*
Y111068D01*
X-377226Y102432D02*
Y111068D01*
X-94750Y99750D02*
Y113750D01*
X-122750D02*
X-94750D01*
X-122750Y99750D02*
Y113750D01*
Y99750D02*
X-94750D01*
X-110274Y102432D02*
Y111068D01*
X-107226Y102432D02*
Y111068D01*
X175251Y99750D02*
Y113750D01*
X147250D02*
X175251D01*
X147250Y99750D02*
Y113750D01*
Y99750D02*
X175251D01*
X159727Y102432D02*
Y111068D01*
X162775Y102432D02*
Y111068D01*
X445250Y99750D02*
Y113750D01*
X417250D02*
X445250D01*
X417250Y99750D02*
Y113750D01*
Y99750D02*
X445250D01*
X429726Y102432D02*
Y111068D01*
X432774Y102432D02*
Y111068D01*
X-479751Y110250D02*
X-465750D01*
X-479751Y82250D02*
Y110250D01*
Y82250D02*
X-465750D01*
Y110250D01*
X-477068Y94726D02*
X-468432D01*
X-477068Y97774D02*
X-468432D01*
X-209750Y110250D02*
X-195751D01*
X-209750Y82250D02*
Y110250D01*
Y82250D02*
X-195751D01*
Y110250D01*
X-207068Y94726D02*
X-198432D01*
X-207068Y97774D02*
X-198432D01*
X60250Y110250D02*
X74250D01*
X60250Y82250D02*
Y110250D01*
Y82250D02*
X74250D01*
Y110250D01*
X62932Y94726D02*
X71568D01*
X62932Y97774D02*
X71568D01*
X330250Y110250D02*
X344249D01*
X330250Y82250D02*
Y110250D01*
Y82250D02*
X344249D01*
Y110250D01*
X332932Y94726D02*
X341568D01*
X332932Y97774D02*
X341568D01*
X-480750Y-53250D02*
X-466750D01*
Y-25250D01*
X-480750D02*
X-466750D01*
X-480750Y-53250D02*
Y-25250D01*
X-478068Y-37727D02*
X-469432D01*
X-478068Y-40774D02*
X-469432D01*
X-210750Y-53250D02*
X-196750D01*
Y-25250D01*
X-210750D02*
X-196750D01*
X-210750Y-53250D02*
Y-25250D01*
X-208068Y-37727D02*
X-199432D01*
X-208068Y-40774D02*
X-199432D01*
X59250Y-53250D02*
X73250D01*
Y-25250D01*
X59250D02*
X73250D01*
X59250Y-53250D02*
Y-25250D01*
X61932Y-37727D02*
X70568D01*
X61932Y-40774D02*
X70568D01*
X329250Y-53250D02*
X343250D01*
Y-25250D01*
X329250D02*
X343250D01*
X329250Y-53250D02*
Y-25250D01*
X331932Y-37727D02*
X340568D01*
X331932Y-40774D02*
X340568D01*
X-640250Y-206500D02*
Y-192500D01*
Y-206500D02*
X-612250D01*
Y-192500D01*
X-640250D02*
X-612250D01*
X-624726Y-203818D02*
Y-195182D01*
X-627774Y-203818D02*
Y-195182D01*
X-644000Y-359500D02*
Y-345500D01*
Y-359500D02*
X-616000D01*
Y-345500D01*
X-644000D02*
X-616000D01*
X-628476Y-356818D02*
Y-348182D01*
X-631524Y-356818D02*
Y-348182D01*
X-251000Y345500D02*
Y359500D01*
X-279000D02*
X-251000D01*
X-279000Y345500D02*
Y359500D01*
Y345500D02*
X-251000D01*
X-266524Y348182D02*
Y356818D01*
X-263476Y348182D02*
Y356818D01*
X106500Y344750D02*
Y358750D01*
X78500D02*
X106500D01*
X78500Y344750D02*
Y358750D01*
Y344750D02*
X106500D01*
X90976Y347432D02*
Y356068D01*
X94024Y347432D02*
Y356068D01*
X458541Y346000D02*
Y360000D01*
X430541D02*
X458541D01*
X430541Y346000D02*
Y360000D01*
Y346000D02*
X458541D01*
X443017Y348682D02*
Y357318D01*
X446065Y348682D02*
Y357318D01*
X-143500Y-287500D02*
Y-273500D01*
Y-287500D02*
X-115500D01*
Y-273500D01*
X-143500D02*
X-115500D01*
X-127976Y-284818D02*
Y-276182D01*
X-131024Y-284818D02*
Y-276182D01*
X406500Y-230000D02*
Y-216000D01*
X378500D02*
X406500D01*
X378500Y-230000D02*
Y-216000D01*
Y-230000D02*
X406500D01*
X390976Y-227318D02*
Y-218682D01*
X394024Y-227318D02*
Y-218682D01*
X637950Y-277000D02*
X651950D01*
Y-249000D01*
X637950D02*
X651950D01*
X637950Y-277000D02*
Y-249000D01*
X640632Y-261476D02*
X649268D01*
X640632Y-264524D02*
X649268D01*
X-260750Y-316000D02*
Y-301999D01*
X-288750D02*
X-260750D01*
X-288750Y-316000D02*
Y-301999D01*
Y-316000D02*
X-260750D01*
X-276274Y-313318D02*
Y-304682D01*
X-273226Y-313318D02*
Y-304682D01*
X114750Y-266500D02*
Y-252500D01*
Y-266500D02*
X142750D01*
Y-252500D01*
X114750D02*
X142750D01*
X130274Y-263818D02*
Y-255182D01*
X127226Y-263818D02*
Y-255182D01*
X56000Y-475500D02*
Y-461500D01*
X28000D02*
X56000D01*
X28000Y-475500D02*
Y-461500D01*
Y-475500D02*
X56000D01*
X40476Y-472818D02*
Y-464182D01*
X43524Y-472818D02*
Y-464182D01*
X82750Y-475500D02*
X96750D01*
Y-447500D01*
X82750D02*
X96750D01*
X82750Y-475500D02*
Y-447500D01*
X85432Y-459976D02*
X94068D01*
X85432Y-463024D02*
X94068D01*
X173500Y-448750D02*
X187500D01*
X173500Y-476750D02*
Y-448750D01*
Y-476750D02*
X187500D01*
Y-448750D01*
X176182Y-464274D02*
X184818D01*
X176182Y-461226D02*
X184818D01*
X104500Y-395000D02*
X118500D01*
X104500Y-423000D02*
Y-395000D01*
Y-423000D02*
X118500D01*
Y-395000D01*
X107182Y-410524D02*
X115818D01*
X107182Y-407476D02*
X115818D01*
X123500Y-395000D02*
X142500D01*
X123500Y-427000D02*
Y-395000D01*
X142500Y-427000D02*
Y-395000D01*
X123500Y-427000D02*
X142500D01*
X123500Y-389500D02*
X142500D01*
Y-357500D01*
X123500Y-389500D02*
Y-357500D01*
X142500D01*
X-342576Y-335322D02*
Y-325924D01*
X-345624D02*
X-342576D01*
X-345624Y-335322D02*
Y-325924D01*
Y-335322D02*
X-342576D01*
X-357100Y-337749D02*
X-331100D01*
X-357100D02*
Y-323750D01*
X-331100D01*
Y-337749D02*
Y-323750D01*
X-519826Y236178D02*
Y245576D01*
X-522874D02*
X-519826D01*
X-522874Y236178D02*
Y245576D01*
Y236178D02*
X-519826D01*
X-534350Y233750D02*
X-508350D01*
X-534350D02*
Y247750D01*
X-508350D01*
Y233750D02*
Y247750D01*
X-174576Y238429D02*
Y247827D01*
X-177624D02*
X-174576D01*
X-177624Y238429D02*
Y247827D01*
Y238429D02*
X-174576D01*
X-189100Y236000D02*
X-163100D01*
X-189100D02*
Y250000D01*
X-163100D01*
Y236000D02*
Y250000D01*
X187924Y235929D02*
Y245327D01*
X184876D02*
X187924D01*
X184876Y235929D02*
Y245327D01*
Y235929D02*
X187924D01*
X173400Y233500D02*
X199400D01*
X173400D02*
Y247500D01*
X199400D01*
Y233500D02*
Y247500D01*
X-375624Y-335576D02*
Y-326178D01*
Y-335576D02*
X-372576D01*
Y-326178D01*
X-375624D02*
X-372576D01*
X-387100Y-323750D02*
X-361100D01*
Y-337750D02*
Y-323750D01*
X-387100Y-337750D02*
X-361100D01*
X-387100D02*
Y-323750D01*
X-552874Y235924D02*
Y245322D01*
Y235924D02*
X-549826D01*
Y245322D01*
X-552874D02*
X-549826D01*
X-564350Y247750D02*
X-538350D01*
Y233750D02*
Y247750D01*
X-564350Y233750D02*
X-538350D01*
X-564350D02*
Y247750D01*
X-207624Y238174D02*
Y247572D01*
Y238174D02*
X-204576D01*
Y247572D01*
X-207624D02*
X-204576D01*
X-219100Y250000D02*
X-193100D01*
Y236000D02*
Y250000D01*
X-219100Y236000D02*
X-193100D01*
X-219100D02*
Y250000D01*
X154875Y235674D02*
Y245072D01*
Y235674D02*
X157923D01*
Y245072D01*
X154875D02*
X157923D01*
X143400Y247500D02*
X169400D01*
Y233500D02*
Y247500D01*
X143400Y233500D02*
X169400D01*
X143400D02*
Y247500D01*
X-452773Y124424D02*
Y133822D01*
Y124424D02*
X-449725D01*
Y133822D01*
X-452773D02*
X-449725D01*
X-464249Y136250D02*
X-438249D01*
Y122250D02*
Y136250D01*
X-464249Y122250D02*
X-438249D01*
X-464249D02*
Y136250D01*
X-192274Y130674D02*
Y140072D01*
Y130674D02*
X-189226D01*
Y140072D01*
X-192274D02*
X-189226D01*
X-203749Y142500D02*
X-177749D01*
Y128500D02*
Y142500D01*
X-203749Y128500D02*
X-177749D01*
X-203749D02*
Y142500D01*
X77726Y130674D02*
Y140072D01*
Y130674D02*
X80774D01*
Y140072D01*
X77726D02*
X80774D01*
X66251Y142500D02*
X92251D01*
Y128500D02*
Y142500D01*
X66251Y128500D02*
X92251D01*
X66251D02*
Y142500D01*
X347727Y130674D02*
Y140072D01*
Y130674D02*
X350774D01*
Y140072D01*
X347727D02*
X350774D01*
X336251Y142500D02*
X362251D01*
Y128500D02*
Y142500D01*
X336251Y128500D02*
X362251D01*
X336251D02*
Y142500D01*
X-355274Y-90575D02*
Y-81177D01*
Y-90575D02*
X-352225D01*
Y-81177D01*
X-355274D02*
X-352225D01*
X-366749Y-78749D02*
X-340749D01*
Y-92750D02*
Y-78749D01*
X-366749Y-92750D02*
X-340749D01*
X-366749D02*
Y-78749D01*
X-85274Y-90575D02*
Y-81177D01*
Y-90575D02*
X-82226D01*
Y-81177D01*
X-85274D02*
X-82226D01*
X-96749Y-78749D02*
X-70749D01*
Y-92750D02*
Y-78749D01*
X-96749Y-92750D02*
X-70749D01*
X-96749D02*
Y-78749D01*
X184727Y-90576D02*
Y-81178D01*
Y-90576D02*
X187775D01*
Y-81178D01*
X184727D02*
X187775D01*
X173251Y-78749D02*
X199251D01*
Y-92750D02*
Y-78749D01*
X173251Y-92750D02*
X199251D01*
X173251D02*
Y-78749D01*
X454727Y-90576D02*
Y-81178D01*
Y-90576D02*
X457775D01*
Y-81178D01*
X454727D02*
X457775D01*
X443251Y-78749D02*
X469251D01*
Y-92750D02*
Y-78749D01*
X443251Y-92750D02*
X469251D01*
X443251D02*
Y-78749D01*
X-352225Y-120322D02*
Y-110924D01*
X-355273D02*
X-352225D01*
X-355273Y-120322D02*
Y-110924D01*
Y-120322D02*
X-352225D01*
X-366749Y-122750D02*
X-340749D01*
X-366749D02*
Y-108750D01*
X-340749D01*
Y-122750D02*
Y-108750D01*
X-82225Y-120322D02*
Y-110924D01*
X-85273D02*
X-82225D01*
X-85273Y-120322D02*
Y-110924D01*
Y-120322D02*
X-82225D01*
X-96749Y-122750D02*
X-70749D01*
X-96749D02*
Y-108750D01*
X-70749D01*
Y-122750D02*
Y-108750D01*
X187775Y-120321D02*
Y-110923D01*
X184727D02*
X187775D01*
X184727Y-120321D02*
Y-110923D01*
Y-120321D02*
X187775D01*
X173251Y-122750D02*
X199251D01*
X173251D02*
Y-108750D01*
X199251D01*
Y-122750D02*
Y-108750D01*
X457775Y-120322D02*
Y-110924D01*
X454727D02*
X457775D01*
X454727Y-120322D02*
Y-110924D01*
Y-120322D02*
X457775D01*
X443251Y-122750D02*
X469251D01*
X443251D02*
Y-108750D01*
X469251D01*
Y-122750D02*
Y-108750D01*
X-558572Y-236524D02*
X-549174D01*
Y-233476D01*
X-558572D02*
X-549174D01*
X-558572Y-236524D02*
Y-233476D01*
X-561000Y-248000D02*
Y-222000D01*
X-547000D01*
Y-248000D02*
Y-222000D01*
X-561000Y-248000D02*
X-547000D01*
X-383073Y244476D02*
X-373675D01*
Y247524D01*
X-383073D02*
X-373675D01*
X-383073Y244476D02*
Y247524D01*
X-385501Y233000D02*
Y259000D01*
X-371501D01*
Y233000D02*
Y259000D01*
X-385501Y233000D02*
X-371501D01*
X-25572Y243726D02*
X-16174D01*
Y246774D01*
X-25572D02*
X-16174D01*
X-25572Y243726D02*
Y246774D01*
X-28000Y232250D02*
Y258250D01*
X-14000D01*
Y232250D02*
Y258250D01*
X-28000Y232250D02*
X-14000D01*
X326468Y244976D02*
X335866D01*
Y248024D01*
X326468D02*
X335866D01*
X326468Y244976D02*
Y248024D01*
X324040Y233500D02*
Y259500D01*
X338040D01*
Y233500D02*
Y259500D01*
X324040Y233500D02*
X338040D01*
X-514725Y-312572D02*
Y-303174D01*
X-517774D02*
X-514725D01*
X-517774Y-312572D02*
Y-303174D01*
Y-312572D02*
X-514725D01*
X-529250Y-315000D02*
X-503250D01*
X-529250D02*
Y-301000D01*
X-503250D01*
Y-315000D02*
Y-301000D01*
X-379025Y306174D02*
Y315572D01*
Y306174D02*
X-375977D01*
Y315572D01*
X-379025D02*
X-375977D01*
X-390500Y318000D02*
X-364501D01*
Y304000D02*
Y318000D01*
X-390500Y304000D02*
X-364501D01*
X-390500D02*
Y318000D01*
X-21524Y305424D02*
Y314822D01*
Y305424D02*
X-18476D01*
Y314822D01*
X-21524D02*
X-18476D01*
X-33000Y317250D02*
X-7000D01*
Y303250D02*
Y317250D01*
X-33000Y303250D02*
X-7000D01*
X-33000D02*
Y317250D01*
X330517Y306674D02*
Y316072D01*
Y306674D02*
X333564D01*
Y316072D01*
X330517D02*
X333564D01*
X319040Y318500D02*
X345041D01*
Y304500D02*
Y318500D01*
X319040Y304500D02*
X345041D01*
X319040D02*
Y318500D01*
X-131024Y-265326D02*
Y-255928D01*
Y-265326D02*
X-127976D01*
Y-255928D01*
X-131024D02*
X-127976D01*
X-142500Y-253500D02*
X-116500D01*
Y-267500D02*
Y-253500D01*
X-142500Y-267500D02*
X-116500D01*
X-142500D02*
Y-253500D01*
X394024Y-247572D02*
Y-238174D01*
X390976D02*
X394024D01*
X390976Y-247572D02*
Y-238174D01*
Y-247572D02*
X394024D01*
X379500Y-250000D02*
X405500D01*
X379500D02*
Y-236000D01*
X405500D01*
Y-250000D02*
Y-236000D01*
X620379Y-264524D02*
X629777D01*
Y-261476D01*
X620379D02*
X629777D01*
X620379Y-264524D02*
Y-261476D01*
X617950Y-276000D02*
Y-250000D01*
X631950D01*
Y-276000D02*
Y-250000D01*
X617950Y-276000D02*
X631950D01*
X-273226Y-333572D02*
Y-324174D01*
X-276274D02*
X-273226D01*
X-276274Y-333572D02*
Y-324174D01*
Y-333572D02*
X-273226D01*
X-287750Y-336000D02*
X-261750D01*
X-287750D02*
Y-322000D01*
X-261750D01*
Y-336000D02*
Y-322000D01*
X127226Y-244326D02*
Y-234928D01*
Y-244326D02*
X130274D01*
Y-234928D01*
X127226D02*
X130274D01*
X115749Y-232500D02*
X141750D01*
Y-246500D02*
Y-232500D01*
X115749Y-246500D02*
X141750D01*
X115749D02*
Y-232500D01*
X-131024Y-245326D02*
Y-235928D01*
Y-245326D02*
X-127976D01*
Y-235928D01*
X-131024D02*
X-127976D01*
X-142500Y-233500D02*
X-116500D01*
Y-247500D02*
Y-233500D01*
X-142500Y-247500D02*
X-116500D01*
X-142500D02*
Y-233500D01*
X394024Y-267572D02*
Y-258174D01*
X390976D02*
X394024D01*
X390976Y-267572D02*
Y-258174D01*
Y-267572D02*
X394024D01*
X379500Y-270000D02*
X405500D01*
X379500D02*
Y-256000D01*
X405500D01*
Y-270000D02*
Y-256000D01*
X600378Y-264524D02*
X609776D01*
Y-261476D01*
X600378D02*
X609776D01*
X600378Y-264524D02*
Y-261476D01*
X597951Y-276000D02*
Y-250000D01*
X611950D01*
Y-276000D02*
Y-250000D01*
X597951Y-276000D02*
X611950D01*
X-273227Y-353572D02*
Y-344174D01*
X-276275D02*
X-273227D01*
X-276275Y-353572D02*
Y-344174D01*
Y-353572D02*
X-273227D01*
X-287750Y-356000D02*
X-261750D01*
X-287750D02*
Y-342000D01*
X-261750D01*
Y-356000D02*
Y-342000D01*
X127226Y-224326D02*
Y-214928D01*
Y-224326D02*
X130274D01*
Y-214928D01*
X127226D02*
X130274D01*
X115750Y-212500D02*
X141750D01*
Y-226500D02*
Y-212500D01*
X115750Y-226500D02*
X141750D01*
X115750D02*
Y-212500D01*
X-268524Y-254326D02*
Y-244928D01*
Y-254326D02*
X-265476D01*
Y-244928D01*
X-268524D02*
X-265476D01*
X-280000Y-242500D02*
X-254000D01*
Y-256500D02*
Y-242500D01*
X-280000Y-256500D02*
X-254000D01*
X-280000D02*
Y-242500D01*
X531524Y-258572D02*
Y-249174D01*
X528476D02*
X531524D01*
X528476Y-258572D02*
Y-249174D01*
Y-258572D02*
X531524D01*
X517000Y-261000D02*
X543000D01*
X517000D02*
Y-247000D01*
X543000D01*
Y-261000D02*
Y-247000D01*
X609379Y-402024D02*
X618777D01*
Y-398976D01*
X609379D02*
X618777D01*
X609379Y-402024D02*
Y-398976D01*
X606950Y-413500D02*
Y-387500D01*
X620950D01*
Y-413500D02*
Y-387500D01*
X606950Y-413500D02*
X620950D01*
X-135726Y-344572D02*
Y-335174D01*
X-138774D02*
X-135726D01*
X-138774Y-344572D02*
Y-335174D01*
Y-344572D02*
X-135726D01*
X-150250Y-347000D02*
X-124250D01*
X-150250D02*
Y-333000D01*
X-124250D01*
Y-347000D02*
Y-333000D01*
X-10274Y-233325D02*
Y-223927D01*
Y-233325D02*
X-7226D01*
Y-223927D01*
X-10274D02*
X-7226D01*
X-21751Y-221500D02*
X4249D01*
Y-235500D02*
Y-221500D01*
X-21751Y-235500D02*
X4249D01*
X-21751D02*
Y-221500D01*
X-268524Y-271326D02*
Y-261928D01*
Y-271326D02*
X-265476D01*
Y-261928D01*
X-268524D02*
X-265476D01*
X-280000Y-259500D02*
X-254000D01*
Y-273500D02*
Y-259500D01*
X-280000Y-273500D02*
X-254000D01*
X-280000D02*
Y-259500D01*
X531525Y-241572D02*
Y-232174D01*
X528477D02*
X531525D01*
X528477Y-241572D02*
Y-232174D01*
Y-241572D02*
X531525D01*
X517000Y-244000D02*
X543000D01*
X517000D02*
Y-230000D01*
X543000D01*
Y-244000D02*
Y-230000D01*
X626378Y-402024D02*
X635776D01*
Y-398976D01*
X626378D02*
X635776D01*
X626378Y-402024D02*
Y-398976D01*
X623950Y-413500D02*
Y-387500D01*
X637950D01*
Y-413500D02*
Y-387500D01*
X623950Y-413500D02*
X637950D01*
X-135725Y-327572D02*
Y-318174D01*
X-138773D02*
X-135725D01*
X-138773Y-327572D02*
Y-318174D01*
Y-327572D02*
X-135725D01*
X-150250Y-330000D02*
X-124250D01*
X-150250D02*
Y-316000D01*
X-124250D01*
Y-330000D02*
Y-316000D01*
X-10275Y-250326D02*
Y-240928D01*
Y-250326D02*
X-7227D01*
Y-240928D01*
X-10275D02*
X-7227D01*
X-21751Y-238499D02*
X4249D01*
Y-252499D02*
Y-238499D01*
X-21751Y-252499D02*
X4249D01*
X-21751D02*
Y-238499D01*
X-122326Y-423476D02*
X-112928D01*
X-122326Y-426524D02*
Y-423476D01*
Y-426524D02*
X-112928D01*
Y-423476D01*
X-110500Y-438000D02*
Y-412000D01*
X-124500Y-438000D02*
X-110500D01*
X-124500D02*
Y-412000D01*
X-110500D01*
X-122326Y-453476D02*
X-112928D01*
X-122326Y-456524D02*
Y-453476D01*
Y-456524D02*
X-112928D01*
Y-453476D01*
X-110500Y-468000D02*
Y-442000D01*
X-124500Y-468000D02*
X-110500D01*
X-124500D02*
Y-442000D01*
X-110500D01*
X-110976Y-484572D02*
Y-475174D01*
X-114024D02*
X-110976D01*
X-114024Y-484572D02*
Y-475174D01*
Y-484572D02*
X-110976D01*
X-125500Y-487000D02*
X-99500D01*
X-125500D02*
Y-473000D01*
X-99500D01*
Y-487000D02*
Y-473000D01*
X-150976Y-419572D02*
Y-410174D01*
X-154024D02*
X-150976D01*
X-154024Y-419572D02*
Y-410174D01*
Y-419572D02*
X-150976D01*
X-165500Y-422000D02*
X-139500D01*
X-165500D02*
Y-408000D01*
X-139500D01*
Y-422000D02*
Y-408000D01*
X-463250Y-157250D02*
Y-143250D01*
X-489250D02*
X-463250D01*
X-489250Y-157250D02*
Y-143250D01*
Y-157250D02*
X-463250D01*
X-477774Y-154822D02*
X-474726D01*
X-477774D02*
Y-145424D01*
X-474726D01*
Y-154822D02*
Y-145424D01*
X-193250Y-180250D02*
Y-166250D01*
X-219250D02*
X-193250D01*
X-219250Y-180250D02*
Y-166250D01*
Y-180250D02*
X-193250D01*
X-207774Y-177822D02*
X-204726D01*
X-207774D02*
Y-168424D01*
X-204726D01*
Y-177822D02*
Y-168424D01*
X76751Y-180250D02*
Y-166250D01*
X50750D02*
X76751D01*
X50750Y-180250D02*
Y-166250D01*
Y-180250D02*
X76751D01*
X62226Y-177822D02*
X65274D01*
X62226D02*
Y-168424D01*
X65274D01*
Y-177822D02*
Y-168424D01*
X346750Y-180250D02*
Y-166250D01*
X320750D02*
X346750D01*
X320750Y-180250D02*
Y-166250D01*
Y-180250D02*
X346750D01*
X332226Y-177822D02*
X335274D01*
X332226D02*
Y-168424D01*
X335274D01*
Y-177822D02*
Y-168424D01*
X-463250Y-127250D02*
Y-113250D01*
X-489250D02*
X-463250D01*
X-489250Y-127250D02*
Y-113250D01*
Y-127250D02*
X-463250D01*
X-477774Y-124822D02*
X-474726D01*
X-477774D02*
Y-115424D01*
X-474726D01*
Y-124822D02*
Y-115424D01*
X-193250Y-150250D02*
Y-136250D01*
X-219250D02*
X-193250D01*
X-219250Y-150250D02*
Y-136250D01*
Y-150250D02*
X-193250D01*
X-207774Y-147822D02*
X-204726D01*
X-207774D02*
Y-138424D01*
X-204726D01*
Y-147822D02*
Y-138424D01*
X76750Y-150250D02*
Y-136250D01*
X50750D02*
X76750D01*
X50750Y-150250D02*
Y-136250D01*
Y-150250D02*
X76750D01*
X62226Y-147822D02*
X65274D01*
X62226D02*
Y-138424D01*
X65274D01*
Y-147822D02*
Y-138424D01*
X346750Y-150250D02*
Y-136250D01*
X320750D02*
X346750D01*
X320750Y-150250D02*
Y-136250D01*
Y-150250D02*
X346750D01*
X332226Y-147822D02*
X335274D01*
X332226D02*
Y-138424D01*
X335274D01*
Y-147822D02*
Y-138424D01*
X609500Y-439500D02*
Y-425500D01*
Y-439500D02*
X635500D01*
Y-425500D01*
X609500D02*
X635500D01*
X620976Y-427928D02*
X624024D01*
Y-437326D02*
Y-427928D01*
X620976Y-437326D02*
X624024D01*
X620976D02*
Y-427928D01*
X283750Y-313000D02*
X297750D01*
Y-285000D01*
X283750D02*
X297750D01*
X283750Y-313000D02*
Y-285000D01*
X286432Y-297476D02*
X295068D01*
X286432Y-300524D02*
X295068D01*
X68500Y-395000D02*
X82500D01*
X68500Y-423000D02*
Y-395000D01*
Y-423000D02*
X82500D01*
Y-395000D01*
X71182Y-410524D02*
X79818D01*
X71182Y-407476D02*
X79818D01*
X86500Y-395000D02*
X100500D01*
X86500Y-423000D02*
Y-395000D01*
Y-423000D02*
X100500D01*
Y-395000D01*
X89182Y-410524D02*
X97818D01*
X89182Y-407476D02*
X97818D01*
X-36000Y-475500D02*
Y-461500D01*
Y-475500D02*
X-8000D01*
Y-461500D01*
X-36000D02*
X-8000D01*
X-20476Y-472818D02*
Y-464182D01*
X-23524Y-472818D02*
Y-464182D01*
X-23000Y-315500D02*
Y-301500D01*
X-51000D02*
X-23000D01*
X-51000Y-315500D02*
Y-301500D01*
Y-315500D02*
X-23000D01*
X-38524Y-312818D02*
Y-304182D01*
X-35476Y-312818D02*
Y-304182D01*
X-11000Y-315500D02*
Y-301500D01*
Y-315500D02*
X17000D01*
Y-301500D01*
X-11000D02*
X17000D01*
X4524Y-312818D02*
Y-304182D01*
X1476Y-312818D02*
Y-304182D01*
X-99000Y-417500D02*
X-85000D01*
Y-389500D01*
X-99000D02*
X-85000D01*
X-99000Y-417500D02*
Y-389500D01*
X-96318Y-401976D02*
X-87682D01*
X-96318Y-405024D02*
X-87682D01*
X-99000Y-349500D02*
X-85000D01*
X-99000Y-377500D02*
Y-349500D01*
Y-377500D02*
X-85000D01*
Y-349500D01*
X-96318Y-365024D02*
X-87682D01*
X-96318Y-361976D02*
X-87682D01*
X-71000Y-475500D02*
Y-461500D01*
Y-475500D02*
X-43000D01*
Y-461500D01*
X-71000D02*
X-43000D01*
X-55476Y-472818D02*
Y-464182D01*
X-58524Y-472818D02*
Y-464182D01*
X68500Y-363000D02*
X82500D01*
X68500Y-391000D02*
Y-363000D01*
Y-391000D02*
X82500D01*
Y-363000D01*
X71182Y-378524D02*
X79818D01*
X71182Y-375476D02*
X79818D01*
X86500Y-363000D02*
X100500D01*
X86500Y-391000D02*
Y-363000D01*
Y-391000D02*
X100500D01*
Y-363000D01*
X89182Y-378524D02*
X97818D01*
X89182Y-375476D02*
X97818D01*
X104500Y-363000D02*
X118500D01*
X104500Y-391000D02*
Y-363000D01*
Y-391000D02*
X118500D01*
Y-363000D01*
X107182Y-378524D02*
X115818D01*
X107182Y-375476D02*
X115818D01*
X283750Y-280500D02*
X297750D01*
Y-252500D01*
X283750D02*
X297750D01*
X283750Y-280500D02*
Y-252500D01*
X286432Y-264976D02*
X295068D01*
X286432Y-268024D02*
X295068D01*
X65928Y-462524D02*
X75326D01*
Y-459476D01*
X65928D02*
X75326D01*
X65928Y-462524D02*
Y-459476D01*
X63500Y-474000D02*
Y-448000D01*
X77500D01*
Y-474000D02*
Y-448000D01*
X63500Y-474000D02*
X77500D01*
X97000Y-360500D02*
Y-346500D01*
X69000D02*
X97000D01*
X69000Y-360500D02*
Y-346500D01*
Y-360500D02*
X97000D01*
X81476Y-357818D02*
Y-349182D01*
X84524Y-357818D02*
Y-349182D01*
X474000Y-456000D02*
X488000D01*
X474000Y-484000D02*
Y-456000D01*
Y-484000D02*
X488000D01*
Y-456000D01*
X476682Y-471524D02*
X485318D01*
X476682Y-468476D02*
X485318D01*
X529500Y-308500D02*
Y-294500D01*
X501500D02*
X529500D01*
X501500Y-308500D02*
Y-294500D01*
Y-308500D02*
X529500D01*
X513976Y-305818D02*
Y-297182D01*
X517024Y-305818D02*
Y-297182D01*
X564000Y-309500D02*
Y-295500D01*
X536000D02*
X564000D01*
X536000Y-309500D02*
Y-295500D01*
Y-309500D02*
X564000D01*
X548476Y-306818D02*
Y-298182D01*
X551524Y-306818D02*
Y-298182D01*
X-249000Y264000D02*
X-235000D01*
X-249000Y236000D02*
Y264000D01*
Y236000D02*
X-235000D01*
Y264000D01*
X-246318Y248476D02*
X-237682D01*
X-246318Y251524D02*
X-237682D01*
X-640250Y-236500D02*
Y-222500D01*
Y-236500D02*
X-612250D01*
Y-222500D01*
X-640250D02*
X-612250D01*
X-624726Y-233818D02*
Y-225182D01*
X-627774Y-233818D02*
Y-225182D01*
X109000Y264000D02*
X123000D01*
X109000Y236000D02*
Y264000D01*
Y236000D02*
X123000D01*
Y264000D01*
X111682Y248476D02*
X120318D01*
X111682Y251524D02*
X120318D01*
X463000Y267000D02*
X477000D01*
X463000Y239000D02*
Y267000D01*
Y239000D02*
X477000D01*
Y267000D01*
X465682Y251476D02*
X474318D01*
X465682Y254524D02*
X474318D01*
X101500Y224750D02*
Y238750D01*
X73500D02*
X101500D01*
X73500Y224750D02*
Y238750D01*
Y224750D02*
X101500D01*
X85976Y227432D02*
Y236068D01*
X89024Y227432D02*
Y236068D01*
X453540Y226000D02*
Y240000D01*
X425541D02*
X453540D01*
X425541Y226000D02*
Y240000D01*
Y226000D02*
X453540D01*
X438016Y228682D02*
Y237318D01*
X441064Y228682D02*
Y237318D01*
X475000Y-348000D02*
X489000D01*
Y-320000D01*
X475000D02*
X489000D01*
X475000Y-348000D02*
Y-320000D01*
X477682Y-332476D02*
X486318D01*
X477682Y-335524D02*
X486318D01*
X-256000Y225500D02*
Y239500D01*
X-284000D02*
X-256000D01*
X-284000Y225500D02*
Y239500D01*
Y225500D02*
X-256000D01*
X-271524Y228182D02*
Y236818D01*
X-268476Y228182D02*
Y236818D01*
D55*
X-377451Y-12250D02*
G03*
X-377451Y-12250I-3000J0D01*
G01*
X162550Y-12250D02*
G03*
X162550Y-12250I-3000J0D01*
G01*
X432550Y-12250D02*
G03*
X432550Y-12250I-3000J0D01*
G01*
X-408250Y-300000D02*
G03*
X-408250Y-300000I-3000J0D01*
G01*
X-122000Y303000D02*
G03*
X-122000Y303000I-3000J0D01*
G01*
X230040Y304250D02*
G03*
X230040Y304250I-3000J0D01*
G01*
X25500Y-418000D02*
G03*
X25500Y-418000I-3000J0D01*
G01*
X434750Y-477000D02*
G03*
X434750Y-477000I-3000J0D01*
G01*
X-479501Y303000D02*
G03*
X-479501Y303000I-3000J0D01*
G01*
X-107451Y-12250D02*
G03*
X-107451Y-12250I-3000J0D01*
G01*
D56*
X-142336Y377997D02*
X-145668D01*
X-144002D01*
Y369666D01*
X-145668Y368000D01*
X-147334D01*
X-149000Y369666D01*
X-139003Y376330D02*
X-137337Y377997D01*
X-134005D01*
X-132339Y376330D01*
Y374664D01*
X-134005Y372998D01*
X-135671D01*
X-134005D01*
X-132339Y371332D01*
Y369666D01*
X-134005Y368000D01*
X-137337D01*
X-139003Y369666D01*
X-65000Y162750D02*
Y172747D01*
X-60002D01*
X-58335Y171081D01*
Y167748D01*
X-60002Y166082D01*
X-65000D01*
X-61668D02*
X-58335Y162750D01*
X-48339Y171081D02*
X-50005Y172747D01*
X-53337D01*
X-55003Y171081D01*
Y169415D01*
X-53337Y167748D01*
X-50005D01*
X-48339Y166082D01*
Y164416D01*
X-50005Y162750D01*
X-53337D01*
X-55003Y164416D01*
X-45006Y172747D02*
X-38342D01*
X-41674D01*
Y162750D01*
X-578335Y304166D02*
Y310831D01*
X-580002Y312497D01*
X-583334D01*
X-585000Y310831D01*
Y304166D01*
X-583334Y302500D01*
X-580002D01*
X-581668Y305832D02*
X-578335Y302500D01*
X-580002D02*
X-578335Y304166D01*
X-568339Y302500D02*
X-575003D01*
X-568339Y309165D01*
Y310831D01*
X-570005Y312497D01*
X-573337D01*
X-575003Y310831D01*
X-307085Y80081D02*
X-308752Y81747D01*
X-312084D01*
X-313750Y80081D01*
Y73416D01*
X-312084Y71750D01*
X-308752D01*
X-307085Y73416D01*
X-297089Y71750D02*
X-303753D01*
X-297089Y78415D01*
Y80081D01*
X-298755Y81747D01*
X-302087D01*
X-303753Y80081D01*
X-287092Y81747D02*
X-293756D01*
Y76748D01*
X-290424Y78415D01*
X-288758D01*
X-287092Y76748D01*
Y73416D01*
X-288758Y71750D01*
X-292090D01*
X-293756Y73416D01*
X-37085Y80081D02*
X-38752Y81747D01*
X-42084D01*
X-43750Y80081D01*
Y73416D01*
X-42084Y71750D01*
X-38752D01*
X-37085Y73416D01*
X-27089Y71750D02*
X-33753D01*
X-27089Y78415D01*
Y80081D01*
X-28755Y81747D01*
X-32087D01*
X-33753Y80081D01*
X-17092Y81747D02*
X-20424Y80081D01*
X-23756Y76748D01*
Y73416D01*
X-22090Y71750D01*
X-18758D01*
X-17092Y73416D01*
Y75082D01*
X-18758Y76748D01*
X-23756D01*
X232915Y80081D02*
X231248Y81747D01*
X227916D01*
X226250Y80081D01*
Y73416D01*
X227916Y71750D01*
X231248D01*
X232915Y73416D01*
X242911Y71750D02*
X236247D01*
X242911Y78415D01*
Y80081D01*
X241245Y81747D01*
X237913D01*
X236247Y80081D01*
X246244Y81747D02*
X252908D01*
Y80081D01*
X246244Y73416D01*
Y71750D01*
X502915Y80081D02*
X501249Y81747D01*
X497916D01*
X496250Y80081D01*
Y73416D01*
X497916Y71750D01*
X501249D01*
X502915Y73416D01*
X512911Y71750D02*
X506247D01*
X512911Y78415D01*
Y80081D01*
X511245Y81747D01*
X507913D01*
X506247Y80081D01*
X516244D02*
X517910Y81747D01*
X521242D01*
X522908Y80081D01*
Y78415D01*
X521242Y76748D01*
X522908Y75082D01*
Y73416D01*
X521242Y71750D01*
X517910D01*
X516244Y73416D01*
Y75082D01*
X517910Y76748D01*
X516244Y78415D01*
Y80081D01*
X517910Y76748D02*
X521242D01*
X-429585Y112581D02*
X-431252Y114247D01*
X-434584D01*
X-436250Y112581D01*
Y105916D01*
X-434584Y104250D01*
X-431252D01*
X-429585Y105916D01*
X-426253Y104250D02*
X-422921D01*
X-424587D01*
Y114247D01*
X-426253Y112581D01*
X-417923D02*
X-416256Y114247D01*
X-412924D01*
X-411258Y112581D01*
Y110914D01*
X-412924Y109248D01*
X-414590D01*
X-412924D01*
X-411258Y107582D01*
Y105916D01*
X-412924Y104250D01*
X-416256D01*
X-417923Y105916D01*
X-159586Y112581D02*
X-161252Y114247D01*
X-164584D01*
X-166250Y112581D01*
Y105916D01*
X-164584Y104250D01*
X-161252D01*
X-159586Y105916D01*
X-156253Y104250D02*
X-152921D01*
X-154587D01*
Y114247D01*
X-156253Y112581D01*
X-142924Y104250D02*
Y114247D01*
X-147922Y109248D01*
X-141258D01*
X110415Y112581D02*
X108748Y114247D01*
X105416D01*
X103750Y112581D01*
Y105916D01*
X105416Y104250D01*
X108748D01*
X110415Y105916D01*
X113747Y104250D02*
X117079D01*
X115413D01*
Y114247D01*
X113747Y112581D01*
X128742Y114247D02*
X122078D01*
Y109248D01*
X125410Y110914D01*
X127076D01*
X128742Y109248D01*
Y105916D01*
X127076Y104250D01*
X123744D01*
X122078Y105916D01*
X380415Y112581D02*
X378749Y114247D01*
X375416D01*
X373750Y112581D01*
Y105916D01*
X375416Y104250D01*
X378749D01*
X380415Y105916D01*
X383747Y104250D02*
X387079D01*
X385413D01*
Y114247D01*
X383747Y112581D01*
X398742Y114247D02*
X395410Y112581D01*
X392077Y109248D01*
Y105916D01*
X393744Y104250D01*
X397076D01*
X398742Y105916D01*
Y107582D01*
X397076Y109248D01*
X392077D01*
X-509585Y2581D02*
X-511252Y4247D01*
X-514584D01*
X-516250Y2581D01*
Y-4084D01*
X-514584Y-5750D01*
X-511252D01*
X-509585Y-4084D01*
X-506253Y2581D02*
X-504587Y4247D01*
X-501255D01*
X-499589Y2581D01*
Y914D01*
X-501255Y-752D01*
X-502921D01*
X-501255D01*
X-499589Y-2418D01*
Y-4084D01*
X-501255Y-5750D01*
X-504587D01*
X-506253Y-4084D01*
X-496256Y2581D02*
X-494590Y4247D01*
X-491258D01*
X-489592Y2581D01*
Y914D01*
X-491258Y-752D01*
X-492924D01*
X-491258D01*
X-489592Y-2418D01*
Y-4084D01*
X-491258Y-5750D01*
X-494590D01*
X-496256Y-4084D01*
X-239585Y2581D02*
X-241252Y4247D01*
X-244584D01*
X-246250Y2581D01*
Y-4084D01*
X-244584Y-5750D01*
X-241252D01*
X-239585Y-4084D01*
X-236253Y2581D02*
X-234587Y4247D01*
X-231255D01*
X-229589Y2581D01*
Y914D01*
X-231255Y-752D01*
X-232921D01*
X-231255D01*
X-229589Y-2418D01*
Y-4084D01*
X-231255Y-5750D01*
X-234587D01*
X-236253Y-4084D01*
X-221258Y-5750D02*
Y4247D01*
X-226256Y-752D01*
X-219592D01*
X30415Y2581D02*
X28749Y4247D01*
X25416D01*
X23750Y2581D01*
Y-4084D01*
X25416Y-5750D01*
X28749D01*
X30415Y-4084D01*
X33747Y2581D02*
X35413Y4247D01*
X38745D01*
X40411Y2581D01*
Y914D01*
X38745Y-752D01*
X37079D01*
X38745D01*
X40411Y-2418D01*
Y-4084D01*
X38745Y-5750D01*
X35413D01*
X33747Y-4084D01*
X50408Y4247D02*
X43744D01*
Y-752D01*
X47076Y914D01*
X48742D01*
X50408Y-752D01*
Y-4084D01*
X48742Y-5750D01*
X45410D01*
X43744Y-4084D01*
X300415Y2581D02*
X298748Y4247D01*
X295416D01*
X293750Y2581D01*
Y-4084D01*
X295416Y-5750D01*
X298748D01*
X300415Y-4084D01*
X303747Y2581D02*
X305413Y4247D01*
X308745D01*
X310411Y2581D01*
Y914D01*
X308745Y-752D01*
X307079D01*
X308745D01*
X310411Y-2418D01*
Y-4084D01*
X308745Y-5750D01*
X305413D01*
X303747Y-4084D01*
X320408Y4247D02*
X317076Y2581D01*
X313744Y-752D01*
Y-4084D01*
X315410Y-5750D01*
X318742D01*
X320408Y-4084D01*
Y-2418D01*
X318742Y-752D01*
X313744D01*
X-347085Y75081D02*
X-348752Y76747D01*
X-352084D01*
X-353750Y75081D01*
Y68416D01*
X-352084Y66750D01*
X-348752D01*
X-347085Y68416D01*
X-343753Y75081D02*
X-342087Y76747D01*
X-338755D01*
X-337089Y75081D01*
Y73415D01*
X-338755Y71748D01*
X-340421D01*
X-338755D01*
X-337089Y70082D01*
Y68416D01*
X-338755Y66750D01*
X-342087D01*
X-343753Y68416D01*
X-333756Y75081D02*
X-332090Y76747D01*
X-328758D01*
X-327092Y75081D01*
Y68416D01*
X-328758Y66750D01*
X-332090D01*
X-333756Y68416D01*
Y75081D01*
X-77085D02*
X-78752Y76747D01*
X-82084D01*
X-83750Y75081D01*
Y68416D01*
X-82084Y66750D01*
X-78752D01*
X-77085Y68416D01*
X-73753Y75081D02*
X-72087Y76747D01*
X-68755D01*
X-67089Y75081D01*
Y73415D01*
X-68755Y71748D01*
X-70421D01*
X-68755D01*
X-67089Y70082D01*
Y68416D01*
X-68755Y66750D01*
X-72087D01*
X-73753Y68416D01*
X-63756Y66750D02*
X-60424D01*
X-62090D01*
Y76747D01*
X-63756Y75081D01*
X192915D02*
X191248Y76747D01*
X187916D01*
X186250Y75081D01*
Y68416D01*
X187916Y66750D01*
X191248D01*
X192915Y68416D01*
X202911Y66750D02*
X196247D01*
X202911Y73415D01*
Y75081D01*
X201245Y76747D01*
X197913D01*
X196247Y75081D01*
X206244Y68416D02*
X207910Y66750D01*
X211242D01*
X212908Y68416D01*
Y75081D01*
X211242Y76747D01*
X207910D01*
X206244Y75081D01*
Y73415D01*
X207910Y71748D01*
X212908D01*
X462915Y75081D02*
X461249Y76747D01*
X457916D01*
X456250Y75081D01*
Y68416D01*
X457916Y66750D01*
X461249D01*
X462915Y68416D01*
X466247Y75081D02*
X467913Y76747D01*
X471245D01*
X472911Y75081D01*
Y73415D01*
X471245Y71748D01*
X469579D01*
X471245D01*
X472911Y70082D01*
Y68416D01*
X471245Y66750D01*
X467913D01*
X466247Y68416D01*
X482908Y66750D02*
X476244D01*
X482908Y73415D01*
Y75081D01*
X481242Y76747D01*
X477910D01*
X476244Y75081D01*
X-332085Y-48919D02*
X-333752Y-47253D01*
X-337084D01*
X-338750Y-48919D01*
Y-55584D01*
X-337084Y-57250D01*
X-333752D01*
X-332085Y-55584D01*
X-323755Y-57250D02*
Y-47253D01*
X-328753Y-52252D01*
X-322089D01*
X-312092Y-47253D02*
X-315424Y-48919D01*
X-318756Y-52252D01*
Y-55584D01*
X-317090Y-57250D01*
X-313758D01*
X-312092Y-55584D01*
Y-53918D01*
X-313758Y-52252D01*
X-318756D01*
X-62085Y-48919D02*
X-63752Y-47253D01*
X-67084D01*
X-68750Y-48919D01*
Y-55584D01*
X-67084Y-57250D01*
X-63752D01*
X-62085Y-55584D01*
X-53755Y-57250D02*
Y-47253D01*
X-58753Y-52252D01*
X-52089D01*
X-48756Y-47253D02*
X-42092D01*
Y-48919D01*
X-48756Y-55584D01*
Y-57250D01*
X207915Y-48919D02*
X206248Y-47253D01*
X202916D01*
X201250Y-48919D01*
Y-55584D01*
X202916Y-57250D01*
X206248D01*
X207915Y-55584D01*
X216245Y-57250D02*
Y-47253D01*
X211247Y-52252D01*
X217911D01*
X227908Y-47253D02*
X221244D01*
Y-52252D01*
X224576Y-50585D01*
X226242D01*
X227908Y-52252D01*
Y-55584D01*
X226242Y-57250D01*
X222910D01*
X221244Y-55584D01*
X477915Y-48919D02*
X476249Y-47253D01*
X472916D01*
X471250Y-48919D01*
Y-55584D01*
X472916Y-57250D01*
X476249D01*
X477915Y-55584D01*
X486245Y-57250D02*
Y-47253D01*
X481247Y-52252D01*
X487911D01*
X491244Y-48919D02*
X492910Y-47253D01*
X496242D01*
X497908Y-48919D01*
Y-50585D01*
X496242Y-52252D01*
X497908Y-53918D01*
Y-55584D01*
X496242Y-57250D01*
X492910D01*
X491244Y-55584D01*
Y-53918D01*
X492910Y-52252D01*
X491244Y-50585D01*
Y-48919D01*
X492910Y-52252D02*
X496242D01*
X-317085Y-30919D02*
X-318752Y-29253D01*
X-322084D01*
X-323750Y-30919D01*
Y-37584D01*
X-322084Y-39250D01*
X-318752D01*
X-317085Y-37584D01*
X-313753Y-30919D02*
X-312087Y-29253D01*
X-308755D01*
X-307089Y-30919D01*
Y-32585D01*
X-308755Y-34252D01*
X-310421D01*
X-308755D01*
X-307089Y-35918D01*
Y-37584D01*
X-308755Y-39250D01*
X-312087D01*
X-313753Y-37584D01*
X-303756Y-30919D02*
X-302090Y-29253D01*
X-298758D01*
X-297092Y-30919D01*
Y-32585D01*
X-298758Y-34252D01*
X-297092Y-35918D01*
Y-37584D01*
X-298758Y-39250D01*
X-302090D01*
X-303756Y-37584D01*
Y-35918D01*
X-302090Y-34252D01*
X-303756Y-32585D01*
Y-30919D01*
X-302090Y-34252D02*
X-298758D01*
X-47085Y-30919D02*
X-48752Y-29253D01*
X-52084D01*
X-53750Y-30919D01*
Y-37584D01*
X-52084Y-39250D01*
X-48752D01*
X-47085Y-37584D01*
X-43753Y-30919D02*
X-42087Y-29253D01*
X-38755D01*
X-37089Y-30919D01*
Y-32585D01*
X-38755Y-34252D01*
X-40421D01*
X-38755D01*
X-37089Y-35918D01*
Y-37584D01*
X-38755Y-39250D01*
X-42087D01*
X-43753Y-37584D01*
X-33756D02*
X-32090Y-39250D01*
X-28758D01*
X-27092Y-37584D01*
Y-30919D01*
X-28758Y-29253D01*
X-32090D01*
X-33756Y-30919D01*
Y-32585D01*
X-32090Y-34252D01*
X-27092D01*
X222915Y-30919D02*
X221248Y-29253D01*
X217916D01*
X216250Y-30919D01*
Y-37584D01*
X217916Y-39250D01*
X221248D01*
X222915Y-37584D01*
X226247Y-30919D02*
X227913Y-29253D01*
X231245D01*
X232911Y-30919D01*
Y-32585D01*
X231245Y-34252D01*
X229579D01*
X231245D01*
X232911Y-35918D01*
Y-37584D01*
X231245Y-39250D01*
X227913D01*
X226247Y-37584D01*
X236244Y-29253D02*
X242908D01*
Y-30919D01*
X236244Y-37584D01*
Y-39250D01*
X492915Y-30919D02*
X491249Y-29253D01*
X487916D01*
X486250Y-30919D01*
Y-37584D01*
X487916Y-39250D01*
X491249D01*
X492915Y-37584D01*
X501245Y-39250D02*
Y-29253D01*
X496247Y-34252D01*
X502911D01*
X506244Y-30919D02*
X507910Y-29253D01*
X511242D01*
X512908Y-30919D01*
Y-37584D01*
X511242Y-39250D01*
X507910D01*
X506244Y-37584D01*
Y-30919D01*
X-384585Y125081D02*
X-386252Y126747D01*
X-389584D01*
X-391250Y125081D01*
Y118416D01*
X-389584Y116750D01*
X-386252D01*
X-384585Y118416D01*
X-381253Y116750D02*
X-377921D01*
X-379587D01*
Y126747D01*
X-381253Y125081D01*
X-372923Y126747D02*
X-366258D01*
Y125081D01*
X-372923Y118416D01*
Y116750D01*
X-114585Y125081D02*
X-116252Y126747D01*
X-119584D01*
X-121250Y125081D01*
Y118416D01*
X-119584Y116750D01*
X-116252D01*
X-114585Y118416D01*
X-111253Y116750D02*
X-107921D01*
X-109587D01*
Y126747D01*
X-111253Y125081D01*
X-102922D02*
X-101256Y126747D01*
X-97924D01*
X-96258Y125081D01*
Y123414D01*
X-97924Y121748D01*
X-96258Y120082D01*
Y118416D01*
X-97924Y116750D01*
X-101256D01*
X-102922Y118416D01*
Y120082D01*
X-101256Y121748D01*
X-102922Y123414D01*
Y125081D01*
X-101256Y121748D02*
X-97924D01*
X155415Y125081D02*
X153749Y126747D01*
X150416D01*
X148750Y125081D01*
Y118416D01*
X150416Y116750D01*
X153749D01*
X155415Y118416D01*
X158747Y116750D02*
X162079D01*
X160413D01*
Y126747D01*
X158747Y125081D01*
X167078Y118416D02*
X168744Y116750D01*
X172076D01*
X173742Y118416D01*
Y125081D01*
X172076Y126747D01*
X168744D01*
X167078Y125081D01*
Y123414D01*
X168744Y121748D01*
X173742D01*
X425415Y125081D02*
X423749Y126747D01*
X420416D01*
X418750Y125081D01*
Y118416D01*
X420416Y116750D01*
X423749D01*
X425415Y118416D01*
X435411Y116750D02*
X428747D01*
X435411Y123414D01*
Y125081D01*
X433745Y126747D01*
X430413D01*
X428747Y125081D01*
X438744D02*
X440410Y126747D01*
X443742D01*
X445408Y125081D01*
Y118416D01*
X443742Y116750D01*
X440410D01*
X438744Y118416D01*
Y125081D01*
X-504585Y107581D02*
X-506252Y109247D01*
X-509584D01*
X-511250Y107581D01*
Y100916D01*
X-509584Y99250D01*
X-506252D01*
X-504585Y100916D01*
X-494589Y99250D02*
X-501253D01*
X-494589Y105914D01*
Y107581D01*
X-496255Y109247D01*
X-499587D01*
X-501253Y107581D01*
X-491256Y99250D02*
X-487924D01*
X-489590D01*
Y109247D01*
X-491256Y107581D01*
X-211586Y121831D02*
X-213252Y123497D01*
X-216584D01*
X-218250Y121831D01*
Y115166D01*
X-216584Y113500D01*
X-213252D01*
X-211586Y115166D01*
X-201589Y113500D02*
X-208253D01*
X-201589Y120164D01*
Y121831D01*
X-203255Y123497D01*
X-206587D01*
X-208253Y121831D01*
X-191592Y113500D02*
X-198256D01*
X-191592Y120164D01*
Y121831D01*
X-193258Y123497D01*
X-196590D01*
X-198256Y121831D01*
X58415D02*
X56748Y123497D01*
X53416D01*
X51750Y121831D01*
Y115166D01*
X53416Y113500D01*
X56748D01*
X58415Y115166D01*
X68411Y113500D02*
X61747D01*
X68411Y120164D01*
Y121831D01*
X66745Y123497D01*
X63413D01*
X61747Y121831D01*
X71744D02*
X73410Y123497D01*
X76742D01*
X78408Y121831D01*
Y120164D01*
X76742Y118498D01*
X75076D01*
X76742D01*
X78408Y116832D01*
Y115166D01*
X76742Y113500D01*
X73410D01*
X71744Y115166D01*
X328414Y121831D02*
X326748Y123497D01*
X323416D01*
X321750Y121831D01*
Y115166D01*
X323416Y113500D01*
X326748D01*
X328414Y115166D01*
X338411Y113500D02*
X331747D01*
X338411Y120164D01*
Y121831D01*
X336745Y123497D01*
X333413D01*
X331747Y121831D01*
X346742Y113500D02*
Y123497D01*
X341744Y118498D01*
X348408D01*
X-503086Y-44919D02*
X-504752Y-43253D01*
X-508084D01*
X-509750Y-44919D01*
Y-51584D01*
X-508084Y-53250D01*
X-504752D01*
X-503086Y-51584D01*
X-494755Y-53250D02*
Y-43253D01*
X-499753Y-48252D01*
X-493089D01*
X-489756Y-53250D02*
X-486424D01*
X-488090D01*
Y-43253D01*
X-489756Y-44919D01*
X-233085D02*
X-234752Y-43253D01*
X-238084D01*
X-239750Y-44919D01*
Y-51584D01*
X-238084Y-53250D01*
X-234752D01*
X-233085Y-51584D01*
X-224755Y-53250D02*
Y-43253D01*
X-229753Y-48252D01*
X-223089D01*
X-213092Y-53250D02*
X-219756D01*
X-213092Y-46585D01*
Y-44919D01*
X-214758Y-43253D01*
X-218090D01*
X-219756Y-44919D01*
X36915D02*
X35248Y-43253D01*
X31916D01*
X30250Y-44919D01*
Y-51584D01*
X31916Y-53250D01*
X35248D01*
X36915Y-51584D01*
X45245Y-53250D02*
Y-43253D01*
X40247Y-48252D01*
X46911D01*
X50244Y-44919D02*
X51910Y-43253D01*
X55242D01*
X56908Y-44919D01*
Y-46585D01*
X55242Y-48252D01*
X53576D01*
X55242D01*
X56908Y-49918D01*
Y-51584D01*
X55242Y-53250D01*
X51910D01*
X50244Y-51584D01*
X306915Y-44919D02*
X305249Y-43253D01*
X301916D01*
X300250Y-44919D01*
Y-51584D01*
X301916Y-53250D01*
X305249D01*
X306915Y-51584D01*
X315245Y-53250D02*
Y-43253D01*
X310247Y-48252D01*
X316911D01*
X325242Y-53250D02*
Y-43253D01*
X320244Y-48252D01*
X326908D01*
X-601335Y-240669D02*
X-603002Y-239003D01*
X-606334D01*
X-608000Y-240669D01*
Y-247334D01*
X-606334Y-249000D01*
X-603002D01*
X-601335Y-247334D01*
X-591339Y-239003D02*
X-598003D01*
Y-244002D01*
X-594671Y-242335D01*
X-593005D01*
X-591339Y-244002D01*
Y-247334D01*
X-593005Y-249000D01*
X-596337D01*
X-598003Y-247334D01*
X-581342Y-249000D02*
X-588006D01*
X-581342Y-242335D01*
Y-240669D01*
X-583008Y-239003D01*
X-586340D01*
X-588006Y-240669D01*
X-312335Y251331D02*
X-314002Y252997D01*
X-317334D01*
X-319000Y251331D01*
Y244666D01*
X-317334Y243000D01*
X-314002D01*
X-312335Y244666D01*
X-309003Y243000D02*
X-305671D01*
X-307337D01*
Y252997D01*
X-309003Y251331D01*
X-300673D02*
X-299006Y252997D01*
X-295674D01*
X-294008Y251331D01*
Y244666D01*
X-295674Y243000D01*
X-299006D01*
X-300673Y244666D01*
Y251331D01*
X54169Y201665D02*
X52503Y199998D01*
Y196666D01*
X54169Y195000D01*
X60834D01*
X62500Y196666D01*
Y199998D01*
X60834Y201665D01*
X62500Y204997D02*
Y208329D01*
Y206663D01*
X52503D01*
X54169Y204997D01*
X62500Y219992D02*
Y213327D01*
X55835Y219992D01*
X54169D01*
X52503Y218326D01*
Y214994D01*
X54169Y213327D01*
X406665Y220831D02*
X404998Y222497D01*
X401666D01*
X400000Y220831D01*
Y214166D01*
X401666Y212500D01*
X404998D01*
X406665Y214166D01*
X409997Y220831D02*
X411663Y222497D01*
X414995D01*
X416661Y220831D01*
Y219165D01*
X414995Y217498D01*
X416661Y215832D01*
Y214166D01*
X414995Y212500D01*
X411663D01*
X409997Y214166D01*
Y215832D01*
X411663Y217498D01*
X409997Y219165D01*
Y220831D01*
X411663Y217498D02*
X414995D01*
X-632605Y-177035D02*
X-634272Y-175369D01*
X-637604D01*
X-639270Y-177035D01*
Y-183700D01*
X-637604Y-185366D01*
X-634272D01*
X-632605Y-183700D01*
X-624275Y-185366D02*
Y-175369D01*
X-629273Y-180368D01*
X-622609D01*
X-619276Y-183700D02*
X-617610Y-185366D01*
X-614278D01*
X-612612Y-183700D01*
Y-177035D01*
X-614278Y-175369D01*
X-617610D01*
X-619276Y-177035D01*
Y-178701D01*
X-617610Y-180368D01*
X-612612D01*
X-243335Y277331D02*
X-245002Y278997D01*
X-248334D01*
X-250000Y277331D01*
Y270666D01*
X-248334Y269000D01*
X-245002D01*
X-243335Y270666D01*
X-233339Y278997D02*
X-240003D01*
Y273998D01*
X-236671Y275665D01*
X-235005D01*
X-233339Y273998D01*
Y270666D01*
X-235005Y269000D01*
X-238337D01*
X-240003Y270666D01*
X114164Y275831D02*
X112498Y277497D01*
X109166D01*
X107500Y275831D01*
Y269166D01*
X109166Y267500D01*
X112498D01*
X114164Y269166D01*
X124161Y277497D02*
X120829Y275831D01*
X117497Y272498D01*
Y269166D01*
X119163Y267500D01*
X122495D01*
X124161Y269166D01*
Y270832D01*
X122495Y272498D01*
X117497D01*
X469165Y280831D02*
X467498Y282497D01*
X464166D01*
X462500Y280831D01*
Y274166D01*
X464166Y272500D01*
X467498D01*
X469165Y274166D01*
X477495Y272500D02*
Y282497D01*
X472497Y277498D01*
X479161D01*
X-635835Y-366669D02*
X-637502Y-365003D01*
X-640834D01*
X-642500Y-366669D01*
Y-373334D01*
X-640834Y-375000D01*
X-637502D01*
X-635835Y-373334D01*
X-625839Y-365003D02*
X-629171Y-366669D01*
X-632503Y-370002D01*
Y-373334D01*
X-630837Y-375000D01*
X-627505D01*
X-625839Y-373334D01*
Y-371668D01*
X-627505Y-370002D01*
X-632503D01*
X-617508Y-375000D02*
Y-365003D01*
X-622506Y-370002D01*
X-615842D01*
X-270836Y370831D02*
X-272502Y372497D01*
X-275835D01*
X-277501Y370831D01*
Y364166D01*
X-275835Y362500D01*
X-272502D01*
X-270836Y364166D01*
X-260839Y362500D02*
X-267504D01*
X-260839Y369165D01*
Y370831D01*
X-262505Y372497D01*
X-265838D01*
X-267504Y370831D01*
X86664Y370081D02*
X84998Y371747D01*
X81666D01*
X80000Y370081D01*
Y363416D01*
X81666Y361750D01*
X84998D01*
X86664Y363416D01*
X89997Y370081D02*
X91663Y371747D01*
X94995D01*
X96661Y370081D01*
Y368415D01*
X94995Y366749D01*
X93329D01*
X94995D01*
X96661Y365082D01*
Y363416D01*
X94995Y361750D01*
X91663D01*
X89997Y363416D01*
X438705Y371331D02*
X437038Y372997D01*
X433706D01*
X432040Y371331D01*
Y364666D01*
X433706Y363000D01*
X437038D01*
X438705Y364666D01*
X442037Y363000D02*
X445369D01*
X443703D01*
Y372997D01*
X442037Y371331D01*
X-633335Y-211669D02*
X-635002Y-210003D01*
X-638334D01*
X-640000Y-211669D01*
Y-218334D01*
X-638334Y-220000D01*
X-635002D01*
X-633335Y-218334D01*
X-623339Y-210003D02*
X-630003D01*
Y-215002D01*
X-626671Y-213335D01*
X-625005D01*
X-623339Y-215002D01*
Y-218334D01*
X-625005Y-220000D01*
X-628337D01*
X-630003Y-218334D01*
X-620006Y-220000D02*
X-616674D01*
X-618340D01*
Y-210003D01*
X-620006Y-211669D01*
X-275336Y250331D02*
X-277002Y251997D01*
X-280334D01*
X-282000Y250331D01*
Y243666D01*
X-280334Y242000D01*
X-277002D01*
X-275336Y243666D01*
X-272003D02*
X-270337Y242000D01*
X-267005D01*
X-265339Y243666D01*
Y250331D01*
X-267005Y251997D01*
X-270337D01*
X-272003Y250331D01*
Y248664D01*
X-270337Y246998D01*
X-265339D01*
X84169Y204165D02*
X82503Y202498D01*
Y199166D01*
X84169Y197500D01*
X90834D01*
X92500Y199166D01*
Y202498D01*
X90834Y204165D01*
X92500Y207497D02*
Y210829D01*
Y209163D01*
X82503D01*
X84169Y207497D01*
X92500Y215827D02*
Y219160D01*
Y217494D01*
X82503D01*
X84169Y215827D01*
X431665Y220831D02*
X429998Y222497D01*
X426666D01*
X425000Y220831D01*
Y214166D01*
X426666Y212500D01*
X429998D01*
X431665Y214166D01*
X434997Y222497D02*
X441661D01*
Y220831D01*
X434997Y214166D01*
Y212500D01*
X-105336Y-277669D02*
X-107002Y-276003D01*
X-110334D01*
X-112000Y-277669D01*
Y-284334D01*
X-110334Y-286000D01*
X-107002D01*
X-105336Y-284334D01*
X-95339Y-276003D02*
X-102003D01*
Y-281002D01*
X-98671Y-279335D01*
X-97005D01*
X-95339Y-281002D01*
Y-284334D01*
X-97005Y-286000D01*
X-100337D01*
X-102003Y-284334D01*
X-85342Y-276003D02*
X-88674Y-277669D01*
X-92006Y-281002D01*
Y-284334D01*
X-90340Y-286000D01*
X-87008D01*
X-85342Y-284334D01*
Y-282668D01*
X-87008Y-281002D01*
X-92006D01*
X346665Y-219169D02*
X344998Y-217503D01*
X341666D01*
X340000Y-219169D01*
Y-225834D01*
X341666Y-227500D01*
X344998D01*
X346665Y-225834D01*
X356661Y-217503D02*
X349997D01*
Y-222502D01*
X353329Y-220835D01*
X354995D01*
X356661Y-222502D01*
Y-225834D01*
X354995Y-227500D01*
X351663D01*
X349997Y-225834D01*
X359994Y-219169D02*
X361660Y-217503D01*
X364992D01*
X366658Y-219169D01*
Y-225834D01*
X364992Y-227500D01*
X361660D01*
X359994Y-225834D01*
Y-219169D01*
X644120Y-238836D02*
X642454Y-240502D01*
Y-243834D01*
X644120Y-245500D01*
X650784D01*
X652450Y-243834D01*
Y-240502D01*
X650784Y-238836D01*
X642454Y-228839D02*
Y-235503D01*
X647452D01*
X645786Y-232171D01*
Y-230505D01*
X647452Y-228839D01*
X650784D01*
X652450Y-230505D01*
Y-233837D01*
X650784Y-235503D01*
X644120Y-225506D02*
X642454Y-223840D01*
Y-220508D01*
X644120Y-218842D01*
X645786D01*
X647452Y-220508D01*
Y-222174D01*
Y-220508D01*
X649118Y-218842D01*
X650784D01*
X652450Y-220508D01*
Y-223840D01*
X650784Y-225506D01*
X-312085Y-305169D02*
X-313752Y-303503D01*
X-317084D01*
X-318750Y-305169D01*
Y-311834D01*
X-317084Y-313500D01*
X-313752D01*
X-312085Y-311834D01*
X-302089Y-303503D02*
X-305421Y-305169D01*
X-308753Y-308502D01*
Y-311834D01*
X-307087Y-313500D01*
X-303755D01*
X-302089Y-311834D01*
Y-310168D01*
X-303755Y-308502D01*
X-308753D01*
X-292092Y-313500D02*
X-298757D01*
X-292092Y-306835D01*
Y-305169D01*
X-293758Y-303503D01*
X-297090D01*
X-298757Y-305169D01*
X159164Y-256669D02*
X157498Y-255003D01*
X154166D01*
X152500Y-256669D01*
Y-263334D01*
X154166Y-265000D01*
X157498D01*
X159164Y-263334D01*
X169161Y-255003D02*
X162497D01*
Y-260002D01*
X165829Y-258335D01*
X167495D01*
X169161Y-260002D01*
Y-263334D01*
X167495Y-265000D01*
X164163D01*
X162497Y-263334D01*
X177492Y-265000D02*
Y-255003D01*
X172494Y-260002D01*
X179158D01*
X304169Y-273335D02*
X302503Y-275002D01*
Y-278334D01*
X304169Y-280000D01*
X310834D01*
X312500Y-278334D01*
Y-275002D01*
X310834Y-273335D01*
X302503Y-263339D02*
Y-270003D01*
X307502D01*
X305835Y-266671D01*
Y-265005D01*
X307502Y-263339D01*
X310834D01*
X312500Y-265005D01*
Y-268337D01*
X310834Y-270003D01*
X302503Y-253342D02*
Y-260006D01*
X307502D01*
X305835Y-256674D01*
Y-255008D01*
X307502Y-253342D01*
X310834D01*
X312500Y-255008D01*
Y-258340D01*
X310834Y-260006D01*
X304169Y-305835D02*
X302503Y-307502D01*
Y-310834D01*
X304169Y-312500D01*
X310834D01*
X312500Y-310834D01*
Y-307502D01*
X310834Y-305835D01*
X302503Y-295839D02*
Y-302503D01*
X307502D01*
X305835Y-299171D01*
Y-297505D01*
X307502Y-295839D01*
X310834D01*
X312500Y-297505D01*
Y-300837D01*
X310834Y-302503D01*
X302503Y-292507D02*
Y-285842D01*
X304169D01*
X310834Y-292507D01*
X312500D01*
X-60835Y-484169D02*
X-62502Y-482503D01*
X-65834D01*
X-67500Y-484169D01*
Y-490834D01*
X-65834Y-492500D01*
X-62502D01*
X-60835Y-490834D01*
X-57503Y-482503D02*
X-50839D01*
Y-484169D01*
X-57503Y-490834D01*
Y-492500D01*
X-47506Y-482503D02*
X-40842D01*
Y-484169D01*
X-47506Y-490834D01*
Y-492500D01*
X-123336Y-359169D02*
X-125002Y-357503D01*
X-128334D01*
X-130000Y-359169D01*
Y-365834D01*
X-128334Y-367500D01*
X-125002D01*
X-123336Y-365834D01*
X-113339Y-357503D02*
X-116671Y-359169D01*
X-120003Y-362502D01*
Y-365834D01*
X-118337Y-367500D01*
X-115005D01*
X-113339Y-365834D01*
Y-364168D01*
X-115005Y-362502D01*
X-120003D01*
X-103342Y-357503D02*
X-106674Y-359169D01*
X-110006Y-362502D01*
Y-365834D01*
X-108340Y-367500D01*
X-105008D01*
X-103342Y-365834D01*
Y-364168D01*
X-105008Y-362502D01*
X-110006D01*
X106664Y-345669D02*
X104998Y-344003D01*
X101666D01*
X100000Y-345669D01*
Y-352334D01*
X101666Y-354000D01*
X104998D01*
X106664Y-352334D01*
X116661Y-344003D02*
X113329Y-345669D01*
X109997Y-349002D01*
Y-352334D01*
X111663Y-354000D01*
X114995D01*
X116661Y-352334D01*
Y-350668D01*
X114995Y-349002D01*
X109997D01*
X126658Y-344003D02*
X119994D01*
Y-349002D01*
X123326Y-347336D01*
X124992D01*
X126658Y-349002D01*
Y-352334D01*
X124992Y-354000D01*
X121660D01*
X119994Y-352334D01*
X33665Y-481669D02*
X31998Y-480003D01*
X28666D01*
X27000Y-481669D01*
Y-488334D01*
X28666Y-490000D01*
X31998D01*
X33665Y-488334D01*
X36997Y-480003D02*
X43661D01*
Y-481669D01*
X36997Y-488334D01*
Y-490000D01*
X46994Y-481669D02*
X48660Y-480003D01*
X51992D01*
X53658Y-481669D01*
Y-483335D01*
X51992Y-485002D01*
X53658Y-486668D01*
Y-488334D01*
X51992Y-490000D01*
X48660D01*
X46994Y-488334D01*
Y-486668D01*
X48660Y-485002D01*
X46994Y-483335D01*
Y-481669D01*
X48660Y-485002D02*
X51992D01*
X477664Y-440669D02*
X475998Y-439003D01*
X472666D01*
X471000Y-440669D01*
Y-447334D01*
X472666Y-449000D01*
X475998D01*
X477664Y-447334D01*
X480997Y-439003D02*
X487661D01*
Y-440669D01*
X480997Y-447334D01*
Y-449000D01*
X497658Y-439003D02*
X494326Y-440669D01*
X490994Y-444002D01*
Y-447334D01*
X492660Y-449000D01*
X495992D01*
X497658Y-447334D01*
Y-445668D01*
X495992Y-444002D01*
X490994D01*
X79665Y-482669D02*
X77998Y-481003D01*
X74666D01*
X73000Y-482669D01*
Y-489334D01*
X74666Y-491000D01*
X77998D01*
X79665Y-489334D01*
X82997Y-481003D02*
X89661D01*
Y-482669D01*
X82997Y-489334D01*
Y-491000D01*
X97992D02*
Y-481003D01*
X92994Y-486002D01*
X99658D01*
X176665Y-481669D02*
X174998Y-480003D01*
X171666D01*
X170000Y-481669D01*
Y-488334D01*
X171666Y-490000D01*
X174998D01*
X176665Y-488334D01*
X179997Y-480003D02*
X186661D01*
Y-481669D01*
X179997Y-488334D01*
Y-490000D01*
X196658Y-480003D02*
X189993D01*
Y-485002D01*
X193326Y-483335D01*
X194992D01*
X196658Y-485002D01*
Y-488334D01*
X194992Y-490000D01*
X191660D01*
X189993Y-488334D01*
X173669Y-419336D02*
X172003Y-421002D01*
Y-424334D01*
X173669Y-426000D01*
X180334D01*
X182000Y-424334D01*
Y-421002D01*
X180334Y-419336D01*
X172003Y-416003D02*
Y-409339D01*
X173669D01*
X180334Y-416003D01*
X182000D01*
X173669Y-406007D02*
X172003Y-404340D01*
Y-401008D01*
X173669Y-399342D01*
X175336D01*
X177002Y-401008D01*
Y-402674D01*
Y-401008D01*
X178668Y-399342D01*
X180334D01*
X182000Y-401008D01*
Y-404340D01*
X180334Y-406007D01*
X160669Y-419336D02*
X159003Y-421002D01*
Y-424334D01*
X160669Y-426000D01*
X167334D01*
X169000Y-424334D01*
Y-421002D01*
X167334Y-419336D01*
X159003Y-416003D02*
Y-409339D01*
X160669D01*
X167334Y-416003D01*
X169000D01*
Y-406007D02*
Y-402674D01*
Y-404340D01*
X159003D01*
X160669Y-406007D01*
X147669Y-419336D02*
X146003Y-421002D01*
Y-424334D01*
X147669Y-426000D01*
X154334D01*
X156000Y-424334D01*
Y-421002D01*
X154334Y-419336D01*
X146003Y-416003D02*
Y-409339D01*
X147669D01*
X154334Y-416003D01*
X156000D01*
Y-399342D02*
Y-406007D01*
X149335Y-399342D01*
X147669D01*
X146003Y-401008D01*
Y-404340D01*
X147669Y-406007D01*
X-28335Y-481669D02*
X-30002Y-480003D01*
X-33334D01*
X-35000Y-481669D01*
Y-488334D01*
X-33334Y-490000D01*
X-30002D01*
X-28335Y-488334D01*
X-25003Y-480003D02*
X-18339D01*
Y-481669D01*
X-25003Y-488334D01*
Y-490000D01*
X-15006Y-488334D02*
X-13340Y-490000D01*
X-10008D01*
X-8342Y-488334D01*
Y-481669D01*
X-10008Y-480003D01*
X-13340D01*
X-15006Y-481669D01*
Y-483335D01*
X-13340Y-485002D01*
X-8342D01*
X-70835Y-304169D02*
X-72502Y-302503D01*
X-75834D01*
X-77500Y-304169D01*
Y-310834D01*
X-75834Y-312500D01*
X-72502D01*
X-70835Y-310834D01*
X-60839Y-302503D02*
X-64171Y-304169D01*
X-67503Y-307502D01*
Y-310834D01*
X-65837Y-312500D01*
X-62505D01*
X-60839Y-310834D01*
Y-309168D01*
X-62505Y-307502D01*
X-67503D01*
X-57506Y-312500D02*
X-54174D01*
X-55840D01*
Y-302503D01*
X-57506Y-304169D01*
X29664Y-305169D02*
X27998Y-303503D01*
X24666D01*
X23000Y-305169D01*
Y-311834D01*
X24666Y-313500D01*
X27998D01*
X29664Y-311834D01*
X39661Y-303503D02*
X36329Y-305169D01*
X32997Y-308502D01*
Y-311834D01*
X34663Y-313500D01*
X37995D01*
X39661Y-311834D01*
Y-310168D01*
X37995Y-308502D01*
X32997D01*
X42993Y-305169D02*
X44660Y-303503D01*
X47992D01*
X49658Y-305169D01*
Y-311834D01*
X47992Y-313500D01*
X44660D01*
X42993Y-311834D01*
Y-305169D01*
X-123336Y-391669D02*
X-125002Y-390003D01*
X-128334D01*
X-130000Y-391669D01*
Y-398334D01*
X-128334Y-400000D01*
X-125002D01*
X-123336Y-398334D01*
X-120003Y-390003D02*
X-113339D01*
Y-391669D01*
X-120003Y-398334D01*
Y-400000D01*
X-110006Y-391669D02*
X-108340Y-390003D01*
X-105008D01*
X-103342Y-391669D01*
Y-398334D01*
X-105008Y-400000D01*
X-108340D01*
X-110006Y-398334D01*
Y-391669D01*
X179669Y-371836D02*
X178003Y-373502D01*
Y-376834D01*
X179669Y-378500D01*
X186334D01*
X188000Y-376834D01*
Y-373502D01*
X186334Y-371836D01*
X178003Y-361839D02*
X179669Y-365171D01*
X183002Y-368503D01*
X186334D01*
X188000Y-366837D01*
Y-363505D01*
X186334Y-361839D01*
X184668D01*
X183002Y-363505D01*
Y-368503D01*
X186334Y-358506D02*
X188000Y-356840D01*
Y-353508D01*
X186334Y-351842D01*
X179669D01*
X178003Y-353508D01*
Y-356840D01*
X179669Y-358506D01*
X181336D01*
X183002Y-356840D01*
Y-351842D01*
X164669Y-371836D02*
X163003Y-373502D01*
Y-376834D01*
X164669Y-378500D01*
X171334D01*
X173000Y-376834D01*
Y-373502D01*
X171334Y-371836D01*
X163003Y-361839D02*
X164669Y-365171D01*
X168002Y-368503D01*
X171334D01*
X173000Y-366837D01*
Y-363505D01*
X171334Y-361839D01*
X169668D01*
X168002Y-363505D01*
Y-368503D01*
X163003Y-358506D02*
Y-351842D01*
X164669D01*
X171334Y-358506D01*
X173000D01*
X149669Y-371836D02*
X148003Y-373502D01*
Y-376834D01*
X149669Y-378500D01*
X156334D01*
X158000Y-376834D01*
Y-373502D01*
X156334Y-371836D01*
X148003Y-361839D02*
X149669Y-365171D01*
X153002Y-368503D01*
X156334D01*
X158000Y-366837D01*
Y-363505D01*
X156334Y-361839D01*
X154668D01*
X153002Y-363505D01*
Y-368503D01*
X149669Y-358506D02*
X148003Y-356840D01*
Y-353508D01*
X149669Y-351842D01*
X151335D01*
X153002Y-353508D01*
X154668Y-351842D01*
X156334D01*
X158000Y-353508D01*
Y-356840D01*
X156334Y-358506D01*
X154668D01*
X153002Y-356840D01*
X151335Y-358506D01*
X149669D01*
X153002Y-356840D02*
Y-353508D01*
X479165Y-306669D02*
X477498Y-305003D01*
X474166D01*
X472500Y-306669D01*
Y-313334D01*
X474166Y-315000D01*
X477498D01*
X479165Y-313334D01*
X489161Y-305003D02*
X485829Y-306669D01*
X482497Y-310002D01*
Y-313334D01*
X484163Y-315000D01*
X487495D01*
X489161Y-313334D01*
Y-311668D01*
X487495Y-310002D01*
X482497D01*
X492494Y-306669D02*
X494160Y-305003D01*
X497492D01*
X499158Y-306669D01*
Y-308335D01*
X497492Y-310002D01*
X495826D01*
X497492D01*
X499158Y-311668D01*
Y-313334D01*
X497492Y-315000D01*
X494160D01*
X492494Y-313334D01*
X509165Y-281669D02*
X507498Y-280003D01*
X504166D01*
X502500Y-281669D01*
Y-288334D01*
X504166Y-290000D01*
X507498D01*
X509165Y-288334D01*
X519161Y-280003D02*
X512497D01*
Y-285002D01*
X515829Y-283335D01*
X517495D01*
X519161Y-285002D01*
Y-288334D01*
X517495Y-290000D01*
X514163D01*
X512497Y-288334D01*
X522494Y-281669D02*
X524160Y-280003D01*
X527492D01*
X529158Y-281669D01*
Y-283335D01*
X527492Y-285002D01*
X529158Y-286668D01*
Y-288334D01*
X527492Y-290000D01*
X524160D01*
X522494Y-288334D01*
Y-286668D01*
X524160Y-285002D01*
X522494Y-283335D01*
Y-281669D01*
X524160Y-285002D02*
X527492D01*
X544165Y-281669D02*
X542498Y-280003D01*
X539166D01*
X537500Y-281669D01*
Y-288334D01*
X539166Y-290000D01*
X542498D01*
X544165Y-288334D01*
X554161Y-280003D02*
X547497D01*
Y-285002D01*
X550829Y-283335D01*
X552495D01*
X554161Y-285002D01*
Y-288334D01*
X552495Y-290000D01*
X549163D01*
X547497Y-288334D01*
X557494D02*
X559160Y-290000D01*
X562492D01*
X564158Y-288334D01*
Y-281669D01*
X562492Y-280003D01*
X559160D01*
X557494Y-281669D01*
Y-283335D01*
X559160Y-285002D01*
X564158D01*
X-394100Y-208253D02*
Y-218250D01*
X-389102D01*
X-387436Y-216584D01*
Y-209919D01*
X-389102Y-208253D01*
X-394100D01*
X-384103Y-218250D02*
X-380771D01*
X-382437D01*
Y-208253D01*
X-384103Y-209919D01*
X-369108Y-208253D02*
X-372440Y-209919D01*
X-375773Y-213251D01*
Y-216584D01*
X-374106Y-218250D01*
X-370774D01*
X-369108Y-216584D01*
Y-214918D01*
X-370774Y-213251D01*
X-375773D01*
X-571350Y363247D02*
Y353250D01*
X-566352D01*
X-564686Y354916D01*
Y361581D01*
X-566352Y363247D01*
X-571350D01*
X-554689Y353250D02*
X-561353D01*
X-554689Y359915D01*
Y361581D01*
X-556355Y363247D01*
X-559687D01*
X-561353Y361581D01*
X-226100Y365497D02*
Y355500D01*
X-221102D01*
X-219436Y357166D01*
Y363831D01*
X-221102Y365497D01*
X-226100D01*
X-216103Y355500D02*
X-212771D01*
X-214437D01*
Y365497D01*
X-216103Y363831D01*
X136400Y362997D02*
Y353000D01*
X141398D01*
X143064Y354666D01*
Y361331D01*
X141398Y362997D01*
X136400D01*
X146397Y361331D02*
X148063Y362997D01*
X151395D01*
X153061Y361331D01*
Y359665D01*
X151395Y357999D01*
X149729D01*
X151395D01*
X153061Y356332D01*
Y354666D01*
X151395Y353000D01*
X148063D01*
X146397Y354666D01*
X-326250Y-183253D02*
Y-193250D01*
X-321252D01*
X-319585Y-191584D01*
Y-184919D01*
X-321252Y-183253D01*
X-326250D01*
X-309589D02*
X-312921Y-184919D01*
X-316253Y-188252D01*
Y-191584D01*
X-314587Y-193250D01*
X-311255D01*
X-309589Y-191584D01*
Y-189918D01*
X-311255Y-188252D01*
X-316253D01*
X-56250Y-183253D02*
Y-193250D01*
X-51252D01*
X-49585Y-191584D01*
Y-184919D01*
X-51252Y-183253D01*
X-56250D01*
X-46253Y-184919D02*
X-44587Y-183253D01*
X-41255D01*
X-39589Y-184919D01*
Y-186586D01*
X-41255Y-188252D01*
X-39589Y-189918D01*
Y-191584D01*
X-41255Y-193250D01*
X-44587D01*
X-46253Y-191584D01*
Y-189918D01*
X-44587Y-188252D01*
X-46253Y-186586D01*
Y-184919D01*
X-44587Y-188252D02*
X-41255D01*
X213750Y-183253D02*
Y-193250D01*
X218748D01*
X220415Y-191584D01*
Y-184919D01*
X218748Y-183253D01*
X213750D01*
X223747Y-193250D02*
X227079D01*
X225413D01*
Y-183253D01*
X223747Y-184919D01*
X238742Y-193250D02*
X232078D01*
X238742Y-186586D01*
Y-184919D01*
X237076Y-183253D01*
X233744D01*
X232078Y-184919D01*
X483750Y-183253D02*
Y-193250D01*
X488749D01*
X490415Y-191584D01*
Y-184919D01*
X488749Y-183253D01*
X483750D01*
X493747Y-193250D02*
X497079D01*
X495413D01*
Y-183253D01*
X493747Y-184919D01*
X507076Y-193250D02*
Y-183253D01*
X502077Y-188252D01*
X508742D01*
X-381250Y-183253D02*
Y-193250D01*
X-376252D01*
X-374585Y-191584D01*
Y-184919D01*
X-376252Y-183253D01*
X-381250D01*
X-364589D02*
X-371253D01*
Y-188252D01*
X-367921Y-186586D01*
X-366255D01*
X-364589Y-188252D01*
Y-191584D01*
X-366255Y-193250D01*
X-369587D01*
X-371253Y-191584D01*
X-111250Y-183253D02*
Y-193250D01*
X-106252D01*
X-104585Y-191584D01*
Y-184919D01*
X-106252Y-183253D01*
X-111250D01*
X-101253D02*
X-94589D01*
Y-184919D01*
X-101253Y-191584D01*
Y-193250D01*
X158750Y-183253D02*
Y-193250D01*
X163748D01*
X165415Y-191584D01*
Y-184919D01*
X163748Y-183253D01*
X158750D01*
X168747Y-191584D02*
X170413Y-193250D01*
X173745D01*
X175411Y-191584D01*
Y-184919D01*
X173745Y-183253D01*
X170413D01*
X168747Y-184919D01*
Y-186586D01*
X170413Y-188252D01*
X175411D01*
X428750Y-183253D02*
Y-193250D01*
X433749D01*
X435415Y-191584D01*
Y-184919D01*
X433749Y-183253D01*
X428750D01*
X438747Y-193250D02*
X442079D01*
X440413D01*
Y-183253D01*
X438747Y-184919D01*
X447077D02*
X448744Y-183253D01*
X452076D01*
X453742Y-184919D01*
Y-186586D01*
X452076Y-188252D01*
X450410D01*
X452076D01*
X453742Y-189918D01*
Y-191584D01*
X452076Y-193250D01*
X448744D01*
X447077Y-191584D01*
X-438750Y-183253D02*
Y-193250D01*
X-433752D01*
X-432085Y-191584D01*
Y-184919D01*
X-433752Y-183253D01*
X-438750D01*
X-423755Y-193250D02*
Y-183253D01*
X-428753Y-188252D01*
X-422089D01*
X-168750Y-183253D02*
Y-193250D01*
X-163752D01*
X-162085Y-191584D01*
Y-184919D01*
X-163752Y-183253D01*
X-168750D01*
X-158753Y-193250D02*
X-155421D01*
X-157087D01*
Y-183253D01*
X-158753Y-184919D01*
X-150422D02*
X-148756Y-183253D01*
X-145424D01*
X-143758Y-184919D01*
Y-191584D01*
X-145424Y-193250D01*
X-148756D01*
X-150422Y-191584D01*
Y-184919D01*
X101250Y-183253D02*
Y-193250D01*
X106249D01*
X107915Y-191584D01*
Y-184919D01*
X106249Y-183253D01*
X101250D01*
X111247Y-193250D02*
X114579D01*
X112913D01*
Y-183253D01*
X111247Y-184919D01*
X119578Y-193250D02*
X122910D01*
X121244D01*
Y-183253D01*
X119578Y-184919D01*
X371250Y-183253D02*
Y-193250D01*
X376249D01*
X377915Y-191584D01*
Y-184919D01*
X376249Y-183253D01*
X371250D01*
X381247Y-193250D02*
X384579D01*
X382913D01*
Y-183253D01*
X381247Y-184919D01*
X396242Y-183253D02*
X389577D01*
Y-188252D01*
X392910Y-186586D01*
X394576D01*
X396242Y-188252D01*
Y-191584D01*
X394576Y-193250D01*
X391244D01*
X389577Y-191584D01*
X-511335Y-367003D02*
X-514668D01*
X-513002D01*
Y-375334D01*
X-514668Y-377000D01*
X-516334D01*
X-518000Y-375334D01*
X-501339Y-367003D02*
X-508003D01*
Y-372002D01*
X-504671Y-370336D01*
X-503005D01*
X-501339Y-372002D01*
Y-375334D01*
X-503005Y-377000D01*
X-506337D01*
X-508003Y-375334D01*
X209165Y377497D02*
X205832D01*
X207498D01*
Y369166D01*
X205832Y367500D01*
X204166D01*
X202500Y369166D01*
X212497Y367500D02*
X215829D01*
X214163D01*
Y377497D01*
X212497Y375831D01*
X208664Y-340003D02*
X205332D01*
X206998D01*
Y-348334D01*
X205332Y-350000D01*
X203666D01*
X202000Y-348334D01*
X216995Y-350000D02*
Y-340003D01*
X211997Y-345002D01*
X218661D01*
X125000Y-430003D02*
Y-440000D01*
X131664D01*
X141661D02*
X134997D01*
X141661Y-433335D01*
Y-431669D01*
X139995Y-430003D01*
X136663D01*
X134997Y-431669D01*
X131000Y-339003D02*
Y-349000D01*
X137664D01*
X140997D02*
X144329D01*
X142663D01*
Y-339003D01*
X140997Y-340669D01*
X-471250Y168750D02*
Y178747D01*
X-467918Y175415D01*
X-464585Y178747D01*
Y168750D01*
X-461253D02*
X-454589Y175415D01*
X-444592Y177081D02*
X-446258Y178747D01*
X-449590D01*
X-451256Y177081D01*
Y175415D01*
X-449590Y173748D01*
X-446258D01*
X-444592Y172082D01*
Y170416D01*
X-446258Y168750D01*
X-449590D01*
X-451256Y170416D01*
X-170750Y151750D02*
Y161747D01*
X-167418Y158414D01*
X-164086Y161747D01*
Y151750D01*
X-160753D02*
X-154089Y158414D01*
X-144092Y160081D02*
X-145758Y161747D01*
X-149090D01*
X-150756Y160081D01*
Y158414D01*
X-149090Y156748D01*
X-145758D01*
X-144092Y155082D01*
Y153416D01*
X-145758Y151750D01*
X-149090D01*
X-150756Y153416D01*
X99250Y151750D02*
Y161747D01*
X102582Y158414D01*
X105914Y161747D01*
Y151750D01*
X109247D02*
X115911Y158414D01*
X125908Y160081D02*
X124242Y161747D01*
X120910D01*
X119244Y160081D01*
Y158414D01*
X120910Y156748D01*
X124242D01*
X125908Y155082D01*
Y153416D01*
X124242Y151750D01*
X120910D01*
X119244Y153416D01*
X369250Y151750D02*
Y161747D01*
X372582Y158414D01*
X375914Y161747D01*
Y151750D01*
X379247D02*
X385911Y158414D01*
X395908Y160081D02*
X394242Y161747D01*
X390910D01*
X389244Y160081D01*
Y158414D01*
X390910Y156748D01*
X394242D01*
X395908Y155082D01*
Y153416D01*
X394242Y151750D01*
X390910D01*
X389244Y153416D01*
X-536714Y-74669D02*
X-538380Y-73003D01*
X-541713D01*
X-543379Y-74669D01*
Y-76336D01*
X-541713Y-78002D01*
X-538380D01*
X-536714Y-79668D01*
Y-81334D01*
X-538380Y-83000D01*
X-541713D01*
X-543379Y-81334D01*
X-533382Y-73003D02*
Y-83000D01*
X-530050Y-79668D01*
X-526717Y-83000D01*
Y-73003D01*
X-523385D02*
Y-83000D01*
X-518387D01*
X-516721Y-81334D01*
Y-74669D01*
X-518387Y-73003D01*
X-523385D01*
X-262085Y-79919D02*
X-263752Y-78253D01*
X-267084D01*
X-268750Y-79919D01*
Y-81586D01*
X-267084Y-83252D01*
X-263752D01*
X-262085Y-84918D01*
Y-86584D01*
X-263752Y-88250D01*
X-267084D01*
X-268750Y-86584D01*
X-258753Y-78253D02*
Y-88250D01*
X-255421Y-84918D01*
X-252089Y-88250D01*
Y-78253D01*
X-248756D02*
Y-88250D01*
X-243758D01*
X-242092Y-86584D01*
Y-79919D01*
X-243758Y-78253D01*
X-248756D01*
X7915Y-79919D02*
X6248Y-78253D01*
X2916D01*
X1250Y-79919D01*
Y-81586D01*
X2916Y-83252D01*
X6248D01*
X7915Y-84918D01*
Y-86584D01*
X6248Y-88250D01*
X2916D01*
X1250Y-86584D01*
X11247Y-78253D02*
Y-88250D01*
X14579Y-84918D01*
X17911Y-88250D01*
Y-78253D01*
X21244D02*
Y-88250D01*
X26242D01*
X27908Y-86584D01*
Y-79919D01*
X26242Y-78253D01*
X21244D01*
X277915Y-79919D02*
X276248Y-78253D01*
X272916D01*
X271250Y-79919D01*
Y-81586D01*
X272916Y-83252D01*
X276248D01*
X277915Y-84918D01*
Y-86584D01*
X276248Y-88250D01*
X272916D01*
X271250Y-86584D01*
X281247Y-78253D02*
Y-88250D01*
X284579Y-84918D01*
X287911Y-88250D01*
Y-78253D01*
X291244D02*
Y-88250D01*
X296242D01*
X297908Y-86584D01*
Y-79919D01*
X296242Y-78253D01*
X291244D01*
X-441250Y-105753D02*
Y-115750D01*
X-436252D01*
X-434585Y-114084D01*
Y-112418D01*
X-436252Y-110752D01*
X-441250D01*
X-436252D01*
X-434585Y-109086D01*
Y-107419D01*
X-436252Y-105753D01*
X-441250D01*
X-431253Y-107419D02*
X-429587Y-105753D01*
X-426255D01*
X-424589Y-107419D01*
Y-114084D01*
X-426255Y-115750D01*
X-429587D01*
X-431253Y-114084D01*
Y-107419D01*
X-421256Y-117416D02*
X-414592D01*
X-411260Y-105753D02*
Y-115750D01*
Y-110752D01*
X-404595D01*
Y-105753D01*
Y-115750D01*
X-171250Y-105753D02*
Y-115750D01*
X-166252D01*
X-164585Y-114084D01*
Y-112418D01*
X-166252Y-110752D01*
X-171250D01*
X-166252D01*
X-164585Y-109086D01*
Y-107419D01*
X-166252Y-105753D01*
X-171250D01*
X-161253Y-107419D02*
X-159587Y-105753D01*
X-156255D01*
X-154589Y-107419D01*
Y-114084D01*
X-156255Y-115750D01*
X-159587D01*
X-161253Y-114084D01*
Y-107419D01*
X-151256Y-117416D02*
X-144592D01*
X-141260Y-105753D02*
Y-115750D01*
Y-110752D01*
X-134595D01*
Y-105753D01*
Y-115750D01*
X98750Y-105753D02*
Y-115750D01*
X103749D01*
X105415Y-114084D01*
Y-112418D01*
X103749Y-110752D01*
X98750D01*
X103749D01*
X105415Y-109086D01*
Y-107419D01*
X103749Y-105753D01*
X98750D01*
X108747Y-107419D02*
X110413Y-105753D01*
X113745D01*
X115411Y-107419D01*
Y-114084D01*
X113745Y-115750D01*
X110413D01*
X108747Y-114084D01*
Y-107419D01*
X118744Y-117416D02*
X125408D01*
X128740Y-105753D02*
Y-115750D01*
Y-110752D01*
X135405D01*
Y-105753D01*
Y-115750D01*
X368750Y-105753D02*
Y-115750D01*
X373749D01*
X375415Y-114084D01*
Y-112418D01*
X373749Y-110752D01*
X368750D01*
X373749D01*
X375415Y-109086D01*
Y-107419D01*
X373749Y-105753D01*
X368750D01*
X378747Y-107419D02*
X380413Y-105753D01*
X383745D01*
X385411Y-107419D01*
Y-114084D01*
X383745Y-115750D01*
X380413D01*
X378747Y-114084D01*
Y-107419D01*
X388744Y-117416D02*
X395408D01*
X398740Y-105753D02*
Y-115750D01*
Y-110752D01*
X405405D01*
Y-105753D01*
Y-115750D01*
X-600002Y-187000D02*
Y-177003D01*
X-605000Y-182002D01*
X-598335D01*
X-595003Y-178669D02*
X-593337Y-177003D01*
X-590005D01*
X-588339Y-178669D01*
Y-180336D01*
X-590005Y-182002D01*
X-588339Y-183668D01*
Y-185334D01*
X-590005Y-187000D01*
X-593337D01*
X-595003Y-185334D01*
Y-183668D01*
X-593337Y-182002D01*
X-595003Y-180336D01*
Y-178669D01*
X-593337Y-182002D02*
X-590005D01*
X-578342Y-177003D02*
X-585006D01*
Y-182002D01*
X-581674Y-180336D01*
X-580008D01*
X-578342Y-182002D01*
Y-185334D01*
X-580008Y-187000D01*
X-583340D01*
X-585006Y-185334D01*
X-405502Y215750D02*
Y225747D01*
X-410500Y220748D01*
X-403835D01*
X-400503Y224081D02*
X-398837Y225747D01*
X-395505D01*
X-393839Y224081D01*
Y222414D01*
X-395505Y220748D01*
X-393839Y219082D01*
Y217416D01*
X-395505Y215750D01*
X-398837D01*
X-400503Y217416D01*
Y219082D01*
X-398837Y220748D01*
X-400503Y222414D01*
Y224081D01*
X-398837Y220748D02*
X-395505D01*
X-383842Y225747D02*
X-390507D01*
Y220748D01*
X-387174Y222414D01*
X-385508D01*
X-383842Y220748D01*
Y217416D01*
X-385508Y215750D01*
X-388840D01*
X-390507Y217416D01*
X-7502Y235000D02*
Y244997D01*
X-12500Y239998D01*
X-5835D01*
X-2503Y243331D02*
X-837Y244997D01*
X2495D01*
X4161Y243331D01*
Y241665D01*
X2495Y239998D01*
X4161Y238332D01*
Y236666D01*
X2495Y235000D01*
X-837D01*
X-2503Y236666D01*
Y238332D01*
X-837Y239998D01*
X-2503Y241665D01*
Y243331D01*
X-837Y239998D02*
X2495D01*
X14158Y244997D02*
X7494D01*
Y239998D01*
X10826Y241665D01*
X12492D01*
X14158Y239998D01*
Y236666D01*
X12492Y235000D01*
X9160D01*
X7494Y236666D01*
X304039Y216250D02*
Y226247D01*
X299041Y221248D01*
X305705D01*
X309038Y224581D02*
X310704Y226247D01*
X314036D01*
X315702Y224581D01*
Y222915D01*
X314036Y221248D01*
X315702Y219582D01*
Y217916D01*
X314036Y216250D01*
X310704D01*
X309038Y217916D01*
Y219582D01*
X310704Y221248D01*
X309038Y222915D01*
Y224581D01*
X310704Y221248D02*
X314036D01*
X325699Y226247D02*
X319034D01*
Y221248D01*
X322367Y222915D01*
X324033D01*
X325699Y221248D01*
Y217916D01*
X324033Y216250D01*
X320700D01*
X319034Y217916D01*
X-389936Y-241584D02*
Y-234919D01*
X-391602Y-233253D01*
X-394934D01*
X-396600Y-234919D01*
Y-241584D01*
X-394934Y-243250D01*
X-391602D01*
X-393268Y-239918D02*
X-389936Y-243250D01*
X-391602D02*
X-389936Y-241584D01*
X-386603Y-243250D02*
X-383271D01*
X-384937D01*
Y-233253D01*
X-386603Y-234919D01*
X-371608Y-243250D02*
X-378273D01*
X-371608Y-236585D01*
Y-234919D01*
X-373274Y-233253D01*
X-376606D01*
X-378273Y-234919D01*
X-221936Y332166D02*
Y338831D01*
X-223602Y340497D01*
X-226934D01*
X-228600Y338831D01*
Y332166D01*
X-226934Y330500D01*
X-223602D01*
X-225268Y333832D02*
X-221936Y330500D01*
X-223602D02*
X-221936Y332166D01*
X-218603Y330500D02*
X-215271D01*
X-216937D01*
Y340497D01*
X-218603Y338831D01*
X140564Y329666D02*
Y336331D01*
X138898Y337997D01*
X135566D01*
X133900Y336331D01*
Y329666D01*
X135566Y328000D01*
X138898D01*
X137232Y331332D02*
X140564Y328000D01*
X138898D02*
X140564Y329666D01*
X143897Y336331D02*
X145563Y337997D01*
X148895D01*
X150561Y336331D01*
Y334665D01*
X148895Y332999D01*
X147229D01*
X148895D01*
X150561Y331332D01*
Y329666D01*
X148895Y328000D01*
X145563D01*
X143897Y329666D01*
X-354100Y-353250D02*
Y-343253D01*
X-349102D01*
X-347436Y-344919D01*
Y-348251D01*
X-349102Y-349917D01*
X-354100D01*
X-350768D02*
X-347436Y-353250D01*
X-337439Y-343253D02*
X-344103D01*
Y-348251D01*
X-340771Y-346585D01*
X-339105D01*
X-337439Y-348251D01*
Y-351584D01*
X-339105Y-353250D01*
X-342437D01*
X-344103Y-351584D01*
X-327442Y-343253D02*
X-334106D01*
Y-348251D01*
X-330774Y-346585D01*
X-329108D01*
X-327442Y-348251D01*
Y-351584D01*
X-329108Y-353250D01*
X-332440D01*
X-334106Y-351584D01*
X-531350Y218250D02*
Y228247D01*
X-526352D01*
X-524686Y226581D01*
Y223249D01*
X-526352Y221582D01*
X-531350D01*
X-528018D02*
X-524686Y218250D01*
X-521353D02*
X-518021D01*
X-519687D01*
Y228247D01*
X-521353Y226581D01*
X-506358Y218250D02*
X-513023D01*
X-506358Y224915D01*
Y226581D01*
X-508024Y228247D01*
X-511357D01*
X-513023Y226581D01*
X-186100Y220500D02*
Y230497D01*
X-181102D01*
X-179436Y228831D01*
Y225499D01*
X-181102Y223832D01*
X-186100D01*
X-182768D02*
X-179436Y220500D01*
X-176103D02*
X-172771D01*
X-174437D01*
Y230497D01*
X-176103Y228831D01*
X-167773D02*
X-166106Y230497D01*
X-162774D01*
X-161108Y228831D01*
Y222166D01*
X-162774Y220500D01*
X-166106D01*
X-167773Y222166D01*
Y228831D01*
X176400Y218000D02*
Y227997D01*
X181398D01*
X183064Y226331D01*
Y222999D01*
X181398Y221332D01*
X176400D01*
X179732D02*
X183064Y218000D01*
X186397D02*
X189729D01*
X188063D01*
Y227997D01*
X186397Y226331D01*
X199726Y218000D02*
Y227997D01*
X194727Y222999D01*
X201392D01*
X-389100Y-353250D02*
Y-343253D01*
X-384102D01*
X-382436Y-344919D01*
Y-348251D01*
X-384102Y-349917D01*
X-389100D01*
X-385768D02*
X-382436Y-353250D01*
X-372439Y-343253D02*
X-379103D01*
Y-348251D01*
X-375771Y-346585D01*
X-374105D01*
X-372439Y-348251D01*
Y-351584D01*
X-374105Y-353250D01*
X-377437D01*
X-379103Y-351584D01*
X-362442Y-343253D02*
X-365774Y-344919D01*
X-369106Y-348251D01*
Y-351584D01*
X-367440Y-353250D01*
X-364108D01*
X-362442Y-351584D01*
Y-349917D01*
X-364108Y-348251D01*
X-369106D01*
X-564500Y218500D02*
Y228497D01*
X-559502D01*
X-557836Y226831D01*
Y223498D01*
X-559502Y221832D01*
X-564500D01*
X-561168D02*
X-557836Y218500D01*
X-554503D02*
X-551171D01*
X-552837D01*
Y228497D01*
X-554503Y226831D01*
X-546173D02*
X-544506Y228497D01*
X-541174D01*
X-539508Y226831D01*
Y225165D01*
X-541174Y223498D01*
X-542840D01*
X-541174D01*
X-539508Y221832D01*
Y220166D01*
X-541174Y218500D01*
X-544506D01*
X-546173Y220166D01*
X-221100Y220500D02*
Y230497D01*
X-216102D01*
X-214436Y228831D01*
Y225499D01*
X-216102Y223832D01*
X-221100D01*
X-217768D02*
X-214436Y220500D01*
X-211103D02*
X-207771D01*
X-209437D01*
Y230497D01*
X-211103Y228831D01*
X-202773Y220500D02*
X-199440D01*
X-201106D01*
Y230497D01*
X-202773Y228831D01*
X141400Y218000D02*
Y227997D01*
X146398D01*
X148064Y226331D01*
Y222999D01*
X146398Y221332D01*
X141400D01*
X144732D02*
X148064Y218000D01*
X151397D02*
X154729D01*
X153063D01*
Y227997D01*
X151397Y226331D01*
X166392Y227997D02*
X159727D01*
Y222999D01*
X163060Y224665D01*
X164726D01*
X166392Y222999D01*
Y219666D01*
X164726Y218000D01*
X161394D01*
X159727Y219666D01*
X-493750Y124250D02*
Y134247D01*
X-488752D01*
X-487085Y132581D01*
Y129248D01*
X-488752Y127582D01*
X-493750D01*
X-490418D02*
X-487085Y124250D01*
X-483753D02*
X-480421D01*
X-482087D01*
Y134247D01*
X-483753Y132581D01*
X-475423Y125916D02*
X-473756Y124250D01*
X-470424D01*
X-468758Y125916D01*
Y132581D01*
X-470424Y134247D01*
X-473756D01*
X-475423Y132581D01*
Y130914D01*
X-473756Y129248D01*
X-468758D01*
X-206250Y145750D02*
Y155747D01*
X-201252D01*
X-199585Y154081D01*
Y150748D01*
X-201252Y149082D01*
X-206250D01*
X-202918D02*
X-199585Y145750D01*
X-196253D02*
X-192921D01*
X-194587D01*
Y155747D01*
X-196253Y154081D01*
X-181258Y155747D02*
X-184590Y154081D01*
X-187923Y150748D01*
Y147416D01*
X-186256Y145750D01*
X-182924D01*
X-181258Y147416D01*
Y149082D01*
X-182924Y150748D01*
X-187923D01*
X63750Y145750D02*
Y155747D01*
X68748D01*
X70415Y154081D01*
Y150748D01*
X68748Y149082D01*
X63750D01*
X67082D02*
X70415Y145750D01*
X73747D02*
X77079D01*
X75413D01*
Y155747D01*
X73747Y154081D01*
X82077Y155747D02*
X88742D01*
Y154081D01*
X82077Y147416D01*
Y145750D01*
X333750D02*
Y155747D01*
X338748D01*
X340415Y154081D01*
Y150748D01*
X338748Y149082D01*
X333750D01*
X337082D02*
X340415Y145750D01*
X343747D02*
X347079D01*
X345413D01*
Y155747D01*
X343747Y154081D01*
X352077D02*
X353744Y155747D01*
X357076D01*
X358742Y154081D01*
Y152415D01*
X357076Y150748D01*
X358742Y149082D01*
Y147416D01*
X357076Y145750D01*
X353744D01*
X352077Y147416D01*
Y149082D01*
X353744Y150748D01*
X352077Y152415D01*
Y154081D01*
X353744Y150748D02*
X357076D01*
X-366250Y-75750D02*
Y-65753D01*
X-361252D01*
X-359585Y-67419D01*
Y-70752D01*
X-361252Y-72418D01*
X-366250D01*
X-362918D02*
X-359585Y-75750D01*
X-349589D02*
X-356253D01*
X-349589Y-69085D01*
Y-67419D01*
X-351255Y-65753D01*
X-354587D01*
X-356253Y-67419D01*
X-346256D02*
X-344590Y-65753D01*
X-341258D01*
X-339592Y-67419D01*
Y-74084D01*
X-341258Y-75750D01*
X-344590D01*
X-346256Y-74084D01*
Y-67419D01*
X-96250Y-75750D02*
Y-65753D01*
X-91252D01*
X-89585Y-67419D01*
Y-70752D01*
X-91252Y-72418D01*
X-96250D01*
X-92918D02*
X-89585Y-75750D01*
X-79589D02*
X-86253D01*
X-79589Y-69085D01*
Y-67419D01*
X-81255Y-65753D01*
X-84587D01*
X-86253Y-67419D01*
X-76256Y-75750D02*
X-72924D01*
X-74590D01*
Y-65753D01*
X-76256Y-67419D01*
X173750Y-75750D02*
Y-65753D01*
X178748D01*
X180415Y-67419D01*
Y-70752D01*
X178748Y-72418D01*
X173750D01*
X177082D02*
X180415Y-75750D01*
X190411D02*
X183747D01*
X190411Y-69085D01*
Y-67419D01*
X188745Y-65753D01*
X185413D01*
X183747Y-67419D01*
X200408Y-75750D02*
X193744D01*
X200408Y-69085D01*
Y-67419D01*
X198742Y-65753D01*
X195410D01*
X193744Y-67419D01*
X443750Y-75750D02*
Y-65753D01*
X448749D01*
X450415Y-67419D01*
Y-70752D01*
X448749Y-72418D01*
X443750D01*
X447082D02*
X450415Y-75750D01*
X460411D02*
X453747D01*
X460411Y-69085D01*
Y-67419D01*
X458745Y-65753D01*
X455413D01*
X453747Y-67419D01*
X463744D02*
X465410Y-65753D01*
X468742D01*
X470408Y-67419D01*
Y-69085D01*
X468742Y-70752D01*
X467076D01*
X468742D01*
X470408Y-72418D01*
Y-74084D01*
X468742Y-75750D01*
X465410D01*
X463744Y-74084D01*
X-366250Y-105750D02*
Y-95753D01*
X-361252D01*
X-359585Y-97419D01*
Y-100752D01*
X-361252Y-102418D01*
X-366250D01*
X-362918D02*
X-359585Y-105750D01*
X-349589D02*
X-356253D01*
X-349589Y-99086D01*
Y-97419D01*
X-351255Y-95753D01*
X-354587D01*
X-356253Y-97419D01*
X-341258Y-105750D02*
Y-95753D01*
X-346256Y-100752D01*
X-339592D01*
X-96250Y-105750D02*
Y-95753D01*
X-91252D01*
X-89585Y-97419D01*
Y-100752D01*
X-91252Y-102418D01*
X-96250D01*
X-92918D02*
X-89585Y-105750D01*
X-79589D02*
X-86253D01*
X-79589Y-99086D01*
Y-97419D01*
X-81255Y-95753D01*
X-84587D01*
X-86253Y-97419D01*
X-69592Y-95753D02*
X-76256D01*
Y-100752D01*
X-72924Y-99086D01*
X-71258D01*
X-69592Y-100752D01*
Y-104084D01*
X-71258Y-105750D01*
X-74590D01*
X-76256Y-104084D01*
X173750Y-105750D02*
Y-95753D01*
X178748D01*
X180415Y-97419D01*
Y-100752D01*
X178748Y-102418D01*
X173750D01*
X177082D02*
X180415Y-105750D01*
X190411D02*
X183747D01*
X190411Y-99086D01*
Y-97419D01*
X188745Y-95753D01*
X185413D01*
X183747Y-97419D01*
X200408Y-95753D02*
X197076Y-97419D01*
X193744Y-100752D01*
Y-104084D01*
X195410Y-105750D01*
X198742D01*
X200408Y-104084D01*
Y-102418D01*
X198742Y-100752D01*
X193744D01*
X443750Y-105750D02*
Y-95753D01*
X448749D01*
X450415Y-97419D01*
Y-100752D01*
X448749Y-102418D01*
X443750D01*
X447082D02*
X450415Y-105750D01*
X460411D02*
X453747D01*
X460411Y-99086D01*
Y-97419D01*
X458745Y-95753D01*
X455413D01*
X453747Y-97419D01*
X463744Y-95753D02*
X470408D01*
Y-97419D01*
X463744Y-104084D01*
Y-105750D01*
X-543250Y-237750D02*
Y-227753D01*
X-538252D01*
X-536586Y-229419D01*
Y-232752D01*
X-538252Y-234418D01*
X-543250D01*
X-539918D02*
X-536586Y-237750D01*
X-533253Y-229419D02*
X-531587Y-227753D01*
X-528255D01*
X-526589Y-229419D01*
Y-231085D01*
X-528255Y-232752D01*
X-529921D01*
X-528255D01*
X-526589Y-234418D01*
Y-236084D01*
X-528255Y-237750D01*
X-531587D01*
X-533253Y-236084D01*
X-523256Y-229419D02*
X-521590Y-227753D01*
X-518258D01*
X-516592Y-229419D01*
Y-231085D01*
X-518258Y-232752D01*
X-516592Y-234418D01*
Y-236084D01*
X-518258Y-237750D01*
X-521590D01*
X-523256Y-236084D01*
Y-234418D01*
X-521590Y-232752D01*
X-523256Y-231085D01*
Y-229419D01*
X-521590Y-232752D02*
X-518258D01*
X-385000Y262500D02*
Y272497D01*
X-380002D01*
X-378335Y270831D01*
Y267498D01*
X-380002Y265832D01*
X-385000D01*
X-381668D02*
X-378335Y262500D01*
X-375003Y270831D02*
X-373337Y272497D01*
X-370005D01*
X-368339Y270831D01*
Y269165D01*
X-370005Y267498D01*
X-368339Y265832D01*
Y264166D01*
X-370005Y262500D01*
X-373337D01*
X-375003Y264166D01*
Y265832D01*
X-373337Y267498D01*
X-375003Y269165D01*
Y270831D01*
X-373337Y267498D02*
X-370005D01*
X-50000Y242500D02*
Y252497D01*
X-45002D01*
X-43335Y250831D01*
Y247498D01*
X-45002Y245832D01*
X-50000D01*
X-46668D02*
X-43335Y242500D01*
X-40003Y244166D02*
X-38337Y242500D01*
X-35005D01*
X-33339Y244166D01*
Y250831D01*
X-35005Y252497D01*
X-38337D01*
X-40003Y250831D01*
Y249165D01*
X-38337Y247498D01*
X-33339D01*
X325000Y262500D02*
Y272497D01*
X329998D01*
X331665Y270831D01*
Y267498D01*
X329998Y265832D01*
X325000D01*
X328332D02*
X331665Y262500D01*
X334997Y272497D02*
X341661D01*
Y270831D01*
X334997Y264166D01*
Y262500D01*
X-529000Y-298000D02*
Y-288003D01*
X-524002D01*
X-522336Y-289669D01*
Y-293002D01*
X-524002Y-294668D01*
X-529000D01*
X-525668D02*
X-522336Y-298000D01*
X-512339Y-288003D02*
X-519003D01*
Y-293002D01*
X-515671Y-291336D01*
X-514005D01*
X-512339Y-293002D01*
Y-296334D01*
X-514005Y-298000D01*
X-517337D01*
X-519003Y-296334D01*
X-502342Y-298000D02*
X-509006D01*
X-502342Y-291336D01*
Y-289669D01*
X-504008Y-288003D01*
X-507340D01*
X-509006Y-289669D01*
X-387501Y321000D02*
Y330997D01*
X-382502D01*
X-380836Y329331D01*
Y325998D01*
X-382502Y324332D01*
X-387501D01*
X-384168D02*
X-380836Y321000D01*
X-370839D02*
X-377504D01*
X-370839Y327665D01*
Y329331D01*
X-372505Y330997D01*
X-375838D01*
X-377504Y329331D01*
X-30000Y320250D02*
Y330247D01*
X-25002D01*
X-23336Y328581D01*
Y325248D01*
X-25002Y323582D01*
X-30000D01*
X-26668D02*
X-23336Y320250D01*
X-20003Y328581D02*
X-18337Y330247D01*
X-15005D01*
X-13339Y328581D01*
Y326915D01*
X-15005Y325248D01*
X-16671D01*
X-15005D01*
X-13339Y323582D01*
Y321916D01*
X-15005Y320250D01*
X-18337D01*
X-20003Y321916D01*
X322040Y321500D02*
Y331497D01*
X327038D01*
X328705Y329831D01*
Y326498D01*
X327038Y324832D01*
X322040D01*
X325372D02*
X328705Y321500D01*
X332037D02*
X335369D01*
X333703D01*
Y331497D01*
X332037Y329831D01*
X-473000Y-234000D02*
Y-224003D01*
X-468002D01*
X-466335Y-225669D01*
Y-229002D01*
X-468002Y-230668D01*
X-473000D01*
X-469668D02*
X-466335Y-234000D01*
X-458005D02*
Y-224003D01*
X-463003Y-229002D01*
X-456339D01*
X-453006Y-225669D02*
X-451340Y-224003D01*
X-448008D01*
X-446342Y-225669D01*
Y-227335D01*
X-448008Y-229002D01*
X-449674D01*
X-448008D01*
X-446342Y-230668D01*
Y-232334D01*
X-448008Y-234000D01*
X-451340D01*
X-453006Y-232334D01*
X-460000Y255000D02*
Y264997D01*
X-455002D01*
X-453335Y263331D01*
Y259998D01*
X-455002Y258332D01*
X-460000D01*
X-456668D02*
X-453335Y255000D01*
X-443339Y264997D02*
X-450003D01*
Y259998D01*
X-446671Y261665D01*
X-445005D01*
X-443339Y259998D01*
Y256666D01*
X-445005Y255000D01*
X-448337D01*
X-450003Y256666D01*
X-102500Y247500D02*
Y257497D01*
X-97502D01*
X-95836Y255831D01*
Y252498D01*
X-97502Y250832D01*
X-102500D01*
X-99168D02*
X-95836Y247500D01*
X-85839Y257497D02*
X-89171Y255831D01*
X-92503Y252498D01*
Y249166D01*
X-90837Y247500D01*
X-87505D01*
X-85839Y249166D01*
Y250832D01*
X-87505Y252498D01*
X-92503D01*
X250000Y250000D02*
Y259997D01*
X254998D01*
X256665Y258331D01*
Y254998D01*
X254998Y253332D01*
X250000D01*
X253332D02*
X256665Y250000D01*
X264995D02*
Y259997D01*
X259997Y254998D01*
X266661D01*
X-112000Y-265000D02*
Y-255003D01*
X-107002D01*
X-105336Y-256669D01*
Y-260002D01*
X-107002Y-261668D01*
X-112000D01*
X-108668D02*
X-105336Y-265000D01*
X-97005D02*
Y-255003D01*
X-102003Y-260002D01*
X-95339D01*
X-92006Y-263334D02*
X-90340Y-265000D01*
X-87008D01*
X-85342Y-263334D01*
Y-256669D01*
X-87008Y-255003D01*
X-90340D01*
X-92006Y-256669D01*
Y-258335D01*
X-90340Y-260002D01*
X-85342D01*
X345000Y-247500D02*
Y-237503D01*
X349998D01*
X351665Y-239169D01*
Y-242502D01*
X349998Y-244168D01*
X345000D01*
X348332D02*
X351665Y-247500D01*
X359995D02*
Y-237503D01*
X354997Y-242502D01*
X361661D01*
X371658Y-247500D02*
X364994D01*
X371658Y-240835D01*
Y-239169D01*
X369992Y-237503D01*
X366660D01*
X364994Y-239169D01*
X629950Y-245500D02*
X619953D01*
Y-240502D01*
X621620Y-238836D01*
X624952D01*
X626618Y-240502D01*
Y-245500D01*
Y-242168D02*
X629950Y-238836D01*
Y-230505D02*
X619953D01*
X624952Y-235503D01*
Y-228839D01*
X621620Y-225506D02*
X619953Y-223840D01*
Y-220508D01*
X621620Y-218842D01*
X623286D01*
X624952Y-220508D01*
X626618Y-218842D01*
X628284D01*
X629950Y-220508D01*
Y-223840D01*
X628284Y-225506D01*
X626618D01*
X624952Y-223840D01*
X623286Y-225506D01*
X621620D01*
X624952Y-223840D02*
Y-220508D01*
X-318000Y-333500D02*
Y-323503D01*
X-313002D01*
X-311336Y-325169D01*
Y-328502D01*
X-313002Y-330168D01*
X-318000D01*
X-314668D02*
X-311336Y-333500D01*
X-301339Y-323503D02*
X-308003D01*
Y-328502D01*
X-304671Y-326836D01*
X-303005D01*
X-301339Y-328502D01*
Y-331834D01*
X-303005Y-333500D01*
X-306337D01*
X-308003Y-331834D01*
X-293008Y-333500D02*
Y-323503D01*
X-298006Y-328502D01*
X-291342D01*
X149000Y-244000D02*
Y-234003D01*
X153998D01*
X155665Y-235669D01*
Y-239002D01*
X153998Y-240668D01*
X149000D01*
X152332D02*
X155665Y-244000D01*
X163995D02*
Y-234003D01*
X158997Y-239002D01*
X165661D01*
X168994Y-235669D02*
X170660Y-234003D01*
X173992D01*
X175658Y-235669D01*
Y-242334D01*
X173992Y-244000D01*
X170660D01*
X168994Y-242334D01*
Y-235669D01*
X-105000Y-245000D02*
Y-235003D01*
X-100002D01*
X-98336Y-236669D01*
Y-240002D01*
X-100002Y-241668D01*
X-105000D01*
X-101668D02*
X-98336Y-245000D01*
X-90005D02*
Y-235003D01*
X-95003Y-240002D01*
X-88339D01*
X-85006Y-245000D02*
X-81674D01*
X-83340D01*
Y-235003D01*
X-85006Y-236669D01*
X345000Y-267500D02*
Y-257503D01*
X349998D01*
X351665Y-259169D01*
Y-262502D01*
X349998Y-264168D01*
X345000D01*
X348332D02*
X351665Y-267500D01*
X361661Y-257503D02*
X354997D01*
Y-262502D01*
X358329Y-260835D01*
X359995D01*
X361661Y-262502D01*
Y-265834D01*
X359995Y-267500D01*
X356663D01*
X354997Y-265834D01*
X364994Y-259169D02*
X366660Y-257503D01*
X369992D01*
X371658Y-259169D01*
Y-265834D01*
X369992Y-267500D01*
X366660D01*
X364994Y-265834D01*
Y-259169D01*
X609950Y-245500D02*
X599953D01*
Y-240502D01*
X601620Y-238836D01*
X604952D01*
X606618Y-240502D01*
Y-245500D01*
Y-242168D02*
X609950Y-238836D01*
Y-230505D02*
X599953D01*
X604952Y-235503D01*
Y-228839D01*
X599953Y-225506D02*
Y-218842D01*
X601620D01*
X608284Y-225506D01*
X609950D01*
X-318000Y-353250D02*
Y-343253D01*
X-313002D01*
X-311336Y-344919D01*
Y-348252D01*
X-313002Y-349918D01*
X-318000D01*
X-314668D02*
X-311336Y-353250D01*
X-301339Y-343253D02*
X-308003D01*
Y-348252D01*
X-304671Y-346586D01*
X-303005D01*
X-301339Y-348252D01*
Y-351584D01*
X-303005Y-353250D01*
X-306337D01*
X-308003Y-351584D01*
X-298006D02*
X-296340Y-353250D01*
X-293008D01*
X-291342Y-351584D01*
Y-344919D01*
X-293008Y-343253D01*
X-296340D01*
X-298006Y-344919D01*
Y-346586D01*
X-296340Y-348252D01*
X-291342D01*
X148000Y-223000D02*
Y-213003D01*
X152998D01*
X154664Y-214669D01*
Y-218002D01*
X152998Y-219668D01*
X148000D01*
X151332D02*
X154664Y-223000D01*
X157997Y-214669D02*
X159663Y-213003D01*
X162995D01*
X164661Y-214669D01*
Y-216336D01*
X162995Y-218002D01*
X161329D01*
X162995D01*
X164661Y-219668D01*
Y-221334D01*
X162995Y-223000D01*
X159663D01*
X157997Y-221334D01*
X174658Y-213003D02*
X171326Y-214669D01*
X167994Y-218002D01*
Y-221334D01*
X169660Y-223000D01*
X172992D01*
X174658Y-221334D01*
Y-219668D01*
X172992Y-218002D01*
X167994D01*
X-280000Y-240000D02*
Y-230003D01*
X-275002D01*
X-273335Y-231669D01*
Y-235002D01*
X-275002Y-236668D01*
X-280000D01*
X-276668D02*
X-273335Y-240000D01*
X-265005D02*
Y-230003D01*
X-270003Y-235002D01*
X-263339D01*
X-253342Y-230003D02*
X-260006D01*
Y-235002D01*
X-256674Y-233335D01*
X-255008D01*
X-253342Y-235002D01*
Y-238334D01*
X-255008Y-240000D01*
X-258340D01*
X-260006Y-238334D01*
X517500Y-275000D02*
Y-265003D01*
X522498D01*
X524165Y-266669D01*
Y-270002D01*
X522498Y-271668D01*
X517500D01*
X520832D02*
X524165Y-275000D01*
X532495D02*
Y-265003D01*
X527497Y-270002D01*
X534161D01*
X544158Y-265003D02*
X540826Y-266669D01*
X537494Y-270002D01*
Y-273334D01*
X539160Y-275000D01*
X542492D01*
X544158Y-273334D01*
Y-271668D01*
X542492Y-270002D01*
X537494D01*
X574000Y-405000D02*
Y-395003D01*
X578998D01*
X580664Y-396669D01*
Y-400002D01*
X578998Y-401668D01*
X574000D01*
X577332D02*
X580664Y-405000D01*
X590661Y-395003D02*
X587329Y-396669D01*
X583997Y-400002D01*
Y-403334D01*
X585663Y-405000D01*
X588995D01*
X590661Y-403334D01*
Y-401668D01*
X588995Y-400002D01*
X583997D01*
X593994Y-396669D02*
X595660Y-395003D01*
X598992D01*
X600658Y-396669D01*
Y-403334D01*
X598992Y-405000D01*
X595660D01*
X593994Y-403334D01*
Y-396669D01*
X-120000Y-345000D02*
Y-335003D01*
X-115002D01*
X-113336Y-336669D01*
Y-340002D01*
X-115002Y-341668D01*
X-120000D01*
X-116668D02*
X-113336Y-345000D01*
X-103339Y-335003D02*
X-110003D01*
Y-340002D01*
X-106671Y-338335D01*
X-105005D01*
X-103339Y-340002D01*
Y-343334D01*
X-105005Y-345000D01*
X-108337D01*
X-110003Y-343334D01*
X-100006Y-336669D02*
X-98340Y-335003D01*
X-95008D01*
X-93342Y-336669D01*
Y-338335D01*
X-95008Y-340002D01*
X-93342Y-341668D01*
Y-343334D01*
X-95008Y-345000D01*
X-98340D01*
X-100006Y-343334D01*
Y-341668D01*
X-98340Y-340002D01*
X-100006Y-338335D01*
Y-336669D01*
X-98340Y-340002D02*
X-95008D01*
X-21000Y-218000D02*
Y-208003D01*
X-16002D01*
X-14336Y-209669D01*
Y-213002D01*
X-16002Y-214668D01*
X-21000D01*
X-17668D02*
X-14336Y-218000D01*
X-11003Y-209669D02*
X-9337Y-208003D01*
X-6005D01*
X-4339Y-209669D01*
Y-211336D01*
X-6005Y-213002D01*
X-7671D01*
X-6005D01*
X-4339Y-214668D01*
Y-216334D01*
X-6005Y-218000D01*
X-9337D01*
X-11003Y-216334D01*
X-1006Y-208003D02*
X5658D01*
Y-209669D01*
X-1006Y-216334D01*
Y-218000D01*
X-278000Y-286000D02*
Y-276003D01*
X-273002D01*
X-271336Y-277669D01*
Y-281002D01*
X-273002Y-282668D01*
X-278000D01*
X-274668D02*
X-271336Y-286000D01*
X-261339Y-276003D02*
X-268003D01*
Y-281002D01*
X-264671Y-279335D01*
X-263005D01*
X-261339Y-281002D01*
Y-284334D01*
X-263005Y-286000D01*
X-266337D01*
X-268003Y-284334D01*
X-258006Y-286000D02*
X-254674D01*
X-256340D01*
Y-276003D01*
X-258006Y-277669D01*
X516000Y-227000D02*
Y-217003D01*
X520998D01*
X522664Y-218669D01*
Y-222002D01*
X520998Y-223668D01*
X516000D01*
X519332D02*
X522664Y-227000D01*
X525997Y-218669D02*
X527663Y-217003D01*
X530995D01*
X532661Y-218669D01*
Y-220335D01*
X530995Y-222002D01*
X529329D01*
X530995D01*
X532661Y-223668D01*
Y-225334D01*
X530995Y-227000D01*
X527663D01*
X525997Y-225334D01*
X535994D02*
X537660Y-227000D01*
X540992D01*
X542658Y-225334D01*
Y-218669D01*
X540992Y-217003D01*
X537660D01*
X535994Y-218669D01*
Y-220335D01*
X537660Y-222002D01*
X542658D01*
X652000Y-411000D02*
X642003D01*
Y-406002D01*
X643669Y-404336D01*
X647002D01*
X648668Y-406002D01*
Y-411000D01*
Y-407668D02*
X652000Y-404336D01*
X642003Y-394339D02*
X643669Y-397671D01*
X647002Y-401003D01*
X650334D01*
X652000Y-399337D01*
Y-396005D01*
X650334Y-394339D01*
X648668D01*
X647002Y-396005D01*
Y-401003D01*
X652000Y-391006D02*
Y-387674D01*
Y-389340D01*
X642003D01*
X643669Y-391006D01*
X-150000Y-312500D02*
Y-302503D01*
X-145002D01*
X-143336Y-304169D01*
Y-307502D01*
X-145002Y-309168D01*
X-150000D01*
X-146668D02*
X-143336Y-312500D01*
X-133339Y-302503D02*
X-140003D01*
Y-307502D01*
X-136671Y-305835D01*
X-135005D01*
X-133339Y-307502D01*
Y-310834D01*
X-135005Y-312500D01*
X-138337D01*
X-140003Y-310834D01*
X-130006Y-304169D02*
X-128340Y-302503D01*
X-125008D01*
X-123342Y-304169D01*
Y-305835D01*
X-125008Y-307502D01*
X-126674D01*
X-125008D01*
X-123342Y-309168D01*
Y-310834D01*
X-125008Y-312500D01*
X-128340D01*
X-130006Y-310834D01*
X-21000Y-266000D02*
Y-256003D01*
X-16002D01*
X-14336Y-257669D01*
Y-261002D01*
X-16002Y-262668D01*
X-21000D01*
X-17668D02*
X-14336Y-266000D01*
X-6005D02*
Y-256003D01*
X-11003Y-261002D01*
X-4339D01*
X3992Y-266000D02*
Y-256003D01*
X-1006Y-261002D01*
X5658D01*
X101000Y-340000D02*
Y-330003D01*
X105998D01*
X107664Y-331669D01*
Y-335002D01*
X105998Y-336668D01*
X101000D01*
X104332D02*
X107664Y-340000D01*
X117661Y-330003D02*
X110997D01*
Y-335002D01*
X114329Y-333335D01*
X115995D01*
X117661Y-335002D01*
Y-338334D01*
X115995Y-340000D01*
X112663D01*
X110997Y-338334D01*
X120994Y-330003D02*
X127658D01*
Y-331669D01*
X120994Y-338334D01*
Y-340000D01*
X-105000Y-435000D02*
Y-425003D01*
X-100002D01*
X-98336Y-426669D01*
Y-430002D01*
X-100002Y-431668D01*
X-105000D01*
X-101668D02*
X-98336Y-435000D01*
X-88339Y-425003D02*
X-91671Y-426669D01*
X-95003Y-430002D01*
Y-433334D01*
X-93337Y-435000D01*
X-90005D01*
X-88339Y-433334D01*
Y-431668D01*
X-90005Y-430002D01*
X-95003D01*
X-85006Y-426669D02*
X-83340Y-425003D01*
X-80008D01*
X-78342Y-426669D01*
Y-428335D01*
X-80008Y-430002D01*
X-81674D01*
X-80008D01*
X-78342Y-431668D01*
Y-433334D01*
X-80008Y-435000D01*
X-83340D01*
X-85006Y-433334D01*
X-105000Y-452500D02*
Y-442503D01*
X-100002D01*
X-98336Y-444169D01*
Y-447502D01*
X-100002Y-449168D01*
X-105000D01*
X-101668D02*
X-98336Y-452500D01*
X-88339Y-442503D02*
X-91671Y-444169D01*
X-95003Y-447502D01*
Y-450834D01*
X-93337Y-452500D01*
X-90005D01*
X-88339Y-450834D01*
Y-449168D01*
X-90005Y-447502D01*
X-95003D01*
X-78342Y-442503D02*
X-85006D01*
Y-447502D01*
X-81674Y-445835D01*
X-80008D01*
X-78342Y-447502D01*
Y-450834D01*
X-80008Y-452500D01*
X-83340D01*
X-85006Y-450834D01*
X-95000Y-487500D02*
Y-477503D01*
X-90002D01*
X-88336Y-479169D01*
Y-482502D01*
X-90002Y-484168D01*
X-95000D01*
X-91668D02*
X-88336Y-487500D01*
X-78339Y-477503D02*
X-81671Y-479169D01*
X-85003Y-482502D01*
Y-485834D01*
X-83337Y-487500D01*
X-80005D01*
X-78339Y-485834D01*
Y-484168D01*
X-80005Y-482502D01*
X-85003D01*
X-75006Y-477503D02*
X-68342D01*
Y-479169D01*
X-75006Y-485834D01*
Y-487500D01*
X57000Y-443000D02*
Y-433003D01*
X61998D01*
X63664Y-434669D01*
Y-438002D01*
X61998Y-439668D01*
X57000D01*
X60332D02*
X63664Y-443000D01*
X73661Y-433003D02*
X70329Y-434669D01*
X66997Y-438002D01*
Y-441334D01*
X68663Y-443000D01*
X71995D01*
X73661Y-441334D01*
Y-439668D01*
X71995Y-438002D01*
X66997D01*
X83658Y-433003D02*
X80326Y-434669D01*
X76993Y-438002D01*
Y-441334D01*
X78660Y-443000D01*
X81992D01*
X83658Y-441334D01*
Y-439668D01*
X81992Y-438002D01*
X76993D01*
X-165000Y-405000D02*
Y-395003D01*
X-160002D01*
X-158336Y-396669D01*
Y-400002D01*
X-160002Y-401668D01*
X-165000D01*
X-161668D02*
X-158336Y-405000D01*
X-148339Y-395003D02*
X-151671Y-396669D01*
X-155003Y-400002D01*
Y-403334D01*
X-153337Y-405000D01*
X-150005D01*
X-148339Y-403334D01*
Y-401668D01*
X-150005Y-400002D01*
X-155003D01*
X-138342Y-405000D02*
X-145006D01*
X-138342Y-398335D01*
Y-396669D01*
X-140008Y-395003D01*
X-143340D01*
X-145006Y-396669D01*
X200000Y160000D02*
Y169997D01*
X204998D01*
X206665Y168331D01*
Y164998D01*
X204998Y163332D01*
X200000D01*
X203332D02*
X206665Y160000D01*
X216661Y168331D02*
X214995Y169997D01*
X211663D01*
X209997Y168331D01*
Y166665D01*
X211663Y164998D01*
X214995D01*
X216661Y163332D01*
Y161666D01*
X214995Y160000D01*
X211663D01*
X209997Y161666D01*
X219994Y169997D02*
X226658D01*
X223326D01*
Y160000D01*
X475000Y162750D02*
Y172747D01*
X479999D01*
X481665Y171081D01*
Y167748D01*
X479999Y166082D01*
X475000D01*
X478332D02*
X481665Y162750D01*
X491661Y171081D02*
X489995Y172747D01*
X486663D01*
X484997Y171081D01*
Y169415D01*
X486663Y167748D01*
X489995D01*
X491661Y166082D01*
Y164416D01*
X489995Y162750D01*
X486663D01*
X484997Y164416D01*
X494994Y172747D02*
X501658D01*
X498326D01*
Y162750D01*
X-496250Y74247D02*
Y65916D01*
X-494584Y64250D01*
X-491252D01*
X-489585Y65916D01*
Y74247D01*
X-486253D02*
X-479589D01*
Y72581D01*
X-486253Y65916D01*
Y64250D01*
X43750Y74247D02*
Y65916D01*
X45416Y64250D01*
X48748D01*
X50415Y65916D01*
Y74247D01*
X53747Y65916D02*
X55413Y64250D01*
X58745D01*
X60411Y65916D01*
Y72581D01*
X58745Y74247D01*
X55413D01*
X53747Y72581D01*
Y70915D01*
X55413Y69248D01*
X60411D01*
X313750Y74247D02*
Y65916D01*
X315416Y64250D01*
X318748D01*
X320415Y65916D01*
Y74247D01*
X323747Y64250D02*
X327079D01*
X325413D01*
Y74247D01*
X323747Y72581D01*
X332077D02*
X333744Y74247D01*
X337076D01*
X338742Y72581D01*
Y65916D01*
X337076Y64250D01*
X333744D01*
X332077Y65916D01*
Y72581D01*
X-653997Y-306000D02*
X-645666D01*
X-644000Y-304334D01*
Y-301002D01*
X-645666Y-299335D01*
X-653997D01*
X-644000Y-296003D02*
Y-292671D01*
Y-294337D01*
X-653997D01*
X-652331Y-296003D01*
X-653997Y-281008D02*
Y-287673D01*
X-648998D01*
X-650665Y-284340D01*
Y-282674D01*
X-648998Y-281008D01*
X-645666D01*
X-644000Y-282674D01*
Y-286006D01*
X-645666Y-287673D01*
X-340001Y357497D02*
Y349166D01*
X-338335Y347500D01*
X-335002D01*
X-333336Y349166D01*
Y357497D01*
X-323339D02*
X-330004D01*
Y352499D01*
X-326672Y354165D01*
X-325005D01*
X-323339Y352499D01*
Y349166D01*
X-325005Y347500D01*
X-328338D01*
X-330004Y349166D01*
X-2000Y332997D02*
Y324666D01*
X-334Y323000D01*
X2998D01*
X4665Y324666D01*
Y332997D01*
X14661D02*
X11329Y331331D01*
X7997Y327998D01*
Y324666D01*
X9663Y323000D01*
X12995D01*
X14661Y324666D01*
Y326332D01*
X12995Y327998D01*
X7997D01*
X350000Y329997D02*
Y321666D01*
X351666Y320000D01*
X354998D01*
X356665Y321666D01*
Y329997D01*
X364995Y320000D02*
Y329997D01*
X359997Y324998D01*
X366661D01*
X-495000Y-277003D02*
Y-285334D01*
X-493334Y-287000D01*
X-490002D01*
X-488335Y-285334D01*
Y-277003D01*
X-485003Y-287000D02*
X-481671D01*
X-483337D01*
Y-277003D01*
X-485003Y-278669D01*
X-470008Y-277003D02*
X-473340Y-278669D01*
X-476673Y-282002D01*
Y-285334D01*
X-475006Y-287000D01*
X-471674D01*
X-470008Y-285334D01*
Y-283668D01*
X-471674Y-282002D01*
X-476673D01*
X-157000Y340997D02*
Y332666D01*
X-155334Y331000D01*
X-152002D01*
X-150336Y332666D01*
Y340997D01*
X-147003Y339331D02*
X-145337Y340997D01*
X-142005D01*
X-140339Y339331D01*
Y337664D01*
X-142005Y335998D01*
X-143671D01*
X-142005D01*
X-140339Y334332D01*
Y332666D01*
X-142005Y331000D01*
X-145337D01*
X-147003Y332666D01*
X200000Y338997D02*
Y330666D01*
X201666Y329000D01*
X204998D01*
X206665Y330666D01*
Y338997D01*
X209997Y329000D02*
X213329D01*
X211663D01*
Y338997D01*
X209997Y337331D01*
X-218000Y-209003D02*
Y-217334D01*
X-216334Y-219000D01*
X-213002D01*
X-211336Y-217334D01*
Y-209003D01*
X-208003Y-219000D02*
X-204671D01*
X-206337D01*
Y-209003D01*
X-208003Y-210669D01*
X-199673D02*
X-198006Y-209003D01*
X-194674D01*
X-193008Y-210669D01*
Y-212335D01*
X-194674Y-214002D01*
X-196340D01*
X-194674D01*
X-193008Y-215668D01*
Y-217334D01*
X-194674Y-219000D01*
X-198006D01*
X-199673Y-217334D01*
X419080Y-206003D02*
Y-214334D01*
X420746Y-216000D01*
X424078D01*
X425745Y-214334D01*
Y-206003D01*
X429077Y-216000D02*
X432409D01*
X430743D01*
Y-206003D01*
X429077Y-207669D01*
X444072Y-216000D02*
X437407D01*
X444072Y-209335D01*
Y-207669D01*
X442406Y-206003D01*
X439073D01*
X437407Y-207669D01*
X569000Y-297003D02*
Y-305334D01*
X570666Y-307000D01*
X573998D01*
X575664Y-305334D01*
Y-297003D01*
X578997Y-307000D02*
X582329D01*
X580663D01*
Y-297003D01*
X578997Y-298669D01*
X587327Y-297003D02*
X593992D01*
Y-298669D01*
X587327Y-305334D01*
Y-307000D01*
X-251750Y-292003D02*
Y-300334D01*
X-250084Y-302000D01*
X-246752D01*
X-245086Y-300334D01*
Y-292003D01*
X-241753Y-302000D02*
X-238421D01*
X-240087D01*
Y-292003D01*
X-241753Y-293669D01*
X-233423Y-300334D02*
X-231756Y-302000D01*
X-228424D01*
X-226758Y-300334D01*
Y-293669D01*
X-228424Y-292003D01*
X-231756D01*
X-233423Y-293669D01*
Y-295336D01*
X-231756Y-297002D01*
X-226758D01*
X35000Y-192003D02*
Y-200334D01*
X36666Y-202000D01*
X39998D01*
X41665Y-200334D01*
Y-192003D01*
X44997Y-202000D02*
X48329D01*
X46663D01*
Y-192003D01*
X44997Y-193669D01*
X53327Y-202000D02*
X56660D01*
X54994D01*
Y-192003D01*
X53327Y-193669D01*
X197500Y-237503D02*
Y-245834D01*
X199166Y-247500D01*
X202498D01*
X204165Y-245834D01*
Y-237503D01*
X207497Y-247500D02*
X210829D01*
X209163D01*
Y-237503D01*
X207497Y-239169D01*
X220826Y-247500D02*
Y-237503D01*
X215827Y-242502D01*
X222492D01*
X-72000Y-323503D02*
Y-331834D01*
X-70334Y-333500D01*
X-67002D01*
X-65335Y-331834D01*
Y-323503D01*
X-55339Y-333500D02*
X-62003D01*
X-55339Y-326836D01*
Y-325169D01*
X-57005Y-323503D01*
X-60337D01*
X-62003Y-325169D01*
X-52006D02*
X-50340Y-323503D01*
X-47008D01*
X-45342Y-325169D01*
Y-331834D01*
X-47008Y-333500D01*
X-50340D01*
X-52006Y-331834D01*
Y-325169D01*
X-202500Y-410003D02*
Y-418334D01*
X-200834Y-420000D01*
X-197502D01*
X-195835Y-418334D01*
Y-410003D01*
X-185839Y-420000D02*
X-192503D01*
X-185839Y-413335D01*
Y-411669D01*
X-187505Y-410003D01*
X-190837D01*
X-192503Y-411669D01*
X-175842Y-420000D02*
X-182506D01*
X-175842Y-413335D01*
Y-411669D01*
X-177508Y-410003D01*
X-180840D01*
X-182506Y-411669D01*
X351000Y-292003D02*
Y-300334D01*
X352666Y-302000D01*
X355998D01*
X357664Y-300334D01*
Y-292003D01*
X360997Y-302000D02*
X364329D01*
X362663D01*
Y-292003D01*
X360997Y-293669D01*
X369327D02*
X370994Y-292003D01*
X374326D01*
X375992Y-293669D01*
Y-295336D01*
X374326Y-297002D01*
X375992Y-298668D01*
Y-300334D01*
X374326Y-302000D01*
X370994D01*
X369327Y-300334D01*
Y-298668D01*
X370994Y-297002D01*
X369327Y-295336D01*
Y-293669D01*
X370994Y-297002D02*
X374326D01*
X479500Y-381503D02*
Y-389834D01*
X481166Y-391500D01*
X484498D01*
X486165Y-389834D01*
Y-381503D01*
X496161Y-391500D02*
X489497D01*
X496161Y-384836D01*
Y-383169D01*
X494495Y-381503D01*
X491163D01*
X489497Y-383169D01*
X499494Y-391500D02*
X502826D01*
X501160D01*
Y-381503D01*
X499494Y-383169D01*
X102500Y-433253D02*
Y-434919D01*
X105832Y-438252D01*
X109164Y-434919D01*
Y-433253D01*
X105832Y-438252D02*
Y-443250D01*
X119161Y-433253D02*
X112497D01*
Y-438252D01*
X115829Y-436586D01*
X117495D01*
X119161Y-438252D01*
Y-441584D01*
X117495Y-443250D01*
X114163D01*
X112497Y-441584D01*
X-540336Y-161334D02*
Y-154669D01*
X-542002Y-153003D01*
X-545334D01*
X-547000Y-154669D01*
Y-161334D01*
X-545334Y-163000D01*
X-542002D01*
X-543668Y-159668D02*
X-540336Y-163000D01*
X-542002D02*
X-540336Y-161334D01*
X-537003Y-154669D02*
X-535337Y-153003D01*
X-532005D01*
X-530339Y-154669D01*
Y-156335D01*
X-532005Y-158002D01*
X-530339Y-159668D01*
Y-161334D01*
X-532005Y-163000D01*
X-535337D01*
X-537003Y-161334D01*
Y-159668D01*
X-535337Y-158002D01*
X-537003Y-156335D01*
Y-154669D01*
X-535337Y-158002D02*
X-532005D01*
X-272085Y-154084D02*
Y-147419D01*
X-273752Y-145753D01*
X-277084D01*
X-278750Y-147419D01*
Y-154084D01*
X-277084Y-155750D01*
X-273752D01*
X-275418Y-152418D02*
X-272085Y-155750D01*
X-273752D02*
X-272085Y-154084D01*
X-268753Y-155750D02*
X-265421D01*
X-267087D01*
Y-145753D01*
X-268753Y-147419D01*
X-260422D02*
X-258756Y-145753D01*
X-255424D01*
X-253758Y-147419D01*
Y-154084D01*
X-255424Y-155750D01*
X-258756D01*
X-260422Y-154084D01*
Y-147419D01*
X-2335Y-142334D02*
Y-135669D01*
X-4002Y-134003D01*
X-7334D01*
X-9000Y-135669D01*
Y-142334D01*
X-7334Y-144000D01*
X-4002D01*
X-5668Y-140668D02*
X-2335Y-144000D01*
X-4002D02*
X-2335Y-142334D01*
X997D02*
X2663Y-144000D01*
X5995D01*
X7661Y-142334D01*
Y-135669D01*
X5995Y-134003D01*
X2663D01*
X997Y-135669D01*
Y-137336D01*
X2663Y-139002D01*
X7661D01*
X-544336Y-126334D02*
Y-119669D01*
X-546002Y-118003D01*
X-549334D01*
X-551000Y-119669D01*
Y-126334D01*
X-549334Y-128000D01*
X-546002D01*
X-547668Y-124668D02*
X-544336Y-128000D01*
X-546002D02*
X-544336Y-126334D01*
X-536005Y-128000D02*
Y-118003D01*
X-541003Y-123002D01*
X-534339D01*
X-272085Y-111584D02*
Y-104919D01*
X-273752Y-103253D01*
X-277084D01*
X-278750Y-104919D01*
Y-111584D01*
X-277084Y-113250D01*
X-273752D01*
X-275418Y-109918D02*
X-272085Y-113250D01*
X-273752D02*
X-272085Y-111584D01*
X-262089Y-103253D02*
X-265421Y-104919D01*
X-268753Y-108252D01*
Y-111584D01*
X-267087Y-113250D01*
X-263755D01*
X-262089Y-111584D01*
Y-109918D01*
X-263755Y-108252D01*
X-268753D01*
X-1336Y-104334D02*
Y-97669D01*
X-3002Y-96003D01*
X-6334D01*
X-8000Y-97669D01*
Y-104334D01*
X-6334Y-106000D01*
X-3002D01*
X-4668Y-102668D02*
X-1336Y-106000D01*
X-3002D02*
X-1336Y-104334D01*
X8661Y-96003D02*
X1997D01*
Y-101002D01*
X5329Y-99335D01*
X6995D01*
X8661Y-101002D01*
Y-104334D01*
X6995Y-106000D01*
X3663D01*
X1997Y-104334D01*
X267915Y-111584D02*
Y-104919D01*
X266248Y-103253D01*
X262916D01*
X261250Y-104919D01*
Y-111584D01*
X262916Y-113250D01*
X266248D01*
X264582Y-109918D02*
X267915Y-113250D01*
X266248D02*
X267915Y-111584D01*
X271247Y-103253D02*
X277911D01*
Y-104919D01*
X271247Y-111584D01*
Y-113250D01*
X-488750Y-140250D02*
Y-130253D01*
X-483752D01*
X-482085Y-131919D01*
Y-135252D01*
X-483752Y-136918D01*
X-488750D01*
X-485418D02*
X-482085Y-140250D01*
X-478753Y-131919D02*
X-477087Y-130253D01*
X-473755D01*
X-472089Y-131919D01*
Y-133586D01*
X-473755Y-135252D01*
X-475421D01*
X-473755D01*
X-472089Y-136918D01*
Y-138584D01*
X-473755Y-140250D01*
X-477087D01*
X-478753Y-138584D01*
X-462092Y-140250D02*
X-468756D01*
X-462092Y-133586D01*
Y-131919D01*
X-463758Y-130253D01*
X-467090D01*
X-468756Y-131919D01*
X-218750Y-163250D02*
Y-153253D01*
X-213752D01*
X-212085Y-154919D01*
Y-158252D01*
X-213752Y-159918D01*
X-218750D01*
X-215418D02*
X-212085Y-163250D01*
X-208753Y-154919D02*
X-207087Y-153253D01*
X-203755D01*
X-202089Y-154919D01*
Y-156586D01*
X-203755Y-158252D01*
X-205421D01*
X-203755D01*
X-202089Y-159918D01*
Y-161584D01*
X-203755Y-163250D01*
X-207087D01*
X-208753Y-161584D01*
X-198756Y-154919D02*
X-197090Y-153253D01*
X-193758D01*
X-192092Y-154919D01*
Y-156586D01*
X-193758Y-158252D01*
X-195424D01*
X-193758D01*
X-192092Y-159918D01*
Y-161584D01*
X-193758Y-163250D01*
X-197090D01*
X-198756Y-161584D01*
X51250Y-163250D02*
Y-153253D01*
X56248D01*
X57915Y-154919D01*
Y-158252D01*
X56248Y-159918D01*
X51250D01*
X54582D02*
X57915Y-163250D01*
X61247Y-154919D02*
X62913Y-153253D01*
X66245D01*
X67911Y-154919D01*
Y-156586D01*
X66245Y-158252D01*
X64579D01*
X66245D01*
X67911Y-159918D01*
Y-161584D01*
X66245Y-163250D01*
X62913D01*
X61247Y-161584D01*
X76242Y-163250D02*
Y-153253D01*
X71244Y-158252D01*
X77908D01*
X321250Y-163250D02*
Y-153253D01*
X326249D01*
X327915Y-154919D01*
Y-158252D01*
X326249Y-159918D01*
X321250D01*
X324582D02*
X327915Y-163250D01*
X331247Y-154919D02*
X332913Y-153253D01*
X336245D01*
X337911Y-154919D01*
Y-156586D01*
X336245Y-158252D01*
X334579D01*
X336245D01*
X337911Y-159918D01*
Y-161584D01*
X336245Y-163250D01*
X332913D01*
X331247Y-161584D01*
X347908Y-153253D02*
X341244D01*
Y-158252D01*
X344576Y-156586D01*
X346242D01*
X347908Y-158252D01*
Y-161584D01*
X346242Y-163250D01*
X342910D01*
X341244Y-161584D01*
X-491250Y-110250D02*
Y-100253D01*
X-486252D01*
X-484585Y-101919D01*
Y-105252D01*
X-486252Y-106918D01*
X-491250D01*
X-487918D02*
X-484585Y-110250D01*
X-474589D02*
X-481253D01*
X-474589Y-103586D01*
Y-101919D01*
X-476255Y-100253D01*
X-479587D01*
X-481253Y-101919D01*
X-471256D02*
X-469590Y-100253D01*
X-466258D01*
X-464592Y-101919D01*
Y-103586D01*
X-466258Y-105252D01*
X-464592Y-106918D01*
Y-108584D01*
X-466258Y-110250D01*
X-469590D01*
X-471256Y-108584D01*
Y-106918D01*
X-469590Y-105252D01*
X-471256Y-103586D01*
Y-101919D01*
X-469590Y-105252D02*
X-466258D01*
X-221250Y-133250D02*
Y-123253D01*
X-216252D01*
X-214585Y-124919D01*
Y-128252D01*
X-216252Y-129918D01*
X-221250D01*
X-217918D02*
X-214585Y-133250D01*
X-204589D02*
X-211253D01*
X-204589Y-126586D01*
Y-124919D01*
X-206255Y-123253D01*
X-209587D01*
X-211253Y-124919D01*
X-201256Y-131584D02*
X-199590Y-133250D01*
X-196258D01*
X-194592Y-131584D01*
Y-124919D01*
X-196258Y-123253D01*
X-199590D01*
X-201256Y-124919D01*
Y-126586D01*
X-199590Y-128252D01*
X-194592D01*
X48750Y-133250D02*
Y-123253D01*
X53748D01*
X55415Y-124919D01*
Y-128252D01*
X53748Y-129918D01*
X48750D01*
X52082D02*
X55415Y-133250D01*
X58747Y-124919D02*
X60413Y-123253D01*
X63745D01*
X65411Y-124919D01*
Y-126586D01*
X63745Y-128252D01*
X62079D01*
X63745D01*
X65411Y-129918D01*
Y-131584D01*
X63745Y-133250D01*
X60413D01*
X58747Y-131584D01*
X68744Y-124919D02*
X70410Y-123253D01*
X73742D01*
X75408Y-124919D01*
Y-131584D01*
X73742Y-133250D01*
X70410D01*
X68744Y-131584D01*
Y-124919D01*
X322500Y-132500D02*
Y-122503D01*
X327498D01*
X329165Y-124169D01*
Y-127502D01*
X327498Y-129168D01*
X322500D01*
X325832D02*
X329165Y-132500D01*
X332497Y-124169D02*
X334163Y-122503D01*
X337495D01*
X339161Y-124169D01*
Y-125836D01*
X337495Y-127502D01*
X335829D01*
X337495D01*
X339161Y-129168D01*
Y-130834D01*
X337495Y-132500D01*
X334163D01*
X332497Y-130834D01*
X342494Y-132500D02*
X345826D01*
X344160D01*
Y-122503D01*
X342494Y-124169D01*
X579000Y-437000D02*
Y-427003D01*
X583998D01*
X585664Y-428669D01*
Y-432002D01*
X583998Y-433668D01*
X579000D01*
X582332D02*
X585664Y-437000D01*
X595661Y-427003D02*
X592329Y-428669D01*
X588997Y-432002D01*
Y-435334D01*
X590663Y-437000D01*
X593995D01*
X595661Y-435334D01*
Y-433668D01*
X593995Y-432002D01*
X588997D01*
X603992Y-437000D02*
Y-427003D01*
X598994Y-432002D01*
X605658D01*
X547000Y-462000D02*
Y-452003D01*
X551998D01*
X553665Y-453669D01*
Y-457002D01*
X551998Y-458668D01*
X547000D01*
X550332D02*
X553665Y-462000D01*
X561995D02*
X558663D01*
X556997Y-460334D01*
Y-457002D01*
X558663Y-455336D01*
X561995D01*
X563661Y-457002D01*
Y-458668D01*
X556997D01*
X566994Y-462000D02*
X571992D01*
X573658Y-460334D01*
X571992Y-458668D01*
X568660D01*
X566994Y-457002D01*
X568660Y-455336D01*
X573658D01*
X267915Y-154084D02*
Y-147419D01*
X266248Y-145753D01*
X262916D01*
X261250Y-147419D01*
Y-154084D01*
X262916Y-155750D01*
X266248D01*
X264582Y-152418D02*
X267915Y-155750D01*
X266248D02*
X267915Y-154084D01*
X271247Y-155750D02*
X274579D01*
X272913D01*
Y-145753D01*
X271247Y-147419D01*
X279578Y-155750D02*
X282910D01*
X281244D01*
Y-145753D01*
X279578Y-147419D01*
X-321750Y37247D02*
Y35581D01*
X-318418Y32248D01*
X-315086Y35581D01*
Y37247D01*
X-318418Y32248D02*
Y27250D01*
X-311753D02*
X-308421D01*
X-310087D01*
Y37247D01*
X-311753Y35581D01*
X-51750Y37247D02*
Y35581D01*
X-48418Y32248D01*
X-45085Y35581D01*
Y37247D01*
X-48418Y32248D02*
Y27250D01*
X-35089D02*
X-41753D01*
X-35089Y33914D01*
Y35581D01*
X-36755Y37247D01*
X-40087D01*
X-41753Y35581D01*
X218250Y37247D02*
Y35581D01*
X221582Y32248D01*
X224915Y35581D01*
Y37247D01*
X221582Y32248D02*
Y27250D01*
X228247Y35581D02*
X229913Y37247D01*
X233245D01*
X234911Y35581D01*
Y33914D01*
X233245Y32248D01*
X231579D01*
X233245D01*
X234911Y30582D01*
Y28916D01*
X233245Y27250D01*
X229913D01*
X228247Y28916D01*
X488250Y37247D02*
Y35581D01*
X491582Y32248D01*
X494915Y35581D01*
Y37247D01*
X491582Y32248D02*
Y27250D01*
X503245D02*
Y37247D01*
X498247Y32248D01*
X504911D01*
X-328750Y169250D02*
Y179247D01*
X-323752D01*
X-322085Y177581D01*
Y174248D01*
X-323752Y172582D01*
X-328750D01*
X-325418D02*
X-322085Y169250D01*
X-312089Y177581D02*
X-313755Y179247D01*
X-317087D01*
X-318753Y177581D01*
Y175914D01*
X-317087Y174248D01*
X-313755D01*
X-312089Y172582D01*
Y170916D01*
X-313755Y169250D01*
X-317087D01*
X-318753Y170916D01*
X-308756Y179247D02*
X-302092D01*
X-305424D01*
Y169250D01*
X-513000Y324997D02*
Y316666D01*
X-511334Y315000D01*
X-508002D01*
X-506335Y316666D01*
Y324997D01*
X-496339Y315000D02*
X-503003D01*
X-496339Y321665D01*
Y323331D01*
X-498005Y324997D01*
X-501337D01*
X-503003Y323331D01*
X-499585Y377497D02*
X-502917D01*
X-501251D01*
Y369166D01*
X-502917Y367500D01*
X-504583D01*
X-506249Y369166D01*
X-489588Y367500D02*
X-496252D01*
X-489588Y374165D01*
Y375831D01*
X-491254Y377497D01*
X-494586D01*
X-496252Y375831D01*
X-241000Y81997D02*
Y73666D01*
X-239334Y72000D01*
X-236002D01*
X-234335Y73666D01*
Y81997D01*
X-231003Y80331D02*
X-229337Y81997D01*
X-226005D01*
X-224339Y80331D01*
Y78664D01*
X-226005Y76998D01*
X-224339Y75332D01*
Y73666D01*
X-226005Y72000D01*
X-229337D01*
X-231003Y73666D01*
Y75332D01*
X-229337Y76998D01*
X-231003Y78664D01*
Y80331D01*
X-229337Y76998D02*
X-226005D01*
X-412664Y-462497D02*
X-409332Y-460831D01*
X-406000Y-457498D01*
Y-454166D01*
X-407666Y-452500D01*
X-410998D01*
X-412664Y-454166D01*
Y-455832D01*
X-410998Y-457498D01*
X-406000D01*
X-319000Y-455166D02*
X-320666Y-453500D01*
X-323998D01*
X-325664Y-455166D01*
Y-461831D01*
X-323998Y-463497D01*
X-320666D01*
X-319000Y-461831D01*
Y-460164D01*
X-320666Y-458498D01*
X-325664D01*
X-305336Y461997D02*
X-308668Y460331D01*
X-312000Y456998D01*
Y453666D01*
X-310334Y452000D01*
X-307002D01*
X-305336Y453666D01*
Y455332D01*
X-307002Y456998D01*
X-312000D01*
X-399000Y454666D02*
X-397334Y453000D01*
X-394002D01*
X-392336Y454666D01*
Y461331D01*
X-394002Y462997D01*
X-397334D01*
X-399000Y461331D01*
Y459664D01*
X-397334Y457998D01*
X-392336D01*
X52665Y461997D02*
X49333Y460331D01*
X46000Y456998D01*
Y453666D01*
X47667Y452000D01*
X50999D01*
X52665Y453666D01*
Y455332D01*
X50999Y456998D01*
X46000D01*
X-40999Y454666D02*
X-39333Y453000D01*
X-36001D01*
X-34335Y454666D01*
Y461331D01*
X-36001Y462997D01*
X-39333D01*
X-40999Y461331D01*
Y459664D01*
X-39333Y457998D01*
X-34335D01*
X404705Y462747D02*
X401373Y461081D01*
X398040Y457748D01*
Y454416D01*
X399706Y452750D01*
X403039D01*
X404705Y454416D01*
Y456082D01*
X403039Y457748D01*
X398040D01*
X311040Y455416D02*
X312707Y453750D01*
X316039D01*
X317705Y455416D01*
Y462081D01*
X316039Y463747D01*
X312707D01*
X311040Y462081D01*
Y460415D01*
X312707Y458748D01*
X317705D01*
M02*
