%FSLAX44Y44*%
%MOMM*%
G71*
G01*
G75*
G04 Layer_Color=32896*
%ADD10R,3.2000X2.1000*%
%ADD11R,0.9000X2.1000*%
%ADD12R,0.9000X0.6000*%
%ADD13R,0.8000X0.8000*%
%ADD14R,2.0000X0.4000*%
%ADD15R,0.6000X0.9000*%
%ADD16O,0.6000X2.2000*%
%ADD17R,1.1000X2.3000*%
%ADD18R,0.8000X0.8000*%
%ADD19R,0.6000X1.1500*%
%ADD20R,1.3000X0.9000*%
%ADD21O,2.1000X0.3000*%
%ADD22O,0.3000X2.1000*%
%ADD23R,0.4000X2.1500*%
%ADD24R,0.4000X2.1500*%
%ADD25R,0.3500X1.7000*%
%ADD26O,2.5000X0.7000*%
%ADD27O,0.7000X2.5000*%
%ADD28R,2.1000X0.9000*%
%ADD29R,2.1000X3.2000*%
%ADD30O,2.2000X0.6000*%
%ADD31R,2.0000X0.8500*%
%ADD32R,1.1500X1.3000*%
%ADD33R,1.2000X1.3000*%
%ADD34R,0.6000X1.3000*%
%ADD35C,0.2000*%
%ADD36C,0.5000*%
%ADD37R,1.2000X1.2000*%
%ADD38C,1.2000*%
%ADD39C,3.5000*%
%ADD40C,1.5000*%
%ADD41R,1.5000X1.5000*%
%ADD42R,1.5000X1.5000*%
%ADD43C,1.5240*%
%ADD44C,4.5000*%
%ADD45C,4.7600*%
%ADD46R,1.6900X1.6900*%
%ADD47C,1.6900*%
%ADD48C,0.8000*%
%ADD49C,1.0000*%
%ADD50C,0.2032*%
%ADD51R,1.0000X1.0000*%
%ADD52C,0.2540*%
%ADD53C,0.2500*%
%ADD54C,0.1000*%
%ADD55C,0.6000*%
%ADD56C,0.1500*%
%ADD57R,3.4000X2.3000*%
%ADD58R,1.1000X2.3000*%
%ADD59R,1.1000X0.8000*%
%ADD60R,2.2000X0.6000*%
%ADD61R,0.8000X1.1000*%
%ADD62O,0.8000X2.4000*%
%ADD63R,1.3000X2.5000*%
%ADD64R,1.0000X1.0000*%
%ADD65R,0.8000X1.3500*%
%ADD66R,1.5000X1.1000*%
%ADD67O,2.3000X0.5000*%
%ADD68O,0.5000X2.3000*%
%ADD69R,0.6000X2.3500*%
%ADD70R,0.6000X2.3500*%
%ADD71R,0.5500X1.9000*%
%ADD72O,2.7000X0.9000*%
%ADD73O,0.9000X2.7000*%
%ADD74R,2.3000X1.1000*%
%ADD75R,2.3000X3.4000*%
%ADD76O,2.4000X0.8000*%
%ADD77R,2.2000X1.0500*%
%ADD78R,1.3500X1.5000*%
%ADD79R,1.4000X1.5000*%
%ADD80R,0.8000X1.5000*%
%ADD81R,1.4000X1.4000*%
%ADD82C,1.4000*%
%ADD83C,3.7000*%
%ADD84C,1.7000*%
%ADD85R,1.7000X1.7000*%
%ADD86R,1.7000X1.7000*%
%ADD87C,1.7240*%
%ADD88C,4.7000*%
%ADD89C,4.9600*%
%ADD90R,1.8900X1.8900*%
%ADD91C,1.8900*%
%ADD92R,1.9000X1.2000*%
%ADD93R,1.2000X1.2000*%
D56*
X-413000Y-347000D02*
Y-337003D01*
X-417998D01*
X-419664Y-338669D01*
Y-342002D01*
X-417998Y-343668D01*
X-413000D01*
X-429661Y-347000D02*
X-422997D01*
X-429661Y-340336D01*
Y-338669D01*
X-427995Y-337003D01*
X-424663D01*
X-422997Y-338669D01*
X-432994Y-345334D02*
X-434660Y-347000D01*
X-437992D01*
X-439658Y-345334D01*
Y-338669D01*
X-437992Y-337003D01*
X-434660D01*
X-432994Y-338669D01*
Y-340336D01*
X-434660Y-342002D01*
X-439658D01*
X-388033Y359682D02*
Y369679D01*
X-393031D01*
X-394697Y368013D01*
Y364680D01*
X-393031Y363014D01*
X-388033D01*
X-404694Y359682D02*
X-398029D01*
X-404694Y366347D01*
Y368013D01*
X-403028Y369679D01*
X-399696D01*
X-398029Y368013D01*
X-408026Y359682D02*
X-411358D01*
X-409692D01*
Y369679D01*
X-408026Y368013D01*
X-30532Y358932D02*
Y368929D01*
X-35531D01*
X-37197Y367263D01*
Y363931D01*
X-35531Y362264D01*
X-30532D01*
X-47193Y358932D02*
X-40529D01*
X-47193Y365597D01*
Y367263D01*
X-45527Y368929D01*
X-42195D01*
X-40529Y367263D01*
X-50526D02*
X-52192Y368929D01*
X-55524D01*
X-57190Y367263D01*
Y365597D01*
X-55524Y363931D01*
X-53858D01*
X-55524D01*
X-57190Y362264D01*
Y360598D01*
X-55524Y358932D01*
X-52192D01*
X-50526Y360598D01*
X321508Y360182D02*
Y370179D01*
X316510D01*
X314844Y368513D01*
Y365180D01*
X316510Y363514D01*
X321508D01*
X311511Y360182D02*
X308179D01*
X309845D01*
Y370179D01*
X311511Y368513D01*
X303181Y361848D02*
X301515Y360182D01*
X298182D01*
X296516Y361848D01*
Y368513D01*
X298182Y370179D01*
X301515D01*
X303181Y368513D01*
Y366847D01*
X301515Y365180D01*
X296516D01*
X-373000Y-320000D02*
Y-310003D01*
X-377998D01*
X-379664Y-311669D01*
Y-315002D01*
X-377998Y-316668D01*
X-373000D01*
X-389661Y-320000D02*
X-382997D01*
X-389661Y-313335D01*
Y-311669D01*
X-387995Y-310003D01*
X-384663D01*
X-382997Y-311669D01*
X-392994Y-310003D02*
X-399658D01*
Y-311669D01*
X-392994Y-318334D01*
Y-320000D01*
X-352696Y340632D02*
Y350629D01*
X-357695D01*
X-359361Y348963D01*
Y345630D01*
X-357695Y343964D01*
X-352696D01*
X-369358Y340632D02*
X-362693D01*
X-369358Y347297D01*
Y348963D01*
X-367692Y350629D01*
X-364359D01*
X-362693Y348963D01*
X-379355Y350629D02*
X-372690D01*
Y345630D01*
X-376022Y347297D01*
X-377688D01*
X-379355Y345630D01*
Y342298D01*
X-377688Y340632D01*
X-374356D01*
X-372690Y342298D01*
X3138Y339882D02*
Y349879D01*
X-1860D01*
X-3526Y348213D01*
Y344880D01*
X-1860Y343214D01*
X3138D01*
X-13523Y339882D02*
X-6859D01*
X-13523Y346547D01*
Y348213D01*
X-11857Y349879D01*
X-8525D01*
X-6859Y348213D01*
X-23520Y349879D02*
X-20188Y348213D01*
X-16856Y344880D01*
Y341548D01*
X-18522Y339882D01*
X-21854D01*
X-23520Y341548D01*
Y343214D01*
X-21854Y344880D01*
X-16856D01*
X355178Y341132D02*
Y351129D01*
X350180D01*
X348514Y349463D01*
Y346130D01*
X350180Y344464D01*
X355178D01*
X338517Y341132D02*
X345182D01*
X338517Y347797D01*
Y349463D01*
X340183Y351129D01*
X343515D01*
X345182Y349463D01*
X330186Y341132D02*
Y351129D01*
X335185Y346130D01*
X328520D01*
X-345000Y-346000D02*
Y-336003D01*
X-349998D01*
X-351665Y-337669D01*
Y-341002D01*
X-349998Y-342668D01*
X-345000D01*
X-361661Y-346000D02*
X-354997D01*
X-361661Y-339336D01*
Y-337669D01*
X-359995Y-336003D01*
X-356663D01*
X-354997Y-337669D01*
X-364994D02*
X-366660Y-336003D01*
X-369992D01*
X-371658Y-337669D01*
Y-339336D01*
X-369992Y-341002D01*
X-371658Y-342668D01*
Y-344334D01*
X-369992Y-346000D01*
X-366660D01*
X-364994Y-344334D01*
Y-342668D01*
X-366660Y-341002D01*
X-364994Y-339336D01*
Y-337669D01*
X-366660Y-341002D02*
X-369992D01*
X-313103Y359682D02*
Y369679D01*
X-318101D01*
X-319767Y368013D01*
Y364680D01*
X-318101Y363014D01*
X-313103D01*
X-329764Y359682D02*
X-323099D01*
X-329764Y366347D01*
Y368013D01*
X-328098Y369679D01*
X-324766D01*
X-323099Y368013D01*
X-333096D02*
X-334762Y369679D01*
X-338095D01*
X-339761Y368013D01*
Y361348D01*
X-338095Y359682D01*
X-334762D01*
X-333096Y361348D01*
Y368013D01*
X44398Y358932D02*
Y368929D01*
X39399D01*
X37733Y367263D01*
Y363931D01*
X39399Y362264D01*
X44398D01*
X27737Y358932D02*
X34401D01*
X27737Y365597D01*
Y367263D01*
X29403Y368929D01*
X32735D01*
X34401Y367263D01*
X17740Y358932D02*
X24404D01*
X17740Y365597D01*
Y367263D01*
X19406Y368929D01*
X22738D01*
X24404Y367263D01*
X396438Y360182D02*
Y370179D01*
X391440D01*
X389774Y368513D01*
Y365180D01*
X391440Y363514D01*
X396438D01*
X386441Y360182D02*
X383109D01*
X384775D01*
Y370179D01*
X386441Y368513D01*
X378111D02*
X376445Y370179D01*
X373112D01*
X371446Y368513D01*
Y366847D01*
X373112Y365180D01*
X371446Y363514D01*
Y361848D01*
X373112Y360182D01*
X376445D01*
X378111Y361848D01*
Y363514D01*
X376445Y365180D01*
X378111Y366847D01*
Y368513D01*
X376445Y365180D02*
X373112D01*
M02*
