M48
;Layer_Color=9474304
;FILE_FORMAT=4:4
METRIC,LZ
;TYPE=PLATED
T1F00S00C0.3000
T2F00S00C0.5000
T3F00S00C0.7000
T4F00S00C0.7620
T5F00S00C0.9000
T6F00S00C0.9200
T7F00S00C1.0900
T8F00S00C2.3000
T9F00S00C2.6000
T10F00S00C3.2600
%
T01
X00494Y-00462
X00191Y-004705
X0010075Y-0045625
X000595Y-0046975
X0005025Y-004455
X00022751Y-00381019
X-00015Y-003885
X-00016001Y-00398519
X-0002875Y-0040925
X-0004325Y-004115
Y-003895
X-0004275Y-00374
X-00028501Y-00375768
X-000255Y-00424
X-0003575Y-0045875
X-00064Y-00457
X-0007875Y-00458
X-0007Y-00435
X-00094Y-0048975
X-0018925Y-00427
X-00436999Y-00381999
X-00463Y-00382
X-00477Y-00348
X-00474Y-00333
X-00492Y-00354
X-00489Y-00308
X-00524Y-00283
X-00552999Y-00252999
X-00581Y-00281
X-005875Y-00296
X-00579886Y-00307914
X-00603999Y-00302999
X-00609Y-00293
X-00602492Y-00354904
X-00604Y-00367
X-0060725Y-0018825
X-00601Y-0016
X-00532Y-00158
X-0048975Y-001635
X-004945Y-0013875
X-00477Y-00187
X-00484Y-00239
X-00412Y-00258
X-0038864Y-0026275
X-0039525Y-0028275
X-00389Y-00298
X-00418Y-00314
X-00394Y-00341
Y-00367
X-00405
X-00351
X-00339Y-00216
Y-00178
X-00333Y-0011625
X-00329Y-00065
X-00369Y-0006
X-00424Y-00055
X-00434Y-00059
X-00441393Y-00065749
X-00449999Y-00072
X-004535Y-0010375
X-00461Y-00047
X-00462Y-00031
X-00446Y-00013
X-00404Y-00014
X-00392Y-00018
X-0038625Y0001175
X-00377607Y0001975
X-00493999Y-00058
X-00504999Y-00063
X-00512999Y-00071
X-00523999Y-00089
X-00535999Y-00101
X-00534999Y-00112
X-00573Y-00086
X-00560379Y-00062621
X-00550379
X-00542999Y-00054
X-00615Y-00065
X-00607Y-0009
X-00413Y-00178
X-00279Y-00187
X-00288Y-0021175
X-00278Y-00223
X-00288Y-00247
X-00312Y-00246
X-00284Y-00296
X-00261
X-00235Y-002755
Y-002375
X-00242Y-00194
X-0022525Y-001765
X-002265Y-001465
X-0021325Y-00117
X-002Y-00061
X-00174
X-0014175Y-0006175
X-000965Y-0005375
X-0009525Y-00032
X-00104755Y000095
X-001135Y00017
X-000625Y00005
X-0004975Y-00022
X-0006475Y-0006525
X-00027Y-00063
X00022Y-00062
X00065
X0007775Y-00031251
X0003575Y-0003075
X0004575Y-0012625
X000455Y-001645
X00073Y-00193
X00023249Y-002165
Y-002545
X0002675Y-0029975
X00028501Y-00315515
X000555Y-0032025
X0006375Y-00328
X0006225Y-003415
X000445Y-0033625
X000185Y-0035075
X00029136Y-00372473
X000015Y-003675
X-00016501Y-00361268
X-00029Y-0035525
X-00022501Y-00347267
X-00038002Y-00349767
X-00083Y-00347
X-00087254Y-00332016
X-0009325Y-003235
X-0011175Y-0027025
X-00112Y-0023925
X-001615Y-0028875
X-0016925Y-00314
Y-00352
X-00246Y-00362
X-0029Y-00339
X-00288Y-00063
X-00246Y-00061
X-0023425Y-0003075
X-0019225Y-00031251
X-0029575Y0000175
X-00076Y-00134
X-00034252Y-00266263
X-000285Y-0027475
X-0002725Y-002915
X-000175Y-003085
X0006825Y-003085
X0007725Y-0031825
X0011125Y-0036
X0012125Y-0027125
X0014825Y-0025075
X00136Y-00207
X00122Y-00201
X00108Y-00208
X00097Y-00201
X00112Y-00187
X00096Y-00062
X0012825Y-0006175
X001735Y-0005375
X0017475Y-00032
X00165245Y000095
X001565Y00017
X002075Y00005
X0022025Y-00022
X0020525Y-0006525
X00248Y-00061
X00293Y-00062
X0030575Y-0003075
X0034775Y-00031251
X00342Y-00061
X00367
X0039825Y-0006175
X004435Y-0005375
X0044475Y-00032
X00435245Y000095
X004265Y00017
X0047525Y-0006525
X00463751Y-00127751
X0033875Y-0011875
X00315Y-0013375
X0031475Y-0017475
X00322Y-00185
X00295Y-0019
X0029Y-0021
X0027Y-00188
X00276Y-00273
X00329Y-002685
X00323Y-0030825
X0029825Y-00324
X00285Y-003215
X0037225Y-0025275
X00372Y-00225
X0041Y-0022
X00197Y-00128
X00515Y-00176
X005Y-00205
X00498Y-00228
Y-00266
X00558
X00582Y-00264
X00576Y-00247
X00594
X00547Y-0021
X00556Y-00196
X00568Y-00138
X00578Y-00078
X00546Y-00067
X00526
X0049025Y-00022
X004775Y00005
X00523Y-00315
X00566Y-00349
X0060195Y-003685
X0063995
X00651Y-00294
X00483Y-00357
X00490498Y00056003
X004765Y0003075
X0042625Y0003675
X00433Y00052
X0041775Y0005375
X0041325Y000235
X00383Y00036
X00375929Y00043071
X00368858Y00050142
X00377029Y00097279
X00347Y001035
X0033649Y00077504
X0032849Y00071253
X00320989Y00064253
X00319Y0008675
X0031025Y0009325
X00303239Y00100505
X00294488Y00071253
X0029725Y0006125
X00297488Y00046752
X00287488Y00048252
X00302429Y00031429
X003095Y000385
X0031825Y0002325
X002065Y0003075
X00220498Y00056003
X00163Y00052
X0014775Y0005375
X0015625Y0003675
X0014325Y000235
X00113Y00036
X00105929Y00043071
X00098858Y00050142
X00107029Y00097279
X0016525Y000945
X001905Y001405
X00236Y00171
Y00181
X00236Y00193
X00282Y00191
X00283Y00181
Y00171
X0031875Y0015725
X003295Y0015375
X0032225Y0018825
X00341Y0018825
X00392541Y00196291
X0040325Y0019525
X00407999Y00177
X00408Y00166
X0041675Y0015575
X00424271Y00162508
X00434271Y00159258
X00439021Y00149507
X00442Y00172
X00452999Y00174
X00463Y0014
X0043525Y000945
X00420291Y0024525
X0039704Y00246804
X00371791Y0024525
X0034654Y00254
X00321Y00283
X0031704Y00361198
X0030204Y0036996
X00287541Y003605
X0024204Y003625
X00221541Y003545
X00234541Y003205
X0022854Y00255026
X00151Y00208
X00115Y00229
X00392541Y00219
X00467Y00232
X0042Y00303
X0040329Y00300278
X0039029Y00309664
X00418282Y00358404
X00402Y00376
X00343041Y0035325
X00066242Y00357154
X00048Y00373
X0003825Y00308414
X0005125Y00299028
X00065742Y00309
X0006825Y00244
X00045Y00245554
X0001975Y00244
X-000055Y0025275
X-00031Y00281
X-00036Y00207
X-00045Y00213
X-0007025Y00231
X-001005Y002045
X-00124Y00196
X-00123501Y00253776
X-001175Y0031925
X-00130499Y0035325
X-0011Y0036125
X-00064499Y0035925
X-0005Y00365
X-00035Y00359948
X-00009Y00352
X-00002Y002
X00008Y00195
Y0017
X00009Y00159
X00028988Y00158258
X00038989
X00048989
X0005924Y00160008
X00073Y00171
Y00181
X0005075Y0013525
X00021Y00135
X00033533Y00100675
X0004025Y0009325
X00049Y0008675
X00050989Y00064253
X0005849Y00071253
X0006649Y00077504
X00077Y001035
X00024488Y00071253
X0002725Y0006125
X00027488Y00046752
X00017488Y00048252
X00032429Y00031429
X000395Y000385
X0004825Y0002325
X-000635Y0003075
X-00049502Y00056003
X-00107Y00052
X-0012225Y0005375
X-0011375Y0003675
X-0012675Y000235
X-00157Y00036
X-00164071Y00043071
X-00171142Y00050142
X-00162971Y00097279
X-00193Y001035
X-0020351Y00077504
X-0021151Y00071253
X-00219011Y00064253
X-00221Y0008675
X-0022975Y0009325
X-00236762Y00100505
X-00245512Y00071253
X-0024275Y0006125
X-00242512Y00046752
X-00252512Y00048252
X-00237571Y00031429
X-002305Y000385
X-0022175Y0002325
X-00295Y00062
X-00302Y00137
X-00302999Y00148
X-00251Y00139
X-0022575Y0013525
X-00221011Y00158258
X-00231011
X-00241012
X-0021076Y00160008
X-00227586Y00185586
X-00234657Y00192657
X-00214Y00214
X-00242Y00228
X-0028925Y0024475
X-002885Y00206
X-0028675Y0019525
X-00289Y00302971
X-00306251Y00299778
X-00312751Y00284751
X-00312Y00374
X-00291259Y00357904
X-00078Y00181
X-00081Y00162
X-00055Y00121
X-0010475Y000945
X000405Y0021775
X-00317Y002185
X-0033775Y0024475
X-00363Y002535
X-003885Y00283
X-00417Y00241
X-00406Y0020975
X-00435Y001835
X-00482Y0019
Y00175
Y0024
X-00481001Y00254526
X-00475Y0032
X-00488Y00354
X-004675Y00362
X-00422Y0036
X-00407Y00369581
X-003925Y00360698
X-003665Y0035275
X-0031925Y00309164
X-00343Y00147
X-00366Y00093
X-00373999Y00054
X-00375752Y00043248
X-0038375Y0003675
X-00387892Y0002675
X-00397Y00057
X-0041775Y0005325
X-0040802Y0011798
X-0046025Y0010375
X-00495Y00118
X-00519999Y00066
X-00524999Y00056
X-00521999Y00045
X-00523999Y00034
X-00561Y00059
X-00553Y00209
X-00334Y00028
T02
X00223Y00197
X00279Y00202
X0039325Y0018025
X00439Y00189
X00056Y00185
X-00003Y00183
X-00089Y0019
X-00055Y00224
X-00244Y00202
X-00342Y00159
T03
X-0043125Y-00165749
Y-00140349
X-0037375
Y-00165749
X-0031875
Y-00140349
X-0016125Y-0014035
Y-0016575
X-0010375Y-00165749
Y-00140349
X-0004875
Y-00165749
X0010875Y-0016575
Y-0014035
X0016625Y-00140349
Y-00165749
X00221249Y-0016575
Y-0014035
X0037875Y-0014035
Y-0016575
X0043625Y-0016575
Y-0014035
X0049125
Y-0016575
T04
X0059Y-004625
X00625
T05
X-0059415Y-00207
X-0056875
X-0049295Y-00083249
X-0046755
X-0044215
X-0041675
X-0038675Y-0008325
Y-0010865
X-0022295Y-00083249
X-0019755
X-0017215
X-0014675
X-0011675Y-0008325
Y-0010865
X0004705Y-00083249
X0007245
X0009785
X0012325
X0015325Y-0008325
Y-0010865
X0031705Y-00083249
X0034245
X0036785
X0039325
X0042325Y-0008325
Y-0010865
X00404Y0013425
X003786
X0036944Y0021875
X0034404
X00134Y0013425
X001086
X000174Y002175
X-00008
X-00136Y0013425
X-001614
X-003401Y0021825
X-003655
X-0043335Y0015175
X-0045875
T06
X0025Y-00385
X00275
Y-00365
X0025
T07
X-003096Y-003973
X-003373
X-00365
X-003927
X-004204
X-0040655Y-004257
X-0037885
X-0035115
X-0032345
X0030164Y0039755
X0032934
X0035704
X0038474
X0041244
X00060401Y003968
X00032701
X00005001
X-00022699
X-00050399
X-002976
X-003253
X-00353
X-003807
X-004084
X-0039455Y004252
X-0036685
X-0033915
X-0031145
X-00036549
X-00008849
X00018851
X0004655
X0031549Y0042595
X0034319
X0037089
X0039859
T08
X002023Y-004121
X003227
T09
X0055Y-00425
X-0055
Y00425
X0055
T10
X-0024005Y-004115
X-0048995
X0048199Y0041175
X0023209
X00129951Y00411
X-00119949
X-0022805
X-0047795
M30
